<mxfile host="app.diagrams.net" modified="2021-08-26T09:15:39.253Z" agent="5.0 (Windows NT 6.1; Win64; x64) AppleWebKit/537.36 (KHTML, like Gecko) Chrome/92.0.4515.131 Safari/537.36" etag="jhhLe0PJUvhEG7ZrrRw1" version="14.9.6" type="github">
  <diagram id="qOi7Z3j4NQc9VPbEtfSr" name="第 1 页">
    <mxGraphModel dx="7827" dy="2720" grid="1" gridSize="10" guides="1" tooltips="1" connect="1" arrows="1" fold="1" page="1" pageScale="1" pageWidth="1169" pageHeight="827" math="0" shadow="0">
      <root>
        <mxCell id="0" />
        <mxCell id="1" value="BeanWrapperImpl" style="locked=1;" parent="0" />
        <mxCell id="xPt96xxPR4awn_NFNTdS-1" value="" style="shape=image;aspect=fixed;image=data:image/png,iVBORw0KGgoAAAANSUhEUgAABowAAAOgCAIAAACIkcP6AACAAElEQVR4XuzdaXcUR7ro+/N1zvLufbv7utve+5QwwxaDAQmMmMywkcE0kxglBoEAIUYxCJDMIAYhwAhhAQaD243dbjys843ufn2DSukhFFmVFRlRVZmV+f+tWCxRmVFDxpART0Vm/a8PAAAAAAAAACTqf5kPAAAAAAAAAKgvgnQAAAAAAABAwgjSAQAAAAAAAAkjSAcAAAAAAAAkjCAdAAAAAAAAkDCCdAAAAAAAAEDCCNIBAAAAAAAACSNIBwAAAAAAACSMIB0AAAAAAACQMIJ0AAAAAAAAQMII0gEAAAAAAAAJI0gHAAAAAAAAJIwgHQAAAAAAAJAwgnQAAAAAAABAwgjSAQAAAAAAAAkjSAcAAAAAAAAkjCAdAAAAAAAAkDCCdAAAAAAAAEDCCNIBAAAAAAAACSNIBwAAAAAAACSMIB0AAAAAAACQMIJ0AAAAAAAAQMII0gEAAAAAAAAJI0gHAAAAAAAAJIwgHQAAAAAAAJAwgnQAAAAAAABAwgjSAQAAAAAAAAkjSAcAAAAAAAAkjCAdAAAAAAAAkDCCdAAAAAAAAEDCCNIBAAAAAAAACSNIBwAAAAAAACSMIB0AAAAAAACQMIJ0AAAAAAAAQMII0gEAAAAAAAAJI0gHAAAAAAAAJIwgHQAAAAAAAJAwgnQAAAAAAABAwgjSAQAAAAAAAAkjSAcAAOpn2bJlBwEAiKO1tdU8nQBAFhGkAwAA9UOQDgAQF0E6ADlBkA4AANRPEKRrbm4uAABQSXDWIEgHICcI0gEAgPohSAcAsEeQDkCuEKQDAAD1Q5AOAGCPIB2AXCFIBwAA6ocgHQDAHkE6ALlCkA4AANQPQToAgD2CdAByhSAdAACoH4J0AAB7BOkA5ApBOgAAUD8E6QAA9gjSAcgVgnQAAKB+CNIBAOwRpAOQKwTpAABA/RCkAwDYI0gHIFcI0gEAgPohSAcAsEeQDkCuEKQDAAD1Q5AOAGCPIB2AXCFIBwAA6ocgHQDAHkE6ALlCkA4AANQPQToAgD2CdAByhSAdAACoH4J0gIP+oXvXRp+pdPD4OXNbKacGhq/cfqzS/p7T5jakA2VkiSAdgFwhSAcAAOrHIUg369Om+e0zFu2Z0dr9yWcnZqqk/lD/VQ+qTebeKbZ89drrD55ff/Ctkb4afXrh+v3j/YM7u3rMPGgc5cq3VHqudjbzR7r1+PX43/+vSmeu3DK3lXJrbHL/s4N3zG0NbnBkInQ8v1UP9g+N9Jy5vGVnp5khrTJcRtVFkA5ArhCkAwAA9RMrSDenran10CfLTs2MSGoHtZuZM5U2fLktmJNHpOGx7zo6D5s54erYuav3Jt6oNHj3ibmt2mzKV5La2cwfqQ5BunoeKx+PXv0aPp6Sxl7/PjQ6sXnHXjNb+jiUkY9GKd8wgnQAcoUgHQAAqB/LIN0nzYWWrgrhOT2pnT+p8JTJswzijL3+/cCxs2ZmODlz5VZwVG89fm1uqzbL8g1SCoN09TxWPqKDdEEae/3b1t0HzJwp41BGPhqlfMMI0gHIFYJ0AACgfmyCdLNbmpYeM8NwFZPKojKaz5UmehDn8vBY55E+lbp6Th0/N3jxxoNH3/0iWx+8+Hn1uo1mfsRXz8CEXr6Dd590nzgfkRYsajHzR4obpNvfc/p4/6BKW3ftN7eVUc9j5UOCdDe/fhE0ouDDDgw/GtPidyMTb1qXLjczp4lDGflolPINI0gHIFcI0gEAgPqpGKSb3dK0rM8MwNmmvlTH6fQgTt/F68bWdRu33P3mB9nh/LVRYwc4qGdgIrp8PcUN0jmo57HyIUG6y8Njxqb1m7aNPvtJSqG3f8jYIc8apXzDCNIByBWCdAAAoH6ig3SfNBcc1tDpSWVP7XWvFYM4W3cfGHv9e7DDza9fmJvLW71u486unv09p//W0bm4dZm5OaR9847OI31bdnbNX7jI3GZhTfuXXT2nvtjSYW6opGVJW0fnEfXSq9d9YW6Lw/7z1jMwUbF87a1as2Hf4T79xmoNEaTzrFciunwjgnRKZ89JKYXLt0rsYHCuk59v2KRea9PWXeaGGlu4eMmmbbvVG1Y1ZMvOzhWfrzf3KMO/fHXRZVRdBOkA5ApBOgAAUD/RQbpY96Erl9STmM8bMvfzGZ8dn7liYNbKy7M+OzFzfvsMc48asAni3Jt4E+ww+vyf5raiUwM3R5/9pFJw9/dd+3tufP1CnlalR9/9cuH6/ZI/Hrp976HhRy8fvnwrO4+9/u3Ok7/3nLpk7jpl2+4DwcuNPvuxZUnb6cvD8g7Hi5flqrexbMVqM9t0rUuXq7c0MvFGQpAq3f/254HhR0vbVpp7Txf3867ftHXqDb9LchGxemn98SDtO3xCf63e80PB4/eevlm6fJW+SXf45AV5hrXtm+Vxm/Kt6MyVW6NPf5QDFRxh9WYqBum27zl495sfwuno2avmrlN8jpXOoV6JuOVbqBSkm79wkXr1YIdbY2WjUT518uzV26o5SK6gjNQTXr3zODjmPacvm3mKHMpIpw7Oza9f6G84SOpTnL82Gr7LYbXKN24ZebajMIJ0AHKFIB0AAKifiCDdnLamcMTNLUX/3uvcNTNWXpllpPlf1DxOZxPEuanNfpvnzjM3FwpqNh5sVXt29/ZLPMJIuw8eMzKqmXO5nceLa45alrQZWQrFCbnso+bh4Ywq3f3mh/WbzACB2L7noB7XM9LIxJstO7vMPJq4n3fTtt3hreXSod5+/bW27tovm46dKxs3kTJSH1x/3KZ8I6jjPzgyEX6TKg0/enl36lLockG6fd0nwhnHI3+UwOdYCbd6JeKWb6FSkE55+OJfwQ6qdpnbipzr5MLFSwZHvglnUen6g+d3nnwf/F3FMhKnBobDGfV0vH/QyFKV8i3ELyPPdhRGkA5ArhCkAwAA9RMRpGs9FLWM7s9N/9tI4X0kqacyn12z9NjMd1G59hlNReoP9d9lp2ea+1WbTRBHVug8evWrua1IJswjE28kWhEsjbn3blnQ5PzZCNIdOXlRXlrtrGbFgyPfDI99p99ov+S1gXqQLkgPX769/uDbodGJ+9/+LA+qNzNr9hwzc6GwY2+3PqUfffrj4MjE4N0nEnIaLy5EiliLF/fzrmn/Uk3+JY0+n7xDmfqk+uNB2tnVM/3V3l9VOjz2ytgUaN+8XZYynZxeiDblG+HKrTHJ/ui7X248fDF0b0Lev6RyAaBtuw/cefK9JDkyEQEgz2NV8KhXIm75FioF6Vau2SAvff3Bc3OzX528rJdR8SipjOoZ5MEgVbGMAh1dR6TWqT/U6166+VAl9QFHp+7BFw7S+ZdvwKGMfNpRGEE6ALlCkA4AANRPuSDdrE8rLKOb/cVfPlrwb0F4Tv2h/hveR0/qCY2XEMvPv1s61zRr8r9NnzSp/664nHyQbveBozJxHX700txcJBPmqanyb6cGhttWrgm2zp23oOf0gJqN79EmzM1z541MrRtS++tLZjbv2CuTfLUpfJs5I0h358nf5dZd8xcuGhp9v/Kru9RKnFtjk3P1sVe/qqm4Hsg73j8o0/uIX8lw+Ly6uPfhOn5uUF5r07bd5mbtCdU7Wblmg75JL1/1ltRnL5fCQRyVV47GvYk36zZuCR5XZXf1zmP9CITzliRHvmIASMQ9Vj71SjiUb3SQTn/C/qERc7NHnVy/aatsVZ9Ovxudsci06mV08caDYM+HL99u3X3A2Np5pO/6g+fdJ84bjxvilq9wKCOfdhRGkA5ArhCkAwAA9VMuSDe/fUY40BZOFdfQSYq4zdzKy++CdNMeKV7xqj9SC9FBundxDW1JTsn4QmH6hFnNbzu6jph7FAoLFrXo/9WXO/WeN3/vUr2uRAbDi570IN3Yq19XTZ9Oq/m5XDYYnvnrr1vyqjd9or72i9I3pXL4vLq4gYmly1fJrbv6h+6ZmwuFe08nP+/gyISxSS/f6BTc20snURhVFkZIa9bsObIuabwGASAR91j51CvhUL7lgnSfb9h08cZ9iaM9fPGv8I8q+NRJvYz03/QI3NQuVK96GcmeV++Mm9usxS1f4VBGPu0ojCAdgFwhSAcAAOqnXJBu8d6oa10l2Qfp1BMaLyFWXH53uav+SP2DdIN3n/ScuhSkM1eG1X8luDBevNqu3J3U9QlzROxDJ3fRUtPmkvdxl/iCel1jkx6kC4eWCtrMXyUjqDE89l3w+K0y9+9XE3u5fVi5W2I5fF6dQ2BCLmkcff5P47aA+tHYd7hP31TwC9LJurObpX7V99i5q5K36gEgEfdY+dQr4VC+EqRTr3t34h8qjUy80X+2Yry4knFfd4lfQvCpk1JGN0qV0eGTF+TVq15GsmfF27dFiFu+wqGMCh7tKIwgHYBcIUgHAADqp1yQLvqGdJLsg3QRt6Vboa2kM34+omSantudZRBn7PVv+3tOm5mn6BPmjdoFdxEkMDF0r/SileP9k9emjb3+feHiJfomfTpd8nq6zTv2yg7Gba0evJi8ad2dJ9+rlwin3v4hWTxos3LQ8vPqHAITHZ1H5BW7ek7pm97HHZ79FL4Hn16+l4fHOo/0lUvGOqzmufMkRBtekqa0rVwjz1z1AJCIe6x86pVwKF8J0pVLl24+lIsxDc51smIZtSxpkzdQ9TK6cvv9Jc9nr94ueb+8iuKWr3Aoo4JHOwojSAcgVwjSAQCA+ikXpPus14yylUz2QTr1hMZLCD30Fg7JhdP03O4qBunGXv8+NDoRvpJOJxPmsTK/LBEmN4y/eOO+ua1of89peQ/GDaT0IF3Jy9yWrVgtO+hRvOWr1srjNqncVW8On1fnFpiQ3xDQ31XLkjZZrlUyqhJ9OXOE9Zu2SsaDx8+Zm4vk4sGqB4BE3GPlU6+EQ/lGB+nGXv92afjrkmEsnzq5ftP7wj1w7Kz2rO/JEryql9G+w336G1OfcXjsVf/Qve7e/oo3dBNxy1c4lFHArR2FEaQDkCsE6QAAQP2kIUinC4fkwsnM40oP4tx58vfBu0+CdGn461MDN9V8+8sygQydTJhHJt6Y20qZO2+BrAA6NTBsbi7atvuAvLHOI9OuPtODdO2bt+ubhPyUp/oU8mBH52HJaJOujT7TnvK9uJ/X4BaYOHHhWpBLHTq5r1nPqUtTD/6uinJ6jnecg3T6QS73I5uyvKvqASAR61h51ivhUL4SpPtq9KlqMirtPnC0f/Cu/vOsQ6MlYr4+dXLPwWPyeEfnkfdPqpHrYWtRRv1fjco9/vSkSuHm1y/+1tFpZgiJVb46hzIKuLWjMIJ0AHKFIB0AAKifckG6el7uqguH5MLJzOPKOYijkwlzuZ9/NSxY1CJz+5MXb5ibi7bu2i9vzLjSVo8frd+0Vd8kJFijxyZ2HzgqGdXj6nmiU7nL6OJ+XoNbYGLF5+sl8ijXNt54OHmHNfXH9N0nOZevfqzU3+bmIvmBjloEgAKxjpVnvRIO5VvuhyOa5867/uC5vGL46myfOrmzyyKQ+qy2gdR93SeGRiekZupJHZNyP3AsYpWvzqGMAm7tKIwgHYBcIUgHAADqp1yQrp4/HKELh+TCyczjyjmIo5MJc8lfGChJ7sOl8prbijqPvL+YbsvOaUtydmlBuh17u/VNAf1WXD2nB+Tx1es2yuNHz5b4GU1LDp9X5xyYkF9FuD3+faF4RarEpA73mdGfgHP5TruU8ugZc3NR7S6lFHGPlU+9Eg7lWy5Ipyxfvfbhi8lLKUef/jh/4SJ9q0+dXNu+WfKW+5GTOlySXCiGRzs6j5y8eOPGwxf62rq73/wQfX+3uOUrHMpIOLSjMIJ0AHKFIB0AAKifckG6+e0zwoG2cLIP0qknNF6ipHBILpzMPK6cgzg6hwmzmpMHWdSE2dxW1HPmsryxpW0r9U16kK5k/Gjjlp2yw55Dx/VNceNKJTl8Xp1zYEJ9FvlcW3Z2nbkyHPytPtSCRS3m3kXO5atfOnr83KC5uVBY3LpMntnyYDoEgOIeK596JRzKNyJIp6gjLy/a22/+woNznZw1e44sCiu5cnD56vc3vLN8cocyMmzesVe/yLfcBemBuOUrHMpIOLSjMIJ0AHKFIB0AAKifckG6WZ82hQNtepqz8S8ff/qHIEin/lD/De+jJ/WExkuUFA7JhZOZx5VzEEfnMGEeHJkIsjx48XPJifHQ6OQOD1+8NTbpQbqB4UfGVqX3/JDs0L55h75JgjhxgwI6h8+rk5DN6NMfzW2VyBWmF67fH9H+Nveb4lO+8iMMJW+m1n3ivDxz7QJAcY+VT70SDuUbHaRT72T0+T8nP8jzn4w35lMnpT4Ei8IM8lO247UsozCbG/8F4pavcCgjXdx2FEaQDkCuEKQDAAD1Uy5IV6h0W7ogPKen8D6SLG9IV8hHkE5u3z5e6kZda9q/lGVc4V9v0IN0D1++bVnSZuwgUY/RZz82z52nbzo1MLlqZrz8D2IGwk8rHD6v7lBvf5Bdfcaly1eZmyOdvvz+/UuKuEO/T/leuTUm7zP8e51yG6/xWgaA4h4rn3olHMo3OkinnLx4Q97Y8f5pKxN96qSsRBsP3Tpw/sJFd558L1trV0ZhW3Z2yusaS1kNcctXOJSRLm47CiNIByBXCNIBAID6iQjSzWmrsJjOPqmnMp+9jHBILpzMPK58gjjCYcK8uHXZ/W8nbx/28MXbjs7DsmnVmg0SZRsvddc5PUin0rX7zxYuXiJb+4fuyabwpYULFrXIIpqHL/51uO+CscOs2XMOHD1z/cG3o89+MjYJh8+r2773kLzDgeFHJRd8lfP5hk0SZgpS9PIrvXxPXrqhDntEMm4ftnnHXrlX1/Cjl/rFoXpsaLyWAaC4x8qnXgmH8q0YpFNH7/2d6Z5NW0znUyeXr1r79ctfJvO+fCs/1KCeU9YMBqnqZaT2vHxrbNvuA8bj8xcukt/KGHv167IVq40ddHHLVziUkS5uOwojSAcgVwjSAQCA+okI0iktXVGL6SyTehLzecsLh+TCyczjKqkgXeHd2qL3N+p69OrXwZGJ/qGRy8NjcpXleDEAZ2YLBelUujvxjwvX76u3MTz2nTz44MXPi1uXmZkLhc6ek3peNTm/NPz1mSu3+ofufTX6VF79/rc/mzmnuH1e0Tx3nn7TLvU+hx+9VC8dpO17D5kZplP76O/fWJZl0Mu3Ygo/lf5a9ybeXLzxQH129amNjCUDQOo4X7n9WE9y8zX18Y1Na7/YbOYvcjhWzvVKOJRvxSCdcm7wjrwB41D71Mmz2tOOF1eP3nnyvbwfSVUvI/ndWPVyV26Nnb48rD6UOtSjz94f53J3BhQO5RtwKCNDrHYURpAOQK4QpAMAAPUTHaT7pLmw9JgZdIuVVPZPSj938hIM0i1Y1HJp+Gt9nmyk4bHv1m3cYmabHqSTNTtGUrN9tZuZc8rhvvMSjCiXSgZEAm6fV7e3u9dYyCOp3M90iv09p2XnsVe/Ll+11txDEytI13veXHi4et1GffWZnkYm3kiYpmQAyFhtF5227zlo5p8S91g51yvhUL42QbqVazbIbqPPfjJ+5tWnTp69elv/TVVJ5wbvSvFVvYyk9Mulu9/80LZyjZ6lpLjlG3AoI0OsdhRGkA5ArhCkAwAA9RMdpFNmtzQt6zNDb7apb6bKbj5jaqxt3ywz1XCMxpJcYeowYT7cd/7Bi8nrEyU9evWres658xaYexfpQbrlq9cO3n1iTPJvj39v/F5E2Op1GwdHJsILjsaLAZSLNx4Yd/jS+XxesXnH3oHhRyMTbx6+fKtHWKLvSlaY/rur6iOYm6fTy7diKrmYaHHrMuMIq3d76/HrtV9slksjTw0Mm9mm32qtYtq6a7+ZX+NwrBzqlXAoX/XGgiwlf8lEXLh+X95M+JZ5PnWyu7f/2v1nQZjv0Xe/3Hj44mQx5n7v6eSFtCV/otenjFR3oY6P/LysntTbOHNl2P4ecw7l61BGhljtKIwgHYBcIUgHAADqp2KQrlCM0zmsp1NZ0hyhS491G7fs7zl9vH+w+8R5NWM3fu3BoAfpgkBAy5K2fd0nVPYDR8+sCv3EQYRZs+ds3Lrr4PFzvf1DR89e6TzSt2nrLnOnlFFvUj5+9E9nVpE6wrsPHD1+bvBQb3+sI5ysWPUqJTzr5Mo1G/QopIT8VAPR9qqaxa3LOjoPq1rRe35IHWf1trfuPhD+gYsU8mxHBOkA5ApBOgAAUD82QbpC8brXWPenUzun9irXhhYO0uWK3Etr9NlPxk89ALq/dbz/ldX2zdvNzfnm2Y4I0gHIFYJ0AACgfiyDdIE5bU2thyqE6tQO9r/lirjyHKTbc/CYXA9Y8i5jyJvFrctWfL7efLRocOSbyTjU858aYhVh3fi3I4J0AHKFIB0AAKifWEG6wKxPm+a3z1i0Z0Zr9yefnZipkvpD/Vc9qDaZe6Oq8hakW7Co5YstHdv3Hjp/bVR+W2Ds1a+r131h7or8OdTbP/b6t8GRia6eU0vbVgYPrl638crtx9JMek4PTM+UR9VtRwTpAOQKQToAAFA/DkE6JChvQbpDvf3yeSX19jv+ygcyRq8eY69/v//tz8YvZtx6/Nrhcs7sqW47IkgHIFcI0gEAgPohSNdYCNL1FX+4EyiUqh6Sxl7/PjD8KA9txEb4QPm0I4J0AHKFIB0AAKgfgnSNZeOWnUP3JlQaHJlYsKjF3Jw52/ccDD7vlduPj58b3LRtt7kHcmz+wkW79vecuXLrq9Gnt8Zejz798e43PwyNTvQPjew+cNTcO8eq244I0gHIFYJ0AACgfgjSAQDsEaQDkCsE6QAAQP0QpAMA2CNIByBXCNIBAID6IUgHALBHkA5ArhCkAwAA9UOQDgBgjyAdgFwhSAcAAOqHIB0AwB5BOgC5QpAOAADUD0E6AIA9gnQAcoUgHQAAqB+CdAAAewTpAOQKQToAAFA/BOkAAPYI0gHIFYJ0AACgfgjSAQDsEaQDkCsE6QAAQP0E0y0AAOwRpAOQEwTpAABA/RCkAwDERZAOQE4QpAMAAMipWcv/03wIQBGtAwBQfwTpAAAA8uijOR/+99XWD5v+ZG4Aco/WAQBIBEE6AACAPPrswNwNg0ta9vyXuQHIPVoHACARBOkAAABy56M5H24YXKISy4UAA60DAJAUgnQAAAC5EywUChLLhQAdrQMAkBSCdAAAAPkiC4VYLgQYaB0AgAQRpAMAAMgXfaEQy4UAHa0DAJAggnQAAAA5YiwUYrkQIGgdAIBkEaQDAADIkfBCoSCxXAigdQAAkkWQDgAAIC9KLhQKEsuFkHO0DgBA4gjSAQAA5EW5hUJBYrkQ8ozWAQBIHEE6AACAXIhYKBQklgsht2gdAIA0IEgHAACQC9ELhYLEciHkE60DAJAGBOkAAACyr+JCoSCxXAg5ROsAAKQEQToAAIDss1koFCSWCyFvaB0AgJQgSAcAAJBxlguFgsRyIeQKrQMAkB4E6QAAADLOfqFQkFguhPygdQAA0oMgHQAAQJbFWigUJJYLISdoHQCAVCFIBwAAkGVxFwoFieVCyANaBwAgVQjSAQAAZJbDQqEgsVwImUfrAACkDUE6AACAzHJbKBQklgsh22gdAIC0IUgHAACQTc4LhYLEciFkGK0DAJBCBOkAAACyyWehUJBYLoSsonUAAFKIIB0AAEAGeS4UChLLhZBJtA4AQDoRpAMAAMigf//TH/788R8j0oIvZ24YXKL+DW/Sk3oe86mBBkfrAACkE0E6AACAPJr73zM2DC5R/5obgNyjdQAAEkGQDgAAII8IQwDl0DoAAIkgSAcAAJBHhCGAcmgdAIBEEKQDAADII8IQQDm0DgBAIgjSAQAA5BFhCKAcWgcAIBEE6QAAAPKIMARQDq0DAJAIgnQAAAB5RBgCKIfWAQBIBEE6AACAPCIMAZRD6wAAJIIgHQAAQB4RhgDKoXUAABJBkA4AACCPCEMA5dA6AACJIEgHAACQRx83fzj3v2eof80NQO4RpAMAJIIgHQAAAAC8R5AOAJAIgnQAAAAA8B5BOgBAIgjSAQAAAMB7BOkAAIkgSAcAAJBH3JMOKIcgHQAgEQTpAAAA8ogwBFAOrQMAkAiCdAAAAHlEGAIoh9YBAEgEQToAAIA8IgwBlEPrAAAkgiAdAABAHhGGAMqhdQAAEkGQDgAAII8IQwDl0DoAAIkgSAcAAJBHhCGAcmgdAIBEEKQDAADII8IQQDm0DgBAIgjSAQAA5BFhCKAcWgcAIBEE6QAAAPKIMARQDq0DAJAIgnQAauvj5g/VGDc6qX3YPyKxf3Ri/+jE/tEpz/vPJQwBlBG0jmWH5oUbEYlEIpHckj4IQTkE6QDU1tziMDc6zdWmiOwfTuwfndg/OrF/dGJ//REAAZvWRCKRSKRYiSGHDYJ0AGor7soO9g8n9o9O7B+d2D86sb/+CICATWsikUgkkmVadmgeQTpLBOkAAAAAAABQE3NZvG+NIB0AAAAAAABqgiCdPYJ0AAAAAAAAqAmCdPYI0gGoLe55BAAAAAC5RZDOHkE6ALVFjwwAAAAAucWU0B5BOgC1RY8MAAAAALnFlNAeQToAtUWPDAAAAAC5xZTQHkE6ALVFjwwAAAAAucWU0B5BOgC1RY8MAAAAALnFlNAeQToAtUWPDAAAAAC5xZTQHkE6ALVFjwwAAAAAucWU0B5BOgC1RY8MAAAAALnFlNAeQToAtUWPDAAAAAC5xZTQHkE6ALVFjwwAAAAAucWU0B5BOgC1RY8MAAAAALnFlNAeQToAtfVx84eqO1b/mhsAAAAAAFlHkM4eQToAAAAAAADUBEE6ewTpAAAAAAAAUBME6ewRpAMAAAAAAEBNEKSzR5AOQG1xTzoAAAAAyC2CdPYI0gGoLXpkAAAAAMgtpoT2CNIBqC16ZAAAAADILaaE9gjSAagtemQAAAAAyC2mhPYI0gGoLXpkAAAAAMgtpoT2CNIBqC16ZAAAAADILaaE9gjSAagtemQAAAAAyC2mhPYI0gGoLXpkAAAAAMgtpoT2CNIBqC16ZAAAAADILaaE9gjSAagtemQAAAAAyC2mhPYI0gGoLXpkAAAAAMgtpoT2CNIBqC16ZAAAAADILaaE9gjSAaitj5s/VN2x+tfcAAAAAADIOoJ09gjSAQAAAAAAoCYI0tkjSAcAAAAAAICaIEhnjyAdAAAAAAAAaoIgnT2CdABqi3vSAQAAAEBuEaSzR5AOQG3RIwMAAABAbjEltEeQDkBt0SMDAAAAQG4xJbRHkA5AbdEjAwAAAEBuMSW0R5AOQG3RIwMAAABAbjEltEeQDkBt0SMDAAAAQG4xJbRHkA5AbdEjAwAAAEBuMSW0R5AOQG3RIwMAAABAbjEltEeQDkBt0SMDAAAAQG4xJbRHkA5AbdEjAwAAAEBuMSW0R5AOQG3RIwMAAABAbjEltEeQDkBt0SMDAAAAQG4xJbRHkA5AbX3c/KHqjtW/5gYAAAAAQNYRpLOXWJDuIAAAyBzzfF8v5vsAgClmf1Ev5vsAgEZm9nFxEKSzR5AOAABUjXm+rxfzfQDAFLO/qBfzfQBAIzP7uDgI0tlLOEhXAAAAmeA/gPPBuAJAGP0SAPjz70sJ0tkjSAcAAKrAfwDng3EFgDD6JQDw59+XEqSzR5AOAABUgf8AzgfjCgBh9EsA4M+/LyVIZ48gHQAAqAL/AZwPxhUAwuiXAMCff19KkM4eQToAAFAF/gM4H4wrAITRLwGAP/++lCCdPYJ0AACgCvwHcD4YVwAIo18CAH/+fSlBOnsE6QAAQBX4D+B8MK4AEEa/BAD+/PtSgnT2CNIBAIAq8B/A+WBcASCMfgkA/Pn3pQTp7BGkAwAAVeA/gPPBuAJAGP0SAPjz70sJ0tkjSAcAAKrAfwDng3EFgDD6JQDw59+XEqSzR5AOAABUgf8AzgfjCgBh9EsA4M+/LyVIZ48gHQAAqAL/AZwPxhUAwuiXAMCff19KkM4eQToAAFAF/gM4H4wrAITRLwGAP/++lCCdPYJ0QCPpH7p3bfSZSgePnzO3lXJqYPjK7ccq7e85bW5DOlBG9ta0f7lqzQbzUaSG/wDOB+MKKOs2blnattJ8FDlGvwQA/vz7UoJ09hoqSPdpa1N7R9Oek03dl2ecGFZJ/fHuv+0dapO5c4otX732+oPn1x98a6SvRp9euH7/eP/gzq4eMw8aR7nyLZWeq53N/JFuPX49/vf/q9KZK7fMbaXcGpvc/+zgHXNbgxscmQgdz2/Vg/1DIz1nLm/Z2WlmSKsMl1FVqCn35Vtjd558/+i7X4IDNfbq19GnPw7efdJz6tKKz9ebGZAc/wGcD4dxxaxPm+a3z1i0Z0Zr9yefnZipkvpD/Vc9qDaZe6fSwePnwj1hxZSx3qaz5+T5a6M3v37x8OXboJd4+OKt6lp7zw8tX7XW3Bs5Q7+UlHLjYeY7maT6WyliNWwzN6Px+felBOnsNUaQrqltbdOhgRmn7kYktYPazcyZShu+3BYMIiPS8Nh3HZ2HzZxwdezc1XsTb1RSE3tzW7XZlK8ktbOZP1IdgnT1PFY+Hr36NXw8JY29/n1odGLzjr1mtvRxKCMfjVK+yqzZc1Q9r1TQv5nZ4Mq/bvgP4HzEGlfMaWtqPfTJslMzI5LaQe1m5kyZUwPD4XZRMd38+oX5RI1p7rwFarYf/oCSHr54a+aBE//+ISn0S0mxGQ8z36muBNupelEpVjUIjzvBQfr596UE6eylPkjXPH9G17lwSK5s6jqnsphPkjI2J62ggztw7KyZGU7UVD84qrcevza3VZtl+QYp7jmsDkG6eh4rH9GxmyCNvf5t6+4DZs6UcSgjH41SvgXtrUp68OLnhy/+ZTxoZoMr/7rhP4DzYTmu+KS50NJVYRqsJ7WzypJaeQ7SrV73hfogxkdTXYTq+eW/6kxhZoMT//4hKfRLSbEcDzPfqaKk2umX23Ybxdp7fsjcCQ3Ovy8lSGcv3UG6lrYZx66ZYbiK6dg1ldF8qjTRT1qXh8c6j/Sp1NVz6vi5wYs3HsglXePFGenqdRvN/IivnictvXwH7z7pPnE+Ii1Y1GLmjxQ3SLe/5/Tx/kGVtu7ab24ro57HyocE6dQkLWhEwYcdGH40psXvRibetC5dbmZOE4cy8tEo5btrf48auAdv9eGLt30Xry9dvirYpHrFfYdPDI5MBDtMzwd3/nXDfwDnw2ZcMbulaekxc7pbMaksKqP5XOmwceuu8JlFtRfpA0uehlT7Mp+oAekRutFnPx3uO79u4xb1+OLWZR2dRy5cvz/2+jeCdNXi3z8khX4pKcx36i+pdhr+uujGwyx8FQSdf19KkM5eioN0LW0z+m6bATjL1Hc7zXE6/aSlRtLGVjXEvPvND7LD+Wujxg5wUM+TVnT5eoobpHNQz2PlQ4J0auRnbFq/aZuasEkp9Pbzbd57jVK+A8OPgvc59urX7XsPmZuLvty2++KN++ajcOVfN/wHcD4qjivUhHZZnznRtU19aZ8P677Y0iEdYNVPQymxa3+PfMa7E/8IwnOGzTv2cmukavHvH5JCv5SU6PEw851aSKqdDo99F7zu7fHvgz/GXv+2bMVqcz80Mv++lCCdvbQG6Zrnu6yh09Oxa6m97jX6pKVs3X1AlpDEuiZl9bqNO7t69vec/ltH5+LWZebmkPbNOzqP9G3Z2TV/4SJzm4U17V929ZxSkwFzQyUtS9o6Oo+ol1697gtzWxz2n7eeJ62K5Wtv1ZoN+w736TdWa4ggnWe9EtHlGxGkKxTvIy6lYDNJc66Tn2/YpF5r09Zd5oYaW7h4yaZtu9UbVjVky85O+99P8C9fXXQZ+RiZurnJ1TuPzW1159zXFTzy1qcd6fzrhv8Azkf0uOKT5oLDWhU9qezpv74skGyQzrnOx+qHbzycXEanpoIlI3T2PNta89x52/cc3Nd9YmUdf3s61rGKUM/+of7vOUC/lJSK42HmO5bsP69/O3WgPp2UoxoSy+Us3SfOm7tGmjV7jjrI6lB3dB2Je8Sc8zqXkfM4vOCXt+Bdn4V9vQr496UE6eylNEgX7z505VLXOfN5Q+Z+PuOz4zNXDMxaeXnWZydmzm+fYe5RAxVPWgXt7pujz/9pbis6NXBz9NlPKgV3Bt21v+fG9DuzPPrulwvX75f88dDtew8NP3opP4I2Xhzj3nny955Tl8xdp2zbfSB4udFnP6ru7PTlYf3+oA9e/KzeRsUvTFqXLldvSc29pStX6f63Pw8MP1rattLce7q4n3f9pq1Tb/hdev+7kK9/1x8P0r7DJ/TX6j0/FDx+7+kbucIu7PDJC/IMa9s3y+M25VuROsuOPv1RDlRwhNWbqRikU1OFu9/8EE5Hz141d53ic6x0DvVKxC3fQqUgnTpvyW2Jbo2VHan41MmzV2+r5iC5gjJST3j1zuPgmPecvmzmKXIoI506OGosq7/hIKlPcf7aaPguh9Uq37hl5NOO1GBLPuCZK8PTc1SmZuzBjZNVKjnqUgcq2Hpu8K6xyaev88kr6tmOqlU3hP8Azkf0uCLW/Z7KJfUk5vOGJDKuMNgH6XzaaaFKdd6hH+7oPCx7Xht9Zm6249DW9Cajpje7Dxy9dv+Z/gzq45e8C/67c3oxV/TM+eKN+8Fu1x88N7cVORwrkVT/UM/3XBL9UiGhfslmPMx8xxD38/q0U8/+X/ScuSzvTQ2/5RuUwZFvzF1LUUO+kxev3x7/3rjZ9Ojzn9RIe037l2YGjXNenzKKOw7X+eR1qM8ibr0qyb8vJUhnL41Buqa2tWa4zTVF/97r3DUzVl6ZZaT5X9T8vGVz0tLvtNI8d565uTjJDLaqPbt7+/XbJOtp98FjRkbVI5fbeby45kidk4wshenXlVwo80tqd7/5Yf2msp3L9j0H9fOckVTftGVnl5lHE/fzbgrdwTQiHert119r6679sunYubJxEykj9cH1x23KN4I6/oMjE+E3qZLqmu9OXRpQLki3r/tEOON45I8S+Bwr4VavRNzyLVQK0inyCwOqdpnbipzr5MLFS9TII5xFJTWzuvNkcql/FctIhO/6YaTj/YNGlqqUbyF+GXm2o4rlG0H/yCVHPEP3JpvYldvmMj2fvs4nb6DO7ahadUP4D+B8RIwr5rQ1hWe2bin6dxWTGlcY7IN0nu3Uv8679cOyWkQlt1vOu7U1vcmo19UnS5LU04YjVvri7pJRPGXBohY5bZW89M/tWIlE+oc6v+eS6JeS6pdsxsPMdwxxP69PO/Xs/8VXo0+DHYKvTPqmboqqOrS58xaYe0+3aesuuVS2ZIr4ot05r08ZOYzDhU9et/os4tarkvz7UoJ09lIZpDs0EA63TaaTtz/aeviPrWv+bfbCD5qa/zC39U/L/vujHcdmnLpj7hkE6Q4NmM+uWXps5ruzVPuMpiL1h/rvstMzzf2qzeakJSt0yt3zWBqb6kpkNht8bXLv3dcCk23PaGxHTl6Ul1Y7q952cOQb1cHpN9oveW2gftIKkhqbXn/w7dDoxP1vf5YH1ZuZNXuOmblQ2LG3W+8ORp/+ODgyMXj3iYScxotfT0V8NxX3865p/1J1Q5JGn0/eoUx9Uv3xIO3sMm+hLQvWhsdeGZsC7Zu3y9cgJ6cXok35Rrhya0yyP/rulxsPXwzdm5D3L6lcAGjb7gN3nnwvSY5MRADI81gVPOqViFu+hUpBnJVrNshLl1yS4FMnL+tlVDxKKqN6BnkwSFUso0BH1xGpdeoP9bqXbj5USX3A0al78IVP8P7lG3AoI592dGcq1qmeefeBo/qmiqoVpAuSfV/nk7eQRDuqVt0Q/gM4HxHjitZDUctV/tz0v40U3keSeirz2TVJjSsM9kG6gl879azzzv2wdMLqjTlc7+Pc1sLzYXWaHn70UnXC6n3Kg+qpjIxqpio7XLzxwNgaOHD0jDxD+HfJnY+VqH//UP/3XBL9UlL9ks14mPmOIe7n9WynPv1/YHHrMnmfvcVfdN28Y2/wX5X2dveaGTSqhsjSv/FiHVDvRw3Mrt1/pj5v8LrlAm3OeX3KyG0cHvDJ61yfRdx6VZJ/X0qQzl76gnSftoZjbZMRt2PX/7h41QdNzeH05+VfhPcPknpC8yWmLD//7qukplmT/236pEn9d8Xl5E9aakYqzVgN/szNRdLYpprZb6cGhttWrgm2quFgz+kB1VPv0Rpb89x5I1PfG6j99a9TVH8qHYTaFL7tgnHSuvPk73IRmRofq1OXbOou9W2q6iUnn/zVr6qL109sqj+SruF8qa+OAw6fVxf3Hg3Hzw3Ka6lBublZe0L1Tozb0Ojlq96S+uzlUjiIo/LK0VCdptxnR5Xd1TuP9SMQzluSHPmKASAR91j51CvhUL7RQTr9CfuHRszNHnVy/aatslV9Ov1udMaXrlUvIzW1C/ZUQ8bwFK7zSJ8601e8A0jc8hUOZeTTji7eeH8wVX+oxk/7e04vXLxE36ecKgbpYvV1PnmTakc657oh/AdwPsqNK2Z9WmG5yuwv/vLRgn8LpsHqD/Xf8D56Uk9ovsaUpMYVhlhBOp926lPnCx79sFxO9fDFW2NTRT5tzQjSqRGafF7V0ORdqbQt1EVLB66m+iWn96qXC3YouVzF+ViJ+vcPib/nAP1SUv0S85361/m47dSn/w/o3y5s3LIzeFAOshoYT999Gv3KoWujz4xbs+0+eExNhW6VCrQVPPL6lJHPONw5r099Fp71KuDflxKks5e6IF1Te0c40PYuQtd3+4+LVn7Q1Pz/fNr20Y5jhZ4h9eD/6fnq4x3H3j3ScTycZTJje9n6uvLyu5PWtEeKK8D1R2oh+qT1rr1pS3JKxhcK0xubamkdXUfMPYqXTuj/1cPwwXcdOvW6cqYMB+P1k5bq1FZN76ZV25Zlw+Gzgv66JVdT6yeAtV+UuNlBwenz6uKetJYuXyXfz/QP3TM3Fwr3nk5+XnWSMDbp5RudgvsC6KQHV2VhdLXqLCLfd43XIAAk4h4rn3olHMq3XJDu8w2bLt64L2fZhy/+Fb4hq0+d1MtI/02PwE3two2ql5HsefXOuLnNWtzyFQ5l5NOO1NBB/9Z68nVf/To89p36CDIQLKlaQbq4fZ1P3qTakc65bgj/AZyPcuOK+e0zwhPacKq4VkVSxO2ckhpXGGIF6XzaabXqfNx+WGYsJeNZ0Xzamt63PHzx1rh1kdoqeXvOmPck7eg8InnDq0taly6XUgifO3yOlahz/5CG9xygX0qqX2K+Y6hDnY/bTn36/4Csa1Z7hh9URaztO43qBuWThidEgYWLl4TvHlDwyOtZRj7jcOe8PvVZeNargH9fSpDOXvqCdHtPhQNtKv31b4c+aGr+94Urmk4Mm1tPlr7WNUjqCc3XmLLi8rvl3/oj9T9pqZ6l59SlIJ25Mqz+K8GF8eJq25J36CxMb2wRbVInd9FS3XHJ+4NKfEG9rrFJP2mV7A2lU1PJ6NTkfgElv9AoTL8PS7nbmjh8Xl3ck1ZBP8E8/6dxmwz9aOw73KdvKvgF6eT7kJulfuVKnU4kb3gQX5J9AEjEPVY+9Uo4lK8E6dTr3p34h0pq2mbcIWj0+U/7us0zdMGvTkoZ3ShVRodPXpBXr3oZyZ4O81IRt3yFQxkVPNpRoXhdsIyGw0m9f/UMZp6iagXpwi20ENnX+eRNqh3pnOuG8B/A+Sg3rli8N+qaMkn2k2H1hOZrTElqXGGIFaQreLRTnzrv0w9L/1/yXBnNp63pfUt/6GdnFLlgqmT/L9PdcPM83Dd57lDTrfbNO4ytPsdK1Ll/SMN7DtAvJdUvMd8x1KHOx22nBY/+v1BcQCDfp14a/loe7z5xXjJu2dmp5XhP1g6rmhBxj7+SnPN6lpHPONw5r099Fp71KuDflxKks5e+IF2ZG9IFF7p+vPtkeFN0irgt3Qrtm6XgdBWdpud2ZxnEUf3O/p7TZuYpemPbqF1wF0E6JjVBNbcVHe+fXPOsxojGZWV6N11yLa5+AwLjlgdyH5Y7T75XLxFOvf1D8mWazTdplp9X53DS0r/07uqZFup9fz579lP4ohW9fC8Pj3Ue6SuXjHVY6tQoQ5bwVyWF4toieeaSE4Aw+wCQiHusfOqVcChfmaSVS5duPpSF3AbnOlmxjFqWtMkbqHoZXbn9/pLns1dvl7xfRkVxy1c4lFHBox0Flrat7Lt4/e7EP+RJ9KTK4vTlEr/9Wq0gXdy+zidvUu1I51w3hP8Azke5cUX0jZ8k2U+GI27/lNS4whA3SOfcTn3qvHM/POvdrz9P9sM3HsYO0vm0Nb1vOXD0jL4pIJOlkjeeOzd4J9j68MVb41Z6cuf1kneGcj5Wujr3D2l4zwH6paT6JeY79a/zcdtpwaP/L0zPq3eJy1etlV663GD41tTlQZY/AqtzzutZRj7jcOe8PvVZeNargH9fSpDOXuqCdDN6b4YDbSr9YdanHzQ1l1hGVzH13jRfY4p+KgqfosJpem53FU9aqo0NjU6Er6TTSWMbK3On1TC5mejFG6VvEKDOkfIejBsT6CetkktkVV8jO+hnNdVNy+M2qdxqaofPq3M4aRW0r8T1d9WypE2Wa5WMqkQv74+wftNWyXjw+Dlzc1HE5TAl2QeARNxj5VOvhEP5Rgfp1ODg0vDXJU+BPnVy/ab3hVvuJwXlK7iql9G+w336G1OfUU3n+ofudff2l7xRSElxy1c4lFHArR0Ztu7ar1qTegY1udUPgkqdR8xvd6sVpIvV1xX88ibVjnTOdUP4D+B8lBtXfNZrzmZLJvvJsHpC8zWmJDWuMMQN0hVc26lznffphwtae1ETLf1xGz5tTe9bwjcVKkT2LYXp2fWohD6hVVNELcfkVsllk9IwjkrJew7QLyXVLzHfiUg1qvOx2qlw6/+V/sG7k+/29W/G5f8yuC33Tio+eQS3vP5l5DMOd87rU5+FZ70K+PelBOnsNVqQrszWqFQ+SKcLn6LCyczjSj9p3Xny98G7T4J0afjrUwM3VVv9skwD00ljG5l4fwuACHPnLZAh4KmBEmtPCsWLy+SNGfNe/aTVvnm7vkmMTQVN1KeQBzs6D0tGmxT8endY3M9rcDtpnbhwLcilDp3c16zn1KWpB38vOf93DtLpBzn8A0wB+Xqn6gEgEetYedYr4VC+EqT7avSpajIq7T5wVA0X9J9nUoM/M5tfndxz8Jg83tF55P2TauR62FqUUf9Xo3LvCT2pUrj59Yu/dZS+pkAXq3x1DmUUcGtH5agqp2rRnanffh0vdeFAtYJ0sfq6gkfeBNuRzrluCP8BnI9y44p6ToZ14VFEOJl5qsQhSOfWTp3rvE8/XHi3suBV8Pjo83/qj1fk2dZ8+pbA+wUg2pV0R89eCR4cK3Vrds9jJerZP6TkPQfol3ThXiiczDyumO9EpBrV+VjtVLj1/wUtuhe+88DZqYXDKvua9i+NravXbZRD0XPavINnNOe8VSkjn3G4Q17P+iw861XAvy8lSGcvdUG66Mtd/6Oql7vqwqeocDLzuHIO4uiksZX7OSTDgkUt0i+cvHjD3Fy0ddd+eWPGynP9pLV+01Z9k5BORI9N7D5wVDKqx9XzRKdyS3Djfl6D20lLnajkTCzXNsrPt5W7ysa5fPVjpf42NxfJLbpqEQAKxDpWnvVKOJRvuR+OaJ477/qD5/KK4asVfOrkzi6LQOqz2gZS93WfGBqdkJqpJ3VMon+YqRCzfHUOZRRwa0fR1KhF1v+r9PmGTfpWn4n0Lte+ruCRN8F2pHOuG8J/AOej3LiinpeV6cKjiHAy81SJQ5DOrZ0613mffrgw/YZE+uMVebY1n74lcPLi9WCHR9/9srh1WfCgXCR77X6JOaHnsRL17B9S8p4D9Eu6cC8UTmYeV87jYV3cOuDZxncl1KeJuJ/XEKudCrf+Xz/RjBd7Yz3pm46fGzTyrtu4Rbb2nLpkbI3mnLdaZeQzDo+b17M+C896FfDvSwnS2UtfkK7MD0d8tPngu592XbCs6fgNY1PhyGDT8evhLEGK+OEIXfgUFU5mHlfVPWmFv7soR67DV3nNbUWdR94vxDVu87lLO2nt2Nutbwrot+LqOf0+MKp/3XH0bImf0bHk8Hl1bietgna3ztvj766pUSds6SsP95nRn4Bz+U67lLLUzW4KtbyUUsQ9Vj71SjiUb7kgnbJ89Vq5KHL06Y/GrX986uTa9s2SN3xD2UAdLkkuFE/bHZ1H1AlbDZ707+XufvNDyfuGiLjlKxzKSDi0o4r0CweMYU3FibQMPcMTaee+ruCXN6l2pHOuG8J/AOej3Liinjdo14VHEeFk5qkShyBdwamdOtd5n35Y6R+6J9nV/MTcHMmnrVXsWyoG6da0fynT1+A7JHUo5JHDJy+YGbyPlahn/5CS9xygX9KFe6FwMvO4ch4P6xzqgE8bT6pPEw6fVxerneoc+n/5yqFiKvn1gwzjLUfLOre81SqjgPM4vBAzr099Fp71KuDflxKks5e+IF17RzjQ9i6dvPPvC5d/0NT8h+bWj7b1FHqG1CP/p/vyX77c/4c5i/64eFW529WpJzRfo5TwKSqczDyukjppvb/IosxdNnvOXJY3ZtxZQD9plYwfbdyyU3bYc+i4viluXKkkh8+rcz5pqc8in2vLzq4zV4aDv9WHWlDml6qdy1df0hz+0klZ3LpMntnyYDoEgOIeK596JRzKNyJIp/RpQ4fwLX6c6+S7G5ZPvW7Jb7SWr35/wwvLJ3coI8PmHXv1i3zLXaARiFu+wqGMhEM7qkgPQxjrJfXbO5a8fEAOV3gi7dPX+eRNqh3pnOuG8B/A+Sg3rpjfPiM8oQ0n+8mwekLzNUoJjyLCycxTJW5BOod26lPnnfthRU1u5GlL/kRDBJ+25h+kK2hfEgQ3ZOg9PxT899F3v6j5v7l3kc+xEnXuH9LwngP0S7pwLxROZh5XzuNhnUMd8GnjSfVpwuHz6uK2U+HQ/9+cWgKsJi9qt3CSAbP6o3XpciN7xEisIue8VSmjsFjjcEPFvD71WXjWq4B/X0qQzl7qgnSFT1vDgbYgFXqG/n3hig+amsPp/12zdcbJO+Es73J92mq+RCnhU1Q4mXlcJXXSGhyZHDs+ePFzyQ5XjReDHR6+eGts0k9aA8OPjK0FbZQ5/q5/2aFvks4l7glD5/B5dRKyGX36o7mtErnC9ML1+yPa3+Z+U3zKV24OWvJmavovmlueXRwCQHGPlU+9Eg7lGx2kU+9k9Pk/Jz/I85+MN+ZTJ6U+BF82GuQnlsZrWUZhNjekCMQtX+FQRrq47aiifd0n5CNv33tI37Rw8RL5ZnLfYfNoqBGMVJ7w8M6nr/PJm1Q70jnXDeE/gPNRblwx69Om8IRWT3M2/uXjT/8QTIbVH+q/4X30pJ7QfI1SwqOIcDLzVIlbkK4Qv5361Hmffnj+wkVy90/VIko2mXJ82lpVgnQ9pycnVGriumzFarm/nn6XOoPPsRJ17h/S8J4D9Eu6cC8UTmYeVz7jYeFQB3zaeFJ9mnD4vLq47VQXq/9fvvr9z92U+6ZEn7aEfxBPSuHrl7+E78UZzTlvVcqoJPtxeFh0Xp/6LDzrVcC/LyVIZy99Qbryt6V7l07e+WjzwT8uXvWHWQv+beb8P8xb+udVm/+z86y521SyvCFdIR8nLbkt6Hho4Ulh+iUY4Ttl6iethy/fhr/slV5v9NmPzXPn6ZtODUx+GzNe/gcxA+GnFQ6fV3eotz/Irj7j0uWrzM2RTl9+//4llVyeE/Ap3ytTP3Y+Vuru0fL1+3gtA0Bxj5VPvRIO5RsdpCu8W4d/Q97Y8f5pKxN96qR8SzkeunWgmjfe0X7QoHZlFLZlZ6e8rvHVriFu+QqHMtLFbUeq7XT2nDQf1cilGeqDyK2dhFzv3D90z9ikr7IMT6R9+jqfvEm1I51z3RD+AzgfEeOK6Ns/BdNgPYX3kWR546dCfccVBucgXdx26lPnffrhwvSpsppLhy8RKhTXPodv0OPT1qoSpFu2YrUsMFGnCflGoaun7O1ZPI9VoM79Qxrec4B+SRfuhcLJzOPKZzwsHOqATxtPsE8LOHxeXdx2qovV/8vPSoyXvw+a/rvV4S7x8MkL8gzny1zIWSheG2E+5JG3KmVUkv04PCw6r099Fp71KuDflxKks5fKIF3b2nC4zS2ppzKfvYzwKSqczDyukjppqXns/W8nL2tXM9iOzsOyadWaDXLWGS91Fwb9pPWuF7j/bOHiJbJVvztM+NLCBYta5MuZhy/+dbjPvOWKGkYfOHrm+oNvR5/9ZGwSDp9Xt33vIXmHajRf8ouIcj7fsEm6vyBFf/2il+/JSzfUYY9Ixrxi8469Ml4ffvRSX7Ssx4bGaxkAinusfOqVcCjfikE6dfTe35nu2bTFdD51Uo05vn75y2Tel2/lbmjqOeW7rCBVvYzUnpdvjW3bfcB4fP7CRfJbGcHSDGMHXdzyFQ5lpIvbjm4WL6NQ+4SvN1FFcPHG/ejnkaOqylc1K3l8b3evXOwwXmrU6NPX+eRNqh3pnOuG8B/A+YgYV8xpq7BoxT6ppzKfvYzwKCKczDxV4hyki9tOfeq8Tz9cKC6YlSYzXrwOSH/pQvF3fm6Pf6/OFPqDBb+2VpUgXUFbGSHpwYuf585bYO43xfNYBercP6ThPQfol3ThXiiczDyumO8YO9Shzsdtp7pY/b90YipL+FJWIb/xpbq48FcpslXNfS5cv2/cQnpt++avRp+q4Zz+oHDL61lGPuNw57w+9Vl41quAf19KkM5eGoN0yoyuc+GIW+zUZS6sjRA+RYWTmcdVUietwvR7fKqRq+ph+4dGLg+PyVWW42Xu7mmctFS6O/EP1Seqt6H/xqLqgheHlrQonT0n9byqQ7k0/PWZK7fU2U71ofLqqg8yc05x+7yiee48/YJ/9T6HH71ULx0k41q5MLWP/v6NZVkGvXwrpvBT6a+lTiQXbzxQnz0IWOipZABIHWc1MdCTxCPUxzc2rf1is5m/yOFYOdcr4VC+FYN0yrmpH4AfDx1qnzopvysfpNFnP9558m4qqD84XoMykt+NVS935dbY6cvD6kOpQy2XfY2Xv2OFcCjfgEMZGWK1I73OP3z5VhXQ1TuPVXO4NvpMj7Kp0eHW0Iin8O6CsgHZ59F3v6iDqUpW5TUGoFdCE2mfvs4nbyGhdqRzrhvCfwDnI3pc0dIVtWjFMqknMZ+3vPAoIpzMPFXiHKQrxGynnnXepx9WDhw7Kz/UM17sDdQzqHmpaumqVwy+8QoH6Qoeba1aQTr1zuV5glTuejHheawKSfQPib/nAP2SLtwLhZOZxxXznfrXeYd2qrPs/xcsalEDs2CfG5HvU19hoI6tsXXrrv36qOze0zeq51RjbHUQrj94HrxEONAWcM7rU0Y+43CfvM71WXjWq4B/X0qQzl5Kg3SF5vkzjl0zg26x0rFr6knMp02HBE9aqldVPZG8ejipM9C6jVvMbNNPWhLvN5I6E4T7X3G477w+tS6ZSnaIAbfPq9vb3WvMzyWV+5lOsb/ntOw89urX5avWmntoYgXp5JfOxep1G/VvRfQ0MvFGuviSASBjtV102r6nbAOMe6yc65VwKF+bIN3KNRtkN3UWNL5n86mTZ6/e1n+PSdK5wbtSfFUvIyn9ckmNzNpWrtGzlBS3fAMOZWSI1Y7CgelwUp8iYgQ5+rT04VITeBmGhifSPn2dT95CQu3I4FY3hP8Azkf0uOKT5sLSY+bkNlZS2dWTNASfIF2sdupZ5wt+/XCheJVQuZYepJJBOue2Vq0g3bsp7tRC7yDpiyPK8TxWifQPib/nAv1ScpjvlEs1rfMO7VRY9v/7DvfJbqcGhs3NGn1l3/lS16V2HunTo1ThVDLQFnDO61xGPuNwn7zO9Vn416tCNfpSgnT20hqkU1raZvTdNkNvlqnvtspuPmFqrG3fLI0qHKOxJCuuHRqb6pseTP2csyQ1kFXPWe5qC/2ktXz12sG7T4wTwO3x7437p4atXrdxcGQivOBovBhAuXjjgXGHL53P5xWbd+wdGH40MvHm4cu3eoQl+q4Ehem/u6o+grl5Or18K6aSIYbFrcuMI6ze7a3Hr9d+sVku4it5UtRvtVAxbd2138yvcThWDvVKOJSvfIlX8s6+4sL199dFhm/l4FMnu3v7r92fXNX16Ltfbjx8cbI4Br33dHIhfcmf6PUpI9VdqOMjNzPSk3obZ64M299/xKF8HcrIEKsdtW/ersb0athRMhiqHlRtZOPWXWY2jSrc4Ucv9VyqmNTrtixpU3mDR8IRXp++zievqHM7CnOoG8J/AOej4rhidkvTsj5zimub+maq7OYzppU+N447zIjVTqtS53364ULx/uVX7zwOT9VU7VU9QM+pS2aGKQ5tTY9+qnO9ublQiOhbDJenbkE7XlwDYm4uw+dYJdU/JP6e6ZeSwnzHeOnxetV5h3YasOz/+4dG5DmjZxOzZs+RIih38eyyFatVf6gviw6SeieDI990dB0xM2ic87qVkc843CdvwKE+i6rUK/++lCCdvRQH6QrFOJ3Derpj19IcoUuPdRu37O85fbx/sPvEedWbG3c/NegnraATURPdfd0nVPYDR8+sCv3EQQTVX6up9cHj53r7h46evdJ5pG9T5Ew7DdSblI8f/tmdGlFHWJ0hjp8bPNTbH+sIJytWvUoJzzq5cs0G/ewop3zVQLS9qmZx67KOzsOqVqjzvTrO6m1v3X0g7g1uE+HWjlZ8vl593nelM/V5t+0+EL5nR0mqZDdt262qosq4s6un4iCm4NfX+eQ1NGI7KlRjAOfDZlyhJrQO61ZUljTPhKsrVjutYp337IcLxbvzdPacDLKr9xC9rEA0YlvzP1b1l+B7pl/KuVhtPFV9Wv3F6v+rrn3zdnWQ1aFWh2vPoeOxjrZbXrcy8hmH++QNxKrP1eXflxKks5fuIF2heN1rrPvTdZ1L7VWuDS180soVuThu9NlP4fueAuJvHe9/oUmNGMzN+dYQ7cinr/PJmw3+AzgfluOKT5rj3QdK7Zzaq8lqIVY7pc4j/eiXYC/nfVqs/h9549+XEqSzl/ogXVFT29qmQwNmPG56UjvY/5Yr4srzSWvPwWOyVrzkXcaQN4tbl634fL35aNHgyDeT45vnP9Xz2630a5R25NPX+eTNBv8BnI9Y44o5bU2thypMidUO9r+ZmA1x2yl1HulHvwR7ee7T4vb/yBv/vpQgnb3GCNJN+rS1qb2jac/Jpu7LM04Mq6T+ePff9g61ydwZVZW3k9aCRS1fbOnYvvfQ+Wujcm/RsVe/rl73hbkr8udQb3/xbhcTXT2nlratDB5cvW7jlduPpZn0nB6YnimPGrEd+fR1PnmzwX8A58NhXDHr06b57TMW7ZnR2v3JZydmqqT+UP9VD6pN5t4Z5dNOqfNIP/ol2Mtbn+bT/yNv/PtSgnT2GipIh+Tk7aR1qLdfPq+k3n7Hu94iY/TqMfb69/vf/mzcyfXW49dcJlBozHbk09f55M0G/wGcD8YVbnzaKXUe6Ue/BHt569N8+n/kjX9fSpDOHkE6WOGk5fzj8ciecPWQNPb694HhR3loIzbCByr97cinr/PJmw3+AzgfjCvc+LRT6jzSj34J9vLWp/n0/8gb/76UIJ09gnSwsnHLzqF7EyoNjkwsWNRibs6c7XsOBp/3yu3Hx88Nbtq229wDOTZ/4SI1jDtz5dZXo09vjb0effrj3W9+GBqd6B8aKfmT7bnViO3Ip6/zyZsN/gM4H4wr3Pi0U+o80o9+Cfby1qf59P/IG/++lCCdPYJ0AACgCvwHcD4YVwAIo18CAH/+fSlBOnsE6QAAQBX4D+B8MK4AEEa/BAD+/PtSgnT2CNIBAIAq8B/A+WBcASCMfgkA/Pn3pQTp7BGkAwAAVeA/gPPBuAJAGP0SAPjz70sJ0tkjSAcAAKrAfwDng3EFgDD6JQDw59+XEqSzR5AOAABUgf8AzgfjCgBh9EsA4M+/LyVIZ48gHQAAqAL/AZwPxhUAwuiXAMCff19KkM4eQToAAFAF/gM4H4wrAITRLwGAP/++lCCdPYJ0AACgCvwHcD4YVwAIo18CAH/+fSlBOnsJB+kAAECWmOf7ejHfBwBMMfuLejHfBwA0MrOPi4MgnT2CdAAAoGrM8329mO8DAKaY/UW9mO8DABqZ2cfFQZDOXmJBOgA58eHstg9nLTMfBQBU219n/vkvn/zZfBR5RX0A8oCWjoZAkM4eQToAtbXw8JtPD//DfBQAUG1LOptVMh9FXlEfgDygpaMhEKSzR5AOQA19OLtt1e3/TyUW0wFATf115p83XF2iEksq8AH1AcgHWjoaBUE6ewTpANTQwsNvVt35H5VYTAcANbWks1kNf1ViSQU+oD4A+UBLR6MgSGePIB2AWplcRlcM0rGYDgBqZ3IxRXGqxpIKUB+APKClo4EQpLNHkA5ArcgyOhbTAUBNyWIKllTgA+oDkA+0dDQQgnT2CNIBqIlpy+hYTAcANTNtMQVLKnKP+gDkAS0djYUgnT2CdABqwlhGx2I6AKgRYzFFkFhSkVvUByAPaOloLATp7BGkA1B9JZbRsZgOAGqgxGKKILGkIpeoD0Ae0NLRcAjS2SNIB6D6Si6jYzEdAFRdycUUQWJJRQ5RH4A8oKWj4RCks0eQDkCVlV1Gx2I6AKiqsospgsSSipyhPgB5QEtHIyJIZ48gHYAqi1hGFyQW0wFAVUQspggSSypyhfoA5AEtHY2IIJ09gnQAqqnCMrogsZgOALxVWEwRJJZU5Ab1AcgDWjoaFEE6ewTpAFRTxWV0QWIxHQB4qriYIkgsqcgJ6gOQB7R0NCiCdPYI0gGoGqtldEFiMR0AeLBaTBEkllTkAPUByANaOhoXQTp7BOkAVI3lMrogsZgOAJxZLqYIEksqMo/6AOQBLR2NiyCdPYJ0AKojxjK6ILGYDgCcxFhMESSWVGQa9QHIA1o6GhpBOnsE6QBUR6xldEFiMR0AOIi1mCJILKnIMOoDkAe0dDQ0gnT2CNIBqILYy+iCxGI6AIgp9mKKILGkIqOoD0Ae0NLR6AjS2SNIB6AKHJbRBYnFdAAQi8NiiiCxpCKTqA9AHtDS0egI0tkjSAfAl+MyuiCxmA4ArDkupggSSyoyh/oA5AEtHRlAkM4eQToAvpyX0QWJxXQAYMl5MUWQWFKRMdQHIA9o6cgAgnT2CNIB8OK1jC5ILKYDAAteiymCxJKKDKE+AHlAS0c2EKSzR5AOgBfPZXRBYjEdAFTkuZgiSCypyAzqA5AHtHRkA0E6ewTpAHj503/815/+szkiNW+/u+rO/6h/w5vep//4L/N5AQDT/fnjP0anppaPFnw5U/0b3qQn83nRmMIlayRVGdSMSP0b3qQn83kBpEm4zRqJlo6GQJDOHkE6ALU1e9OVVXf+R/1rbgAAVBUjYOioD0Ae0NLREKio9gjSAagtgnQAUB+MgKGjPgB5QEtHQ6Ci2iNIB6C2CNIBQH0wAoaO+gDkAS0dDYGKao8gHYDaIkgHAPXBCBg66gOQB7R0NAQqqj2CdABqiyAdANQHI2DoqA9AHtDS0RCoqPYI0gGoLYJ0AFAfjIChoz4AeUBLR0OgotojSAegtgjSAUB9MAKGjvoA5AEtHQ2BimqPIB2A2iJIBwD1wQgYOuoDkAe0dDQEKqo9gnQAaosgHQDUByNg6KgPQB7Q0tEQqKj2CNIBqC2CdABQH4yAoaM+AHlAS0dDoKLaI0gHoLYI0gFAfTACho76AOQBLR0NgYpqjyAdgNoiSAcA9fFx84dq+Kv+NTcgl5gRAXlAS0dDoKLaI0gHoLYI0gEAUH/MiIA8oKWjIVBR7RGkA1BbBOkAAKg/ZkRAHtDS0RCoqPYI0gGoLYJ0AADUHzMiIA9o6WgIVFR7BOkA1BZBOgCoD+5JBx0zIiAPaOloCFRUewTpANQWQToAqA9GwNBRH4A8oKWjIVBR7RGkA1BbBOkAoD4YAUNHfQDygJaOhkBFtUeQDkBtEaQDgPpgBAwd9QHIA1o6GgIV1R5BOgC1RZAOAOqDETB01AcgD2jpaAhUVHsE6QDUFkE6AKgPRsDQUR+APKCloyFQUe0RpANQWwTpAKA+GAFDR30A8oCWjoZARbVHkA5AbRGkA4D6YAQMHfUByANaOhoCFdUeQToAtUWQDgDqgxEwdNQHIA9o6WgIVFR7BOkA1FYQpFvc+5v6g1SH9Nd5680yADLh4+YP1dguOql98rz/skPzGAFDzC3OiFStCNecjCW9IQCJsOmxa5To+aFLsCpGJyqqPYJ0AGprdjFIR6pbms2iRWTU3GLEITrpg7/c7s8IGAGbKpSNRJ1H4hJvbrQCBBKvitGJimqDIB2A2vrrvPXh1V6kWqTFvb8RpEOG2Xw57LkSLbxDI+7PqiIEbKpQoyeWZiAl5ia9cJWeH4G5SVfF6ERFtUGQDgAyYja3/wMA5MlcbnKEdKAqIiWoihlAkA4AMoIgHQAgV5iOIiWoikgJqmIGEKQDgIwgSAcAyBWmo0gJqiJSgqqYAQTpACAjCNIh24IbbHE3EwCC6ShSgqqIlKAqZgBBOgDICIJ0yDbGnQAMdAtICaoiUoKqmAEE6QAgIwjSIdsYdwIw0C0gJaiKSAmqYgYQpAOAjCBIh2xj3AnAQLeAlKAqIiWoihlAkA4AMoIgHbKNcScAA90CUoKqiJSgKmYAQToAyAiCdMg2xp0ADHQLSAmqIlKCqpgBBOkAICMI0iHbGHcCMNAtICWoikgJqmIGEKQDgIwgSIdsY9wJwEC3gJSgKiIlqIoZQJAOADKCIB2yjXEnAAPdAlKCqoiUoCpmAEE6AMgIgnTINsadAAx0C0gJqiJSgqqYAQTpACAjCNIh2xh3AjDQLSAlqIpICapiBhCkA4CMIEiHbGPcCcBAt4CUoCoiJaiKGUCQDgAygiAdsu3j5g/VoFP9a24AkFdMR5ESVEWkBFUxAwjSAUBGEKQDAOQK01GkBFURKUFVzACCdACQEQTpAAC5wnQUKUFVREpQFTOAIB0AZARBOgBArjAdRUpQFZESVMUMIEgHABlBkA7Zxj3pABiYjiIlqIpICapiBhCkA4CMIEiHbGPcCcBAt4CUoCoiJaiKGUCQDgAygiAdso1xJwAD3QJSgqqIlKAqZgBBOgDICIJ0yDbGnQAMdAtICaoiUoKqmAEE6QAgIwjSIdsYdwIw0C0gJaiKSAmqYgYQpAOAjCBIh2xj3AnAQLeAlKAqIiWoihlAkA4AMoIgHbKNcScAA90CUoKqiJSgKmYAQToAyAiCdMg2xp0ADHQLSAmqIlKCqpgBBOkAICMI0iHbGHcCMNAtICWoikgJqmIGEKQDgIwgSIdsY9wJwEC3gJSgKiIlqIoZQJAOADKCIB2yjXEnAAPdAlKCqoiUoCpmAEE6AMgIgnTINsadAAx0C0gJqiJSgqqYAQTpACAjCNIh2z5u/lANOtW/5gYAecV0FClBVURKUBUzgCAdAGQEQToAQK4wHUVKUBWRElTFDCBIBwAZQZAOAJArTEeRElRFpARVMQMI0gFARhCkAwDkCtNRpARVESlBVcwAgnQAkBEE6ZBt3JMOgIHpKFKCqoiUoCpmAEE6AMgIgnTINsadAAx0C0gJqiJSgqqYAQTpACAjCNIh2xh3AjDQLSAlqIpICapiBhCkA4CMIEiHbGPcCcBAt4CUoCoiJaiKGUCQDgAygiAdso1xJwAD3QJSgqqIlKAqZgBBOgDICIJ0yDbGnQAMdAtICaoiUoKqmAEE6QAgIwjSIdsYdwIw0C0gJaiKSAmqYgYQpAOAjCBIh2xj3AnAQLeAlPj/2bvz76iNfO/j/84855nMubk3ucm9I0MI1yxhMcRsZslgtmFfDWaxMcZmMyEsdlgMBgwEx4QlbMlMkklIJuf+Rc+Zn5+vu0y5XFJrqbJltfx+nToc01KpW2otpU+XJFZFFASrYgkQ0gFASRDSodxodwKwsFtAQbAqoiBYFUuAkA4ASoKQDuVGuxOAhd0CCoJVEQXBqlgChHQAUBKEdCg32p0ALOwWUBCsiigIVsUSIKQDgJIgpEO50e4EYGG3gIJgVURBsCqWACEdAJTEf8797ONNl+VfewBQCh/WvyeNTvnXHgBgumK3gIJgVURBsCqWACEdgEn0zjvvHAYA1KZDhw7Zu3VMnMbGRnuJAwCAAmhoaLAP23khpAMwiQjpAKB2EdJNKkI6AACKiZAOQDmpkE5O8wIAQO3485//rPbe9m4dE0eFdPX19fbSBwAAU0QdnQnpAJQTIR0A1CJCuhwQ0gEAUDSEdADKjJAOAGoRIV0OCOkAACgaQjoAZUZIBwC1iJAuB4R0AAAUDSEdgDIjpAOAWkRIlwNCOgAAioaQDkCZEdIBQC0ipMsBIR0AAEVDSAegzAjpAKAWEdLlgJAOAICiIaQDUGaEdABQiwjpckBIBwBA0RDSASgzQjoAqEWEdDkgpAMAoGgI6QCUGSEdANQiQrocENIBAFA0hHQAyoyQDgBqESFdDgjpAAAoGkI6AGVGSAcAtYiQLgeEdAAAFA0hHYAyI6QDgFpESJcDQjoAAIqGkA5AmRHSQVm3cevSZSvtVzG9rWnevGrNevtVFAMhXQ4I6SLV3PGipb377JVbVwaGrw4+VeX81UF7pCinLvZfvvW1lEPtp+1h05isAGoxfjn4xGFNONZ1/ubXr8PlSGePPSoARCGkA1BmjiHd/MXB+p0z9nUHRy7Wdd6QIn+M/Hf9zpFBteDwiXPX7n+btZztHbAnVMvkvEVOVG589fzBizfD3/+vlAfP39wcet15vm/5qrX22Jge5Ozr0s2hgUffPXz5q1orhl79Nvjkx97bj9pPfbFi9Wd2BUwRQrocOIR0sz6pm9c8Y+G+GQ1HZ3568iMp8of8V16UQfbYtaNGjxer12+6/uC5+sBmkV2cPWoUmUE1fsmO/p627Tmkl2TTug324CTdF66HvxEpXReu2aNOnOVNa6/dfxZu1305+OTza/dO9PTuPthu10HNkv2S/oqlSWMPRu0jpANQZllDurrGNXVHLs7oHogpMoKMZtcsmFMX+8MNxMQi5yf2hGrTnLnzpVUankFd5OzLrgMnHeeu3H38g5Te24/sYQUz6+PZZy7ffPjqt/D6oMvQ63/a1eDKc90gpMtBppBu9rK6hiMzG099FFNkBBnNrllsNX28uDLwdfgDDxPS+fEM6dpPX1S7PlWGXv+uJjWpId36zdvDq4FV+ode7mo5ZteEK89jnA95U/21ygom3749BmocIR2AMssU0s1oORuO5KqWlrN2/SKZziGdNKllRqxZe/D8l6HX/9T/ffjqN7sanJy5fFMt0ptfv7aHFYz+qLrcf/6zrBjWi3Y1uPJcNwjpcpAypJtZHyw+mBDPmUVGnpkwyaKo6eNF85adOgC6eu/p7oPtazdsaVq3Ucqylal+SiSki+QZ0lluP/67mtSUh3TDlUCntaPQzdca4nmMc7Z5+17ra+0832ePhBpHSAegzLKFdOEkLrbY9Ytk47Y9R0+et4o0EPURvff2o/AIew6V4WoI84xr8OlPx7rOr9u4VV5f1NC4q6Xt82v35OyrsCddNWeqGqlZybqtz2YfPH8j28LS5avUIDmhPXDsZO+dx2qE8fXgznPdIKTLQZqQ7uPFdUs77BgusUgVqWhPq3hq+nhxqP20+uRDr35LmcpZZAonenqlbNuTqpk0TdR6SHepf6ilrUvKwfZTJ871Xrh+X9/eYbjy65Qc9ez6yM7zGOcs/DP89Qdl+IkdJkI6AGWWJqRr+LRR/RGO4eKLVb34NmzdpY/ok9pYnEJ7DrXreZSWsTrdsmzZuZ9beEyUqWqkZnWx/6H6nHI2u2P/EXtwxebtey9cv2e/Clee6wYhXQ4SQ7qPF9c1dtkBXNrSVfScrtaPFyfPf6k+/J3HP9jD4KHWQ7rwG8m6ffubv+kRUj5XBPE8j3HO+odeqve9Nfyd+mPo9T8bVzTZ46GWEdIBKLPEkK5+ztzO85fV3+EYLr6oWp3nr8hExqZYYFMb0q1p3nyw/ZR8BntAksVLlu1qaWtp60rTVta30JYmS+QZV3rNW3bKm27dfXDegoX2sBRkrdix7/CBoydX5vj80EzLKkbTuo27D7Yfaj/9110tixriYmj/Rmo+n/nO2xu4XBn42hqUP+dtIfCo67k+a/HL2eS5bhDS5SA+pJtZHzj0oTOLVC/yda+1frzw3MScrV6/qaW9e9O2PfaAfKXfFy1YtGTj1t17D3fId/TZpuS7d0WGdPLHyFxv3zt+3GQ+IV3642N8SCe27W3V3ckz3dsk/XJWPLcF52Nc+mUVL/38TskGKHOnv0dZIYfe3mb36Mnz9qixZn08WxayLOpdB9uyLjHnus7fkWzCsulJxQPHZNVqyfSML5+6gff6rKVfrxRCOgBllhjStXZ0n7lyQ/0djuHii6ol1WUiQV1Cf4E5q2d8euKjFRdnrbw069OTH81rnmGPMfnSh3Sd5/sGn/4k5e6TH/RVgWHHuj9Xo0lZ27xFv759b+vb13+UQ/LpS/3mPW7vP/+59/ajxB/9GpYu//zavTvGTZel3Pv254v9D5cuW2mPXbGr5Zge8+rgU3twOjv2H+l/+EI/4G+4cv428Oj79lNf2KO+9dmmbXo5yGF4b+vxq/eemlOQ2Y+8W7O08FSt+Bbehev31GjX7j+zh1U4LCvt1MUbauLqzsd7DrVfH3+Hpocvf5WJL29aq8Y3Z1bK2DNSX/9uvq7KgWMnzfcy5fmZpUGp3+XM5X5zUmnI2bu+BXhky/L81UE19FzvbWuQz7bgU1dzWJ+1rMt5otYNhZAuB/EhXab70FUrMhF7uiFTcnysueNFkGUT+3LwiV25Yse+w7e/+Vu4HD97xR41ytkrt2R3pD+q2gvJzvzKwNdqOu2nL1lVfPafWtZ9kSIn5HKQlcOreZSRIkv75tDrmFm2QrruC9dvP/67ecOEvsHHq1LHqQ4hncPxMTGkC4ynDQw++4c9rMJtOSsO28KEHOMclpWWdX7Tb4CDoWOcZ7taaz9zSX+2eQsW6l8aeu98Y48aRZpD3Reu3Rr+znqI1uCzn2TrXtO82a5gcK7r8x3Jl3Ljq+fWJjxc6T4su474J2b41HVYn7Ws61UkQjoAZRYf0i1btfrMlRv+IZ0UmdTYdEPmrJmx8vIsq8zbkMd5iCl9SGe2UDvOVW3I6rv5SNPcfN28hqjaU/OkSswP2nIiYbbVrCLH1627D9p1xj8ZwO3WyNKKMu8XbpVLN4ekHWnXCYJNxk185X3Ng7ouMtlwKtHS3q1HqHZWNn/hYv1wg8hLVNyWlSbTVGPKt3m0s6fa7O893KHGN2c2sRzp7Bn/bqNy/sxCtykv9We+cs2c5chWXd/dx2ro5Vt2Nz2fbcGnruK2PmtZl/OErBsaIV0OYkK62cvqwombW4l/3utUHR9r7nhh1Y0v1Z7ueuDoyfDIwykeHLFg0ZLeO9+EK0q5dv+ZvJ36W5aqVdFn/6ll3RcpOh2rVuQdI78jswl04Xr0vnfwyY9bdu63a0bJGtK5HR/ThHTmHRgjLwFxW86B67bgf4xzW1Za1vlNvwEOh45xnu1q7cvBJ2oE9dOCvtm0NBTnzJ1vjz3epm179KWykeXmUNUfjJ3r+nxH4bvvWeVET69d5y2fum7rs5Z1vYpESAegzOJDurZT56uFdHVdNz/YfuzdhjXvzFrwh7r6d+ob3v30Lx/u7JjRfSsypJNJjU03ZGnHRyNnHc0z6irkD/lv4+mP7PEmWfqQTtz8evShb/1Dr+xhFc1bduifp7rHT81seKki5yHX7n/bN/j43rc/6xfl2Dzr49lmRWXn/qPmIU2awr13HvfefmTeUeX+85/Dv6/KgVMNlQ/m0C+9rfuCnr5MQd5OzkmkUaKvJhiuHJvtalHttocvf+1/+EJOXeRz6hdlUlZFaVHpES5cv28NVVqPn9FT2La31RrqvKw03ZiQr0MnWepn4bsjP3uOTlw3JtY0b5Zmhy6Dz34arfLqN/N1VXYfjHgUSf6fWehzSBm6t/W4MbFkPieZPtuCT93AY33Wsi5n/3XDREiXg5iQruFIXDe6f6/7P1YJj6OLTMqeumGqjo81d7wIsmxiX/R/ZVeu2L63VXaGuuitODGk04tr5ANX3k522rL3tuZlskO6lPsiRadjsoRlZuVAc7H/4dXBp+ZDvSPvuG/mKap89eJXGVM+ql7mw5WuQAsWLbErh2QK6ZyPj2lCOt0LstqzUNyWs/O24HmMc15WWtb5Tb8B3og6xvm0q5VFDY36c6onum7ZuV/9V8r+o512BYOsIebzQ2Q68nlko7t676nMr3rfakGbc12f72jXwTa9NOSPkd3ajQdSZFcpb6perxa0+dR1Xp+1rOtVJEI6AGUWE9ItWNSg8rVwSFd3/Oq7C1b+oa4+XN5dvj4ypJMiExyb+njLz490DaibNfrfupl18t8Vlyb9JMSSKaQ7ca5Xjxx5ExbdDUGON9ZtdKyG18Cj7/VFLnIuJM0vPehoVG8aOdKPTvnVb9JMMRtnckzVh7dwtzLd7f/B8zfWoET1c+beeftbn7yF+ROotIH0QV0GhW+VYp10yemWnt9lK9foTyVleyhlu3D9vhokTdLIZqi0ZtQIkT+rOi8rTTcmRqfz+p+nLvbrBwXOmTu//fRFaYnuq9KYcLgny5R8ZrM3hDSVZKkeaj+d5vwq8DvJ9NkWfOr6rM+aw3I2OawbJkK6HFQL6WZ9ktCN7uMN738w/48qnpM/5L/hccwiE7TeQpuq42MtHi8snptYYOyN40O6zzZt03tmmTvzbnRWB6jJDulUSbkvuv3477Jk2k99MX/hYvP15U1rzV6B4V+/rJBODr76Uj55L7NutfN8U6aQzvn4mBjS7W09rmMLWevswRUOy9lnW/A5xgUey0pzmF9T1g3Qp12tmL/abty6W72oF7JsjONHH6f3ztjyvDr41Lo1297DHXcf/xAZtAUedX2+I908fvDiTXgjbWnrunb/WbU78TnX9VmfNc/1SiGkA1BmMSHdhr/uiAzp6k7efOeTFSO95+Y1frizI2jrHcnj2r/8YMfxkVd2nagW0skEx6Y+3spLIych416pXNFjvpKDTCHd0uWr9O9mPX137cFBcPfJ6GFMDt7WILPhJQdm69YtcnzSXd/DLRvzJ6zIKwLMRszaDeNu2KGPrJF5VjzzfdXvkyY5NuvWbfgHNPMkRM73rFtsyFBdt/2Mfb+eXS1tum74V9CGpcv1txA++fFZVprZmJDRdh1ss8eoXHJrv/RW1kbqVH1maR6Zv8yP1n31W//QS3lH3diN5HOS6bMt+NT1WZ81h+VsyrpuWAjpclAtpJvXPCMctIVLYh86XWJuMzdVx8daPF5YPDexIHVIp8945bOFr/G8YVxEGT5O+ew/Nbd9Ucwd4htXNOl+i+EWjhnSjRyJxt8aTE7jdT+gwSc/Rl43akof0vkcH+NDupF8wej22NN3xxpBcVjOPtvCRB3jsi4rzWF+TVk3QJ92taI7tMqY4RflKzbGHUeal3pO1Y3SwhYsWhJ5lb1zXc/vSO+drgwMW4MSOdf1WZ81z/VKIaQDUGYxIV1LW2dkSPf+lsN/qKv/0ycr60726zxuNL/rGrvWNRzSyQTHpj7eiksjl/OYr+RzEmLJFNIF5oH/2T+sZqjZtDpwrMscZA2NPKLrA7MU68Cs73kR+aNcMP4ebdYtP3Sv8htZnlym6N/GpQkVeU9ffR4iLXtrkHkS0hN162vdoA+fwARGsyx8yD/W9bkaJM2C5i07raE+y0ozGxPhD5AoayN1Cj/z9r2tMTdGkc8v661dp8LnJNNnW/Cp67M+a27LWcu6blgI6XJQLaRbtD/uWldd0od0MkHrLbSpOj7W6PHC5LmJBalDOt1/5HrUsjrWPXqcivzMPvtPzXNfFOnq4FM1wXAgYoZ0kY/g0DcCk7J1d4s9eLz0IZ3P8dEM6eR40X7qC1XOXO6X/w4ZlxzKOhn5RILAaTn7bAs+xzifZaU5zK/JYQN0blcHlec26N8azevZj548rytWWxv1NRmyJsTc4y+Sc13P70jvnRx+R3Gu67M+a57rlUJIB6DMYkI6fUM6K6RTF7p+uLfbSujCRdXSE4m5Ld0Ko6eAOv2IL+NrT5isIZ3Zyetg+ylz0Fg74+lP4Ys0zaZGZH9y8yYa1m079I/bA4++O9HTGy6dPX36B2Hz1+DKEzxHm6GRd5mJpxsTcsJgD6uQt1YjDL3+3bpM0jwJaT1+xhyk6IN65I3nzvUOqKEPnr+xbo2k7xAceQcT52VlMhsTG42LmFLK2kid2s+8dNlKWfOr3U1c1p/TlyKe/epzkumzLfjU9VmfNeflrGRdNyyEdDmoFtLF35BOl/QhXcxt6abk+Fi7xwuT5yYWpAvp6ufM1csq3LVELF6yTM9RDiGdw75oedPabXtbZWnL9yKHAFX0vIcfm26GdO2nL1pDg/GJWOSXaEof0vkcH82PFFPkqzzUftqsaHJYzj7bgs8xzmdZaQ7za3LYAJ3b1cH4uuZat3zVWr2FhjdA5ebb2+GlfAisybmu53ckOwQ9v2ev3Iq8b101znV91mfNc71SCOkAlFlMSNd1oS8ypPvjzPl/qKsPd6MLF1VLT0QmODb18cxTi/ApR7iMrz1hsoZ0gfGTvvlTs7TI9QPpIlv2ZsMrspu3HC/1CGbLTJoa+vU0xfoBXN/Ed6DKg+1i6LoXrkff1EPatfp9rZuJmCch4ZtfBEknIWZ1s/VsNrykKWPUGB2qa6Up4c4Cim5MDFW5k3S8TI3UgnzmoHIOJpuATP/Bc/vRii1t9i/YPieZzttC4FfXZ33WPJdzpnUjjJAuB9VCuk877ZQtsqQP6WSC1ltoU3V8rNHjhclzEwvShXSfbTICqSqPwdXdYcIZgc/+U3PeF8me88vBJ/oKtcgSTmnNkG7fkRPW0KByJaaeZvjobEkZ0nkeHxNDOvnAfYOPw1crmxyWs8+24HyM81xWmsP8mtw2QLd2tejpvT36aV//07pMXm/I1T5J4sRjuNX1/44OHOsyR5C57h961dN392hnT+QN+0zOdX3WZ81zvVII6QCUmXNIF5y4Hk7lnEM6U/iUI1zsOhPEIaQ7+flVfYTTt3dpP/XF2xd/j2xzmw2v5i3Rt+obenup0amLo8s/GPmd8JiumKaoJ9BrcgxWrw8++4f5eqJKg3s0Djt1MaIvVVC5WFK/r5Xj+J+EjP1QaVzxcfzsZfXiUNQthD2XlaYbE3cej93iJL1MjdSCfGaTfPXybQ68ffbrcNTFET7fr/O2EHjU9VyfNc/lnGndCCOky0ERQjpT+GgYLnYdV7V7vNA8N7EgXUi373CH/sC7WtrswRX6etjJDuky7Yt6+u7ot44p4eudzZCuWqqlf+CJvLmYKWVI53l8NEO6gUffS1tClS/6v5Kjw9HOns1VAgVT1uXsuS04H+M8l5WWdX4tbhugW7s6MNK98Bp79u0FGVJdP+REa1q3US+K9tMJd7q0ONedkO+o58vByIRdFp0shL/uir62V3Go67k+a57rlUJIB6DMYkK6+Mtd/2tPVziViw/pYi53NYVPOcLFrjNBHEI6aUDoFpK+zkU/fi78+7NiNrw+27TNHlwR2Tl/b+txXVFel+nEF6sbuXnjDPP1RPMXLtbH8u4L1+3BFWar3bpaxP8kpPvtDW4evvx1UUOjelFf9HT1XkTbxXNZaboxUe1xb/EyNVIL8pnDpGWmr3GQsnr9JnOoz/e7x3VbCDzqeq7PmudyzrRuhBHS5aBaSJfn5a6m8NEwXOw6rmr3eKF5bmJBupBu98GxHZF1yaE2+PRHNcJkh3Tp90XmjbrkK+69883xs1fku9jVckwV/fDQcORhfn3mo2xNuvNgz5eD9rDxUoZ0nsdHM6SLf6MYWZez57bgfIzzXFZa1vm1uG2Abu1qswE/XFmlzWIOOnHOfuLwuo1b9dD2U19YQ+M5152o7+jA0ZOyqeolZpaHr36Lf0Bq1rqe67PmuV4phHQAyiwmpKv24IgPNrdWHu26NOi4Zqdyx67UdVytFtLFPDjCFD7lCBe7zgRxCOkC4y6qt4ZHrgmShpQ+hh3ris4l9xgNr537j9qDx9/Cxrzhi/mTnbSnjRqp9PTd1dXlOGoPjqXvnSEHV3tYRUvbWOd569a8/icha5o362aWuqZDFoV+5Vj353YF72Wl6cZE+EQljUyN1IJ85kjmxRFW0y3x+9XN6/D367wtBH51fdZnzXM5Z1o3wgjpclAtpMvzwRGm8NEwXOw6rmr3eKF5bmJBupBubfMW/YHDN3dXYp5Cnji/MftPzWFfpH/levD8TWQnMn3L1/A0zfPwva3HraHB+HsaRt6nz5QypPM8Pk5sSBdeJtX4bAvOxzjPZaU5zK/JeQN0aFfrn3ITS+TPuvo5OeEtNJFb3Yn6jpT5CxfvamnrvnBddhdm/7jb3/wt8v59pkx1fdZnzXO9UgjpAJRZTEi34a87IkO6uq5bf/pk+R/q6v9Y3/DBtragrVde+fORi+9vPvTO/yx6d8HYU19VLT0RmeDY1KsLn3KEi11ngriFdPuOnDAOSAfPXO5Xfz94/ku1J4ibDa/Ieypv3Lpbj2Dd8CXm1jaJzEenJ95y2zJ2wWmVO+O2n7mkJ27dDSTxJCTNSZc+UekbHLkxh7T71X/l5EfaqfbYFT7LSvNsTGRtpBbhM0cytw7r/m7SgNaDIi+R0BehhL9fn23Bp67P+qx5Lues64aFkC4H1UK6ec0zwkFbuKQP6WSC1ltECh8Nw8Wu46qmjxeK5yYWpAvpRgKpt2fpkb1LljeN3XwqvGP32X9qWfdFCxYtGbtnXJUQbeDR99WmaYZ0kaGJGUBE7pxNegarXUCn+Rwfpyqk89kWfI5xPstKc5hfk/MG6NCu1qHz0Ot/ymjhojdS+aNh6XKrepqtrBrnuhPyHYVt2blff6Th6hdKR0qs67M+a57rlUJIB6DMYkK6BYsaIkO6kfStrfdPn4xc9Bou7zVtreu6FRnSyQTHpl5d+JQjXOw6E8QtpBN3H/+gan1+7d4d4297vLfMhtfF/of2YCOBGh45Ru40B+kDZNZGj5i3YKG+M86D52+qtXUi9d4ZPS+6//znyIr60hiZsjVoQk662k+PHvilgdW4oknfL8m8S53FZ1lpno2Jrre/7g4++dEeFqUInznSgaMn1TSl7Nh/xBxknu8dOGbfgkRaafp35vD367Mt+NT1WZ81z+Wcdd2wENLloFpIN+uTunDQZpbZG9//8JN3VEgnf8h/w+OYRSZovUWk8NEwXOw6rmr6eKE4ZwRampAuMNoAquOPRT/ucDjqbNxn/6ll3Ret3bBFf6TwRW1i47Y9uitceJpmSHdlIOJT6eO1lO1RT/8w6XglptWk+Bwfpyqk89kWfI5xPstKc5hfk88xLlO7ennT2GPEqv2iYF7fffjEOWuo/ha+evFr+B7H8ZzrTsh3FCnNjeGqia/rsz5rnuuVQkgHoMxiQrrAuC2d+q95ZWtd160PNre+u2DlH2fOlfLO3KX/vmrLfx04Y46jaqkppLwhXZDvSYjFOaQ7fWn0Vz6zRP4krpgNrwcv3oQ7gukj9+DTH+vnzDUHnbo49l7VHiSnhCcbjG/SSZsv3JU9qPQLCN9IQt/KdzjUkSoYfzlq+O62E3LS1biiSf8QKuc5+qzmYPspe9S3PJeV4tmYONLZo6rL8lm6fJU9OGSqPrOs8C3t3farBn35icyIvi2gFnOPcN1MH476fn22BZ+6Puuz5rCcTVnXDQshXQ6qhXRB0m3pVDxnlvA4uqS8IV2Q+/Gxdo8XSm4hnX6j4dDln/MWLBwwHrwTDukCj/2nlnVfVEkGR78C61YAit7hR07TDOkevvw1vPvqf/hCDR189pMsAWuo5dLNITVy+KlEFp/j41SFdD7bgs8xzmdZaQ7za/I5xmVqV+vHSgxXvw/a8lVjQV54UzrW/bmewvkqF3IGlX6v9ksedSfkO4q0dXeLnnLk85djxNf1WZ81z/VKIaQDUGbxId2yVaurhXRpiqqlpiCTGpturPApR7jYdSaIc0i3ev0mfVhSJf6UwGx4jRzJ7j2VFrMeat4JqLPHvg5l/sLF+gfGB89/OdZl345NTplaj5+5dv/bwac/WYOCStP83rejd5QYrvRXN986qNwD+9bwdw9Dj0Vf1NCoK8oZxa6WY3rQqjXrdUtxOOrOKRN10qV/wdPl/vOf58ydb4/3lueyUjwbEzv2H9GfVs5yI394NE3VZ1Z9GeR7DF9TI03bC9fv6bmIXLf1qax8ZvNhf/uPduoLOoajvl+fbcGnrs/6rDksZ1PWdcNCSJeDmJBu9rKEznTpi0zKnnoV4aNhuNh1PNT08SLIMaSTneRXL34dnd8Xb3TfNNmodb8SVSJDOuf9p+awL9K9kwaf/Li8aa1+XQ6psvM0b00VnqYZ0g1X7uVvhgj6SZrDVa7/tRw/e0WPf/bKrcgsWPE5Pk5VSOezLfgc43yWleYwvyafY1ymdrVuHEqV8KWsmn7+lTQdw6uZHior/+fX7lnh8trmLV8OPpFN1XxRc6vr+R3JBC/dHAr3VJV3v3b/2ejnqVx6Yo0QeNT1WZ81z/VKIaQDUGbxIZ1o7ej2D+lkImNTTBI+5QgXu84EcQ7pAuMWy6qc6LGfHmWyGl5Sbj/+uxzX5bhlPkNTmhHhLkuipb3brCsHxS/6v5Kmv7TY5GMMPhu9QEmOo3bNitaOs/om1sOVNo1MQdpPVwefSjtANc3DJ13B+PvyygjSKurpu3Opf0i/43CVO/JO1EmXfHI9HVWqXdegeS6rwLsxUT9nrnmDD/lO+x++kLdWxbpuVJmSz6xCOlXkJFPe9MrA17J4Za0wzxJlbdkWatUFIxc3XdTjyNol36N8WqlrNbLD36/PtuBTN/BYnzWH5WxyWDdMhHQ5iAnpxOKDcZ3pUhaZiD3d6sJHw3Cx6/ip3eNFkD2kk32vTNMseu8nm6o1aO2GLWZdM5karvRsGng0El+aLw5XCemc95+aw77I/MCy85F37DzfJ/tPc6dUbZpWSCflzuMf1L533KHk+S9p+k+NXFj9ZPTptyO1XrwZePS9LD0p4bvUOR8fpyqkCzy2Bc9jnPOy0tzmV/M8xqVsV89fuFjWGTXO9djPafZ4lWVrDZW12tzi7j75QbY42UxkIVy7/0y9RThoU5zr+nxH+pnRsqVcvjl0+lK/LCJZtfRtCoar3znOp67z+qx5rlcKIR2AMksM6eQQ23l+9KlD4RguvqhaUt3qhF9YPiHdofbTuu7Qq9+Wr1prj2EwG176NyurSGsm3IbQjnWdN6OTyBJ5UFe27m4x28ThEnnSJS0haT2ER9ZFWo3rNm61q03cSddIU+ztZUGqmD/iVeO5rPwbE/uPdlrnWrpUexRg/p/ZPLOqVmQuYlrJ1dYoOdXUTe3w9+uzLfjUDTzWZ81hOVsc1g2NkC4H8SHdzPpgaYcdumUqUn1m9LQLpEaPF0H2kM48h08sO/YdtqqfvXLL7ICmy7ne27qDSWRI57z/1Bz2RdZ1uFaR40vv7UfVpmmGdPIJw9WHK71sIu92F2nfkRPWwV0VOfO3R3U9Pk5hSOe8LXge4wLXZaW5za/J5xiXsl1tPno+nOqazJ5956OuS21p6zJTqnCJDNoU57rO35EO2qqV29/8bdnKNXa1Cp+6zuuz5r9eBYR0AMotMaQTDZ+O/kAXjuHii1W9+Mw2XLXnnVUzZ+583RDpvTPy+NEYZsNredNaaQpbjZhbw99Z9wAOa1q3Ud4o/EP98Mhv+D9duH7fujOORd73ysDX4SaFnGP0P3zRfuoLu8Jb0p64//YR7LrIx+jpu1vtylMz/VzbPK73gaJPBiJb5CZ985rhym+V9uAqfJaVvqLEpzGxZef+i/0P7zz+4cGLN+ZZXMxdSHL+zM1bdsh5izStIk8y5UX5jjZu22NXM8gH1vchUuXhy19lFhYvWRbz/fpsCz51NYf1WXNYzmEO64ZCSJeD+JBOfLy4rrHLjt7Slq6PpLo9xUKq0eOFvuVTtdNji3mLqMSybU9Ew+loZ8/Ve6O9j2UHeP3B8+5KHiRHK1XrxLno3znc9p+a276ociuD+9Y+X3ZEfXcfr16/KWaastdSg6TuqjXr5YPpO8aqMvDo+02xx4uwtRu2XL45dPubv5m78cinJQROx0dZl/Q4WRt4WswySeSwLUzIMc5hWWk+86s5H+NStqt7+u7oaUZuldqsj2frr6BacN+4oknamWb3YVXkk/Te+WbXwTa7gsG5rtt3JKuxfC/WpqeK7ILOXO6P6cfqU1dxWJ+1CVmvCOkAlFmakE4Lx3Dxxa5fai1tYz/lhR+HZDEbXupAKA3xA0dPnujpbT1+ZlWWh0NJm2Pjtj2HT5zr7Ok7fvayvHXWlrG8XUt7t6ounyH+5y9NRjvUflo+8NGT56UFVhOdJf2XVf7y/8wrVn+2q+XYyDue75PvV/7Yvrc1fF+SSPJpN23fK6uEVNx9sD2xoRb4bQs+dS21uD4T0uUgMaQLKjmdQ386qVIrCZ1p+hwvPK1cs97cAerTb1loxljjOOw/J8Sa5s1yZDlxrrf99CX5dsL36kpjwaIl+46cUPvepnUb7MGTI//jo79M28IEHuNqcVllaldPuOYtO2Qhy6KWxSXrdqal7VbX7Tta1NAobbYjnT26zbZtb2vKB0341FUyrc8Ti5AOQJllC+lazoaTuKqlJeEnspLRF6QMPv0psY0bbngB05PPtuBTtwQI6XKQJqQLKte9Zro/nYxc/KtcMVH+umvsaYly9m4PBqqY5se4TO1qTDeEdADKLFNIJ+oa19QduWjnceOLjCCj2TVLbd/hDt2HP/KOM5Zp3vACNJ9twaduCRDS5SBlSKfMXlbXcCQhqpMR0j/LFTVkUUPjitWf2a9W9N75ZjRrePZTnj1NUOum8zEua7sa0w0hHYAyyxrSjZq/OFi/c8a+7uDIxbrOG1Lkj5H/rt85Mmh6mL9w8Yatu3bsP3L+6qC+5+vQq9/SXOgxnRtegMlnW/CpWwKEdDnIFNIpsz6pm9c8Y+G+GQ1HZ3568iMp8of8V16UQfbYKIsjnT2VO089Pth+aumylerFpnUbL9/6Wu+m2k9fHF8JiDPdjnE+7WpMN4R0AMrMMaRDpUWuG0+6dPakuhvxdGt4AdX4bAs+dUuAkC4HDiEdpiezSTD0+vd73/5s3VX95tevuWQPmUy3Y5xPuxrTDSEdgDIjpHMWbkx0VR7ilsZ0a3gB1fhsCz51S4CQLgeEdEgp3CTQZej17xf7H07DfRQ8TbdjXHgjSt+uxnRDSAegzAjpnO3Yd7jv7mMpl299feJc76bte+0xqtu4dbeq23vn8fyF0+UCYSDMZ1vwqVsChHQ5IKRDSvMWLNxzqP3M5ZtfDj65OfR68MmPt7/5W9/g456+O3tbj9tjAylMt2OcT7sa0w0hHYAyI6QDgFpESJcDQjoAAIqGkA5AmRHSAUAtIqTLASEdAABFQ0gHoMwI6QCgFhHS5YCQDgCAoiGkA1BmhHQAUIsI6XJASAcAQNEQ0gEoM0I6AKhFhHQ5IKQDAKBoCOkAlBkhHQDUIkK6HBDSAQBQNIR0AMqMkA4AahEhXQ4I6QAAKBpCOgBlRtCGtgsAAHWTSURBVEgHALWIkC4HhHQAABQNIR2AMiOkA4BaREiXA0I6AACKhpAOQJmpkA4AUIsI6SaVOg0AAABFQ0gHoJwI6QCgdhHSTSpCOgAAiomQDgCA2vN+fdN/zFxsvwoAwFuzlv+3/RKAmsUWjclGSAcAgKOFHb/Mb31pvwoAQMUHs9/7y5WG9+retQcAqEFs0cgBIR0AAC7er1+9auBfK2/9PzrTAQAifdo6Z33vksX7/sceAKAGsUUjB4R0AAC4WNjxy6qBf0mhMx0AIOyD2e/J+bwUut4AJcAWjXwQ0gEAkJnqRqcKnekAAGGq040qdL0Bah1bNPJBSAcAQGa6Gx2d6QAAYbrTDV1vgBJgi0ZuCOkAAMjG7EZHZzoAQJjZ6YauN0CtY4tGbgjpAADIxupGR2c6AIDJ6nRD1xugprFFI0+EdAAAZBDuRkdnOgCAKdzpRhW63gC1iC0aeSKkAwAgg8hudHSmAwAokZ1uVKHrDVBz2KKRM0I6AADSqtaNThU60wEAqnW6UYWuN0BtYYtGzgjpAABIK6YbnSp0pgOA6Sym040qdL0BaghbNPJHSAcAQCrx3ehUoTMdAExn8Z1uVKHrDVAr2KKRP0I6AABSSexGpwqd6QBgekrsdKMKXW+AmsAWjSlBSAcAQLI03ehUoTMdAExPaTrdqELXG6D42KIxJQjpAABIlrIbnSp0pgOA6SZlpxtV6HoDFBxbNKYKIR0AAAnSd6NThc50ADDdpO90owpdb4AiY4vGVCGkAwAgQaZudKrQmQ4Apo9MnW5UoesNUFhs0ZhChHQAAMTJ2o1OFTrTAcD0kbXTjSp0vQGKiS0aU4iQDgCAOA7d6FShMx0ATAcOnW5UoesNUEBs0ZhahHQAAFTl1o1OFTrTAcB04NbpRhW63gBFwxaNqUVIBwBAVc7d6FShMx0AlJtzpxtV6HoDFApbNKYcIR0AANF8utGpQmc6ACg3n043qtD1BigOtmhMOUI6AACieXajU4XOdABQVp6dblSh6w1QEGzRKAJCOgAAor373/UxpX7H7VUD/5J/w4PM8m8fzranCwAohT+9+86/f/hvMWX+5o/kpF3+DQ8yi0zHnjSA3LFFowgI6QAAcPHxpsurBv4l/9oDAAComPOXGXJKL//aAwDUILZo5ICQDgAAF4R0AIB4nNIDZcIWjRwQ0gEA4IKQDgAQj1N6oEzYopEDQjoAAFwQ0gEA4nFKD5QJWzRyQEgHAIALQjoAQDxO6YEyYYtGDgjpAABwQUgHAIjHKT1QJmzRyAEhHQAALgjpAADxOKUHyoQtGjkgpAMAwAUhHQAgHqf0QJmwRSMHhHQAALggpAMAxOOUHigTtmjkgJAOAAAXhHQAgHic0gNlwhaNHBDSAQDggpAOABDvw/r35Hxe/rUHAKhBhHTIASEdAAAuCOkAAACmD0I65ICQDgAAF4R0AAAA0wchHXJASAcAgAtCOgAAgOmDkA45IKQDAMAFIR0AIB73pAPKhJAOOSCkAwDABSEdACAep/RAmbBFIweEdAAAuCCkAwDE45QeKBO2aOSAkA4AABeEdACAeJzSA2XCFo0cENIBAOCCkA4AEI9TeqBM2KKRA0I6AABcENIBAOJxSg+UCVs0ckBIBwCAC0I6AEA8TumBMmGLRg4I6QAAcEFIBwCIxyk9UCZs0cgBIR0AAC4I6QAA8TilB8qELRo5IKQDAMAFIR0AIB6n9ECZsEUjB4R0AAC4IKQDJsOH9e/J+U98kXEYP6YwfnzJc/w5nNIDJcIWjRwQ0gEA4IKQDpgM6hQovpgnSIwfLowfX/If33wFQO1ii0YOCOkAAHBBSAdMhqw9lRg/XBg/vuQ/vvkKgNo1h5AOk4+QDgAAF4R0AAAA0wchHXJASAcAgAtCOgAAgOmDkA45IKQDAMAFIR0AAMD0QUiHHBDSAQDggpAOmAzcwwsAUEyEdMgBIR0AAC4I6YDJwCkQAKCYOEIhB4R0AAC4IKQDJgOnQACAYuIIhRwQ0gEA4IKQDpgMnAIBAIqJIxRyQEgHAIALQjpgMnAKBAAoJo5QyAEhHQAALgjpgMnAKRAAoJg4QiEHhHQAALggpAMmA6dAAIBi4giFHBDSAQDggpAOmAycAgEAiokjFHJASAcAgAtCOmAycAoEACgmjlDIASEdAAAuCOmAycApEACgmDhCIQeEdAAAuCCkAyYDp0AAgGLiCIUcENIBAOCCkA6YDJwCAQCKiSMUckBIBwCAC0I6YDJ8WP+enP/Iv/YAAACmFCEdckBIBwCAC0I6AACA6YOQDjkgpAMAwAUhHQAAwPRBSIccENIBAOCCkA4AAGD6IKRDDgjpAABwQUgHTAbuSQcAKCZCOuSAkA4AABeEdMBk4BQIAFBMHKGQA0I6AABcENIBk4FTIABAMXGEQg4I6QAAcEFIB0wGToEAAMXEEQo5IKQDAMAFIR0wGTgFAgAUE0co5ICQDgAAF4R0wGTgFAgAUEwcoZADQjoAAFwQ0gGTgVMgAEAxcYRCDgjpAABwQUgHTAZOgQAAxcQRCjkgpAMAwAUhHTAZOAUCABQTRyjkgJAOAAAXhHTAZOAUCABQTByhkANCOgAAXBDSAZOBUyAAQDFxhEIOCOkAAHBBSAdMBk6BAADFxBEKOSCkAwDABSEdMBk+rH9Pzn/kX3sAAABTipAOOSCkAwDABSEdAADA9EFIhxwQ0gEA4IKQDgAAYPogpEMOCOkAAHBBSAcAADB9ENIhB4R0AAC4IKQDJgP3pAMAFBMhHXJASAcAgAtCOmAycAoEACgmjlDIASEdAAAuCOmAycApEACgmDhCIQeEdAAAuCCkAyYDp0AAgGLiCIUcENIBAOCCkA6YDJwCAQCKiSMUckBIBwCAC0I6YDJwCgQAKCaOUMgBIR0AAC4I6YDJwCkQAKCYOEIhB4R0AAC4IKQDJgOnQACAYuIIhRwQ0gEA4IKQDpgMnAIBAIqJIxRyQEgHAIALQjpgMnAKBAAoJo5QyAEhHQAALgjpgMnAKRAAoJg4QiEHhHQAALggpAMmA6dAAIBi4giFHBDSAQDg4j/nfvbxpsvyrz0AgIcP69+T8x/51x4AAMCU4giFHBDSAUCxvPPOO4cBAKgFhw4dsg9jAN5qbGy0txkABdPQ0GBvulOKkA4AioWQDgBQKwjpgBiEdEDxEdIBAOKokE5OewIAAIrqz3/+szpa2YcxAG+pkK6+vt7efgAUgNpCCekAAHEI6QAAxUdIByQipAOKjJAOAJCMkA4AUHyEdEAiQjqgyAjpAADJCOkAAMVHSAckIqQDioyQDgCQjJAOAFB8hHRAIkI6oMgI6QAAyQjpAADFR0gHJCKkA4qMkA4AkIyQDgBQfIR0QCJCOqDICOkAAMkI6QAAxUdIByQipAOKjJAOAJCMkA4AUHyEdEAiQjqgyAjpAADJCOkAAMVHSAckIqQDioyQDgCQjJAOAFB8hHRAIkI6oMgI6QAAyQjpAADFR0gHJCKkA4qMkA4AkIyQDgBQfIR0QCJCOqDICOkAAMkI6Zyt27j16uBTKV8OPlm6bKU9GAAwcQjpgESEdECREdIBAJI5hnTzFwfrd87Y1x0cuVjXeUOK/DHy3/U7RwbVrM7zfdfuf6vKpZtD9uDxtu05NPz9/6rStG6DPRgFsLxp7bX7z/R3qsuXg08+v3bvRE/v7oPtdh3UrEzbL2oOIR2QyCGkm/VJ3bzmGQv3zWg4OvPTkx9JkT/kv/KiDLLHLjA5pocP99IG6L396FzvQPupL1atWW/XqUFrmjfruUvThlnU0KjHP9h+yh6MfBHSAQCSZQ3p6hrX1B25OKN7IKbICDKaXbMW3H38g87dhl7/vn7zdnsMQxFCuo5zV+QzS5E2qD2sjLLOr3yD+juqVvqHXu5qOWbXhKus39EEyrT9ouYQ0gGJMoV0s5fVNRyZ2Xjqo5giI8hods1CutQ/FD7Em+Xhy197+u40rmiya9aUFas/03PUeb7PHhyyeftePf7Rk+ftwcgXIR0AIFmmkG5Gy9lwJFe1tJy16xeb2Y5J0/opQkh35vJN9QFufv3aHlZGWec3TUg3XAl0WjtqbHUtrKzf0UTJuv2i5hDSAYlShnQz64PFBxPiObPIyDMTJjn1EkM6Va7d/3bWx7PtyjXlwfNf1LycvzpoDws5cKxLz/u2va32YOSLkA4AkCxbSBdO4mKLXb/YTl3st1py1x88t0cyENLlL+v8miGdNN9b2rqkHGw/deJc74Xr9x++/FUPvf/856Z1G+36yC7rdzRRsm6/qDmEdECiNCHdx4vrlnbYMVxikSpS0Z5WkeiQbuj1P9XhXkprx9kTPb2Xbg49fPWbPjrIccquXFNuDr1WM9J75xt7WEjHuStvF8vvi5csswcjX4R0AIBkaUK6hk8b1R/hGC6+WNULrn/opWrH3Br+TrfzYi6LIKTLX9b5NUO6rgvXrKHrNm69/c3f9AhpfpFGoqzf0UTJuv2i5hDSAYkSQ7qPF9c1dtkBXNrSVeicTod0D1/9Zg8Lgi079+tf5uTQbw+uKVcGvh49zg4lH2fP9d5WIw8++8kehtwR0gEAkiWGdPVz5naev6z+Dsdw8UXV6jx/RSYyNsVCalq3Yej176od09LePfT2F9eY+3dEhnTyh1TftH3v+HETLFi0RKq0tHUdONa1dXfLitWf2WNUMbGBSNO6jbsPth9qP/3XXS2LGuKiVfnAG7fu3nu4Qz7zZ5sc7/w16+PZG7buOth+atfBtpQpZ9b5jQ/pxLa9rfp7v/FVho5X6ZeV0rxlpyyrrbsPzluw0B6WwprmzbKgZHHZA5IsXrJsV0ubvHXKJVxN+vnN+h1NCIftN5LDOqk513X+jpz3G4Ff3cB7fdbSr1cBIR2QQnxIN7M+cOhDZxapXtjrXuNDOnH55lhXO9kH2oPHc9szT0jrSNrMO/YdPnD05MoqT7rQx9k0uZtO9NI3ctLvmSdkfp1bOIFHXbfvNyz9slII6QAAyRJDutaO7jNXbqi/wzFcfFG1pLpMJKhL+PV1zuoZn574aMXFWSsvzfr05EfzmmfYY0ym9jOXRtt2L3+V087rD56r/8ZcSmCFdN0Xrt9+/HedFDx4/qZv8HHio8T2HGqXZpOupcudxz+cvzoYvvP9Z5u2DT79SRf9s7BMwXxdlQPHTlrVtVMXb6hx1N395WNc/2p0llWRKX9+7d7yprVmLTmZl6bhza9fWx/4wYs3N4deHz97xRy5mlkfz+6+cO3W8HfmtSfDlbbm2Su3pL1ljuw5v4khXWA8bWDw2T/sYRVuy0rZsf9I/8MXsnz0yHJuMPDo+/ZTX9ijvrV9b+vbOfpRGpGnL/Wbz0O4//xn+RiJHcQali6XjyRrkflN3fv254v9D5cuW2mPPV7W+fX5jjrP96nX7z75YenyVeYg07Huz/UU1jZvsQc7bb+mTOukxbmuz3eUdb9h8qnrsD5rWderMEI6IFF8SJfpPnTVikzEnm7IlLToEkO6nr67eofTvGWnPbjCbc/s3DoyD6BN6zbubT1+9d5Tcx8rDYDws62OdvaoobIHnjN3vnpRGpytHWdV2Wz8VHzj7Z5WZkG/qLntmZ3n16eF41NXc/t+FbdlZSGkAwAkiw/plq1afebKDf+QTopMamy6IXPWzFh5eZZV5m3Io1WnfDn4RB1irw4+lf92Xbim/vvg+S+6AWQxQ7oL1++Zx2ldBp/8uGXnfrvmW+G7aFnlRE+vVWVT6O74MeVIZ49VXZOzcTWOtN6ktSftvHB1KXsPd5i1bj/+e3gcs1y+9XX8HU82bdujL0uMLNa1G57zmyak0+1XKZFdPt2WVVBJoKqNLOXSzaHIZSXNPj2OtPbCFYcrl+rE/GS9Y99hs+VqFWmbbt190K5jyDq/Pt+RuRF1nKvarNffUbVrlBy2Xy3rOmlyruvzHTnsNzSfum7rs5Z1vQojpAMSxYR0s5fVhRM3txL/vNepatHFh3RyfL/59eit3Mxsy+S8Z3ZuHZkH0NaOs2Y8p4t8Wuv3LfkYeqhuDJw416tfNJ+ufvfJ6BxFtoLc9szO8+vTwvGpqzh/v4rbsrIQ0gEAksWHdG2nzlcL6eq6bn6w/di7DWvembXgD3X179Q3vPvpXz7c2TGj+1ZkSCeTGptuyNKOj0bacM0z6irkD/lv4+mP7PEmx6KGRt0LRj0RcsvO/fpwu/9op12hwswXVPnqxa/XHzzvu/t48NlP+sV73/4ceVXFroNt+nc8+UMO+V/ceCDl2v1ng09Hq4dPmNc0b5YxddFvNPTqN/N1VXYfbLeqa7qpIY0SPe+q69PdkR8YR1se1ZplD1/+OvDou947jy/2P7w6+FQ/aGw49m796zdvN5/VIO8rLWZpyV2991TeVy0NK9TwnN80Id3g0x/157GHVbgtq7buC/qtZWRpOPbe+aZ/6KW+EnO4kmuYVRSzGaqKtNqv3f+2b/CxrEv6Rfkwkc+n27n/qNlwHHzyo3xN0l437753//nPMb82Z51fz+9InzX1D72yBinNW3boLaU76kt0234Vh3VSc67r8x257TcUn7rO67OWdb0KI6QDEsWEdA1H4rrR/Xvd/7FKeBxdZFL21A1T1aKLCenWNm/RV31Kkb+tEQK/PbNz6yj8K5dMof/hC9kty3vpF2Vna9aSo57emet95qW3F/MOV3azemS9l249fka/qLntmZ3n16eF41M38Pt+FbdlZSGkAwAkiwnpFixqUPlaOKSrO3713QUr/1BXHy7vLl8fGdJJkQmOTX285edHfmitmzX637qZdfLfFZcmvUmnSMNFH6E3bt2tXtRnrZ9fuzd+9FFWSCeHeX1p25y58+UMVg+KPO+9cP2+GiqNjG17W62hLW1d0kRLvKOW8/2/dFNDFWlbnLrYv2zlGjVUPn/76YuDz37aF2qWyRu1n/pi/sLF5uvLm9aa8xueHUXaQ3ocacxZt8GSZo20ciJDDS3r/CaGdHtbj+uWrjSL7cEVDsuqfs7cO29/rZXxze5jW3bu16uWDArfSMVqhg48+l7fMGXegoXSGNWDjoZ6DgbGQ9+kXd594ZrZVJX1UDciz1d/SobD/Jqyfkfmj/+RN3PUE5RPEnmDHrftV/FZJ53r+nxHPvsN57o+67PmuV4FhHRACtVCulmfJHSj+3jD+x/M/6OK5+QP+W94HLPIBK230KaqRadDOinX7n+ryo2vnpsBynAl8Ip8mLvPntm5dWSFdNIO0Ud82T3qWzdI2T6+rt7xyp5TvWKGTdKwWb5qrby4ev0m/eLGbXvMKShue2bn+fVp4fjUDfy+X8VtWVkI6QAAyWJCug1/3REZ0tWdvPnOJytGes/Na/xwZ0fQ1juSx7V/+cGO4yOv7DpRLaSTCY5NfbyVl0aadONeqVwfYb4yefTPj3efjP32qF8cfPKjMe4YM6STQ7V1qyw5rdUNJplC+DpK3Vy4MjBsDUovayCimU0N+fC7DrbZYwSB1fYSMXeXb1zRpH/17em7aw8Ogv1HO/U7mhdimBYsWhK+r5wp6/zGh3Qj+cKT0W50lY99xxpBcVhWZrcj1bfLJO+rk8Fw5yOzGSpNSeu2htIK1BdrhBeC+b6RV4+agdfaDRE3dwuc5teU9TtaunyV7o8WueboS3V67zy2h1W4bb+B3zrpXNfzO/LZbzjX9VmfNc/1KiCkA1KoFtLNa54RDtrCJbEPnS4xt5mbqhadGdJVK6cu9kd2s/LcMzu3jsyQ7sHzN9Zt0WSo3ru2n7lkDrrx9i4Q8sGCyq3WzCBSSktbl7y+q6VNf+xwQzRw3TM7z69PC8enruf3q7gtKwshHQAgWUxI19LWGRnSvb/l8B/q6v/0ycq6k/06jxvN77rGrnUNh3QywbGpj7fi0sjFEeYr+TTpgsp933U/+S/6v9KvHz15Xh+Mt+5uMWqMMkO6Lwef2IONG2NFTkGfMFe7zVYaWQMRzWxqxJxXZ3J18KmaYGSY0nv7kRoqLZuYO4bEyzq/ZkgnH6D91BeqnLncL/81W7TSpox8IkHgtKz0L8kPX/4a+TwE3byW97UGmc3QyPRHLwQpVlNS3x8tsgNXUGk+6qtRwrfwUxzm15T1OwrMQO3ZP6yzCHNpHDg2csphcd5+A7910rmu53fks99wruuzPmue61VASAekUC2kW7Q/7lpXXdKHdDJB6y20qWrRpQnphl79plIti+eeOV5M68gM6Xp6b1tDA6N/nPWx5XinXle7072HO9R/9YycvXIrMA6F5gWwJv89c1jM/Pq0cHzqTsj3OyHLipAOAJAsJqTTN6SzQjp1oeuHe7uthC5cVC09kZjb0q0wfndVjbn4Mr62F/0z4/D4G3YsX7VWhziRTTozpNOXG5jMhCh8K5DLt8ZujyJtqZi7YMRwCEQUs6kReQVEvOVNa7ftbZWZOtHT23Xhmio6Arh2/5ldwbj1WMoHbkbKOr/mVxBT5Is+1H7arvyWw7LSzcG+u3YLVZHl9vatf7duWWg2QyOvPTRvuGbd4k3/fD3w6Dt5i3Dp7OnTnQfT9BxMOb+mrN9RMH4bPNh+yhw0lt89/Smy+4Pz9hv4rZPOdT2/I5/9hnNdn/VZ81yvAkI6IIVqIV38Del0SR/SxdyWbqpadDqkk53/3sMdqrS0dR0/e0X2Pw+ejz2TIfycU889s5a1dTTuwRGhhmJg/ARy4fp983X9M/C1+98GlQePqv/qBxpcvTfyGKXuC9fV6+qpSmGee+as8+vTwvGpOyHfr+eyUgjpAADJYkK6rgt9kSHdH2fO/0NdfbgbXbioWnoiMsGxqY9nNtTCDbhwGV/bS0/vbXXElWaNdaGBbmdExg1mSLfvyAl7cKXvvb5OQQ7/1tADx7p0dfXu/UOvevruSgMr8sZbkRwCEUU3NYZC91eOt+tg25eDT/R8RZbIuwXrZ5ad7R1dMRxknd/EkE5mpG/wccwTeAOnZaUfnnDhevQN0Q61n9afwboRm9kMjbyYonFFkx7BbKcuX7VWv56mhH/iVhzm15T1O1J0ZwHzUy1esixxtXHefgO/ddKtrv935LPfcK7rsz5rnutVQEgHpFAtpPu0007ZIkv6kE4maL2FNlUtupgHRwSVWytcfxt4yaH/r7vGelj775kD19aRGdKF7+Am+u6O3mrt8q1xD7s42H5Kva56Rqs7sqlb0Q08+m74bb9mfSvSardndd4zu82vcwsn8Kg7Id9v4LGsTIR0AIBkziFdcOJ6OJVzDulM4QZcuNh1POh04MZXdmNCTr9Hj8evf9cPhdDMkK5ayqN/uQ3fmEP0fDkY2b6Rk2f5MGYLshq3QCQwmhrVroCI1NN3J/xpwyW8JJvWbdRD20+Pu69KJlnn1wzpBh5933v7kSpf9H916uKNo509m6sECqasy6oSzo724Tp1sd8eXLF9b6v+YOrGMZrZDG3eEn0bR/2wNpkL/eKulmO6YpqS+Lt6yvm1ZP2OlJOfX1W1ZNHpm920n/ri7Yu/y1c5vsYo5+3XZ510rjsh35HPfsOhruf6rHmuVwEhHZBCEUI6U7j9Fi52HVfxIZ3YtG2P3puZlyv675mdW0dmSBd5mKsW0jVv2ale/+rFr8Hb50iowO6LGw/UIBnny8En6u8T5yKeYBa47pmd59e5hRN41PX/fhW3ZWUhpAMAJIsJ6eIvd/2vPV3hVC4+pIu53NUUbsCFi13H1Yatu8wDs7TezGIOCrdvzJBuU5V+7/oOF3JubA+rOHD0ZN/gY92qMIu0MuMfERW4BiKB0dSo9kjTMPMmX7Jweu98c/zslUPtp6X1o4p+tFa4WbZu41Zdt/3UF9bQ9LLOb/yDI1LKuqzmL1ysc5DuC9ftwRXmymNdaWs2Qz/btM0cpOmV07yQc2/rcV1RXpfpxJdqF2tknV9L1u9IWbH6M70V6EcT6AfbhX+NV3y2X5910rnuRH1HPvuNrHU912fNc70KCOmAFKqFdHle7moKt9/Cxa7jKjGkC4zfdfqHXuoXPffMPq0j55Cufs5cvRvXE5ElIIOOdX+u/it/3Boe6VU3XOWCj8Bpz+wzv3tcWziBR13P71dzWFZhhHQAgGQxIV21B0d8sLm18mjXpUHHNTuVO3alruNqtZAu5sERpnADLlzsOq66jWc7xBd1dw+TeV4qLQBraFC5pb1uLoQfiWiS0+BdLW1yAnz9wXOzn4u0JiPvw6W5BSKB0dQIN6Gq0TdGefD8TWQHNP2DbeQ0H75tTVqtrkyyzu/EhnSR8xVJ3/1E6trDKlraxi48tB5rYDZDd+4/ag5SFi9Zpkcwb4Zodu+SFrNRIxuH+TVl/Y40/XQCOamQ/0oTXG8Lx7qi832f7TfwWyfd6k7Ud6Q47zeCjHV91mfNc70KCOmAFKqFdHk+OMIUbr+Fi13HVZqQ7tr9Z2qcwac/6Rc998w+rSPnkC4Y/0wJ9Yfq2a1bPp9fu6f33uHu5IrDntlnfp1bOIFHXc/vV3NYVmGEdACAZDEh3Ya/7ogM6eq6bv3pk+V/qKv/Y33DB9vagrZeeeXPRy6+v/nQO/+z6N0FY099VbX0RGSCY1OvLtyACxe7jivd1Bh6/c8Hz38JF/1DpfzRsHS5WdcM6SJDBLNZEHk/4Ehbdu7XDa/h6l36FedAJGtTY8GiJfpMvlrgOPDo+5hp6pkKNzTTyzq/UxXS3Ux6qkD7mUv6g1l3UjOboZGrzcatu/UI1m/juudmpuTI4jC/pqzfkSbzoudr6+6DZy73q79lpuYvXGyPXeGz/QZ+66Rz3Qn5jsIy7TcsiXV91mfNc70KCOmAFKqFdPOaZ4SDtnBJH9LJBK23iBRuv4WLXcdVmpDu6r3RB48+fDlylajmvGf2bB35hHQ6C9PT11d1qBuJDjz6Tn22By/ejK86Juue2XN+fVo4PnWdv19T1mUViZAOAJAsJqRbsKghMqQbSd/aev/0ychFr+HyXtPWuq5bkSGdTHBs6tWFG3DhYtdxsrxp7PmP1mOzNLNX/+ET58xBZkh3ZcBuPIn202Mnrtuj7gdcTZobPCn68V6DT360h8XK2tRYu2GL/kjhC+LERuNWL5HT1Jc/fPXi1/i71MfIOr9TFdL13hmd2fvPf44MmPTSePDcbjqbzdDwE+iENIv1CM1bdpqDdJiSNSAzOcyvKet3ZLr7+AdV9/Nr9+4Yf9vjVXhuv4HfOulcd0K+o0jp9xth8XV91mfNc70KCOmAFKqFdLM+qQsHbWaZvfH9Dz95R4V08of8NzyOWWSC1ltECrffwsWu4ypNSKef4Dn47Cfzdec9s2fryCek0ztVVdSTIhS901Zl4NFI//RIWffMnvPr08Lxqev8/ZqyLqtIhHQAgGQxIV1g3JZO/de8srWu69YHm1vfXbDyjzPnSnln7tJ/X7Xlvw6cMcdRtdQUUt6QLsixSadvSz9c/T5Ky1eNBQFWC8kM6R6+/HXp8lXmUNH/8IUaKm3BeQsWWkNjbN3doqdc7TYiypHOHjWafMjwB4iRtalR+e10dDlYFyAo+lrFatPUN0kZrn7RXFC5yNF+yZB1fqcqpNOPQRgOPZ5MrGnerBdm+P7EZjP0wYs3i5css0bQbc3Bpz/Wz5lrDjp1cbT3mZTWjrPmIEt4sprD/Jqyfkem05fGPr8ukU8zCLy338BvnXSuOyHfUaT0+42w+Lo+67PmuV4FhHRACtVCuiDptnQqnjNLeBxdUt6QLsixRRekCOnMPr/WEzyd98yerSOfkO742Su67vD43a/+tUyV3tuPjHrjZN0ze86vTwvHp67z92vKuqwiEdIBAJLFh3TLVq2uFtKlKaqWmoJMamy6scINuHCx6zjRvzRKgyN8KZzWP/RSjXb/+c/m3ZrMkG64cm9789Cunyw5XOVu6zeHXl+6ORTuYTdvwUJ9z5ShV781rmiyRjDt2H9Ev8vF/oeRnVwiOTQ1dM+mwSc/Lm9aq1+fM3d+T99d87ZW1aapl6SM/Pm1e1ZwubZ5y5eDT2SxmC9ass7vVIV0ixoa7307eiOYB8/f7Go5pgetWrNetyOHo+6rYjZDhys3U5M2sR4qi1oP6uyxrzSRBaI7oz14/suxrs+tEWQFbj1+5tr9b83b8Vgc5teU9TsyrV6/Sbf+VYn50dtz+7WGOqyTbnU9vyOf/YZzXZ/1WfNcrwJCOiCFmJBu9rKEznTpi0zKnnoV4fZbuNh1XEWGdLJHXdO8edfBNtn7mceXI509RlWvPbNP68gnpDOfhzA8/unb5oFYyrne0QZ5mMOe2Wd+fVo4PnV9vl/NYVmFEdIBAJLFh3SitaPbP6STiYxNMUm4ARcudp3s5ID94MUbdbi9Hnu41ffYkiJNBP26FdINVx7KLufqchS/8fZWWao1ENmfaPDp6DUXA4++u3xz6PSl/hM9vT19d6R9oOtWuwOUVj9nrnkzqfvPf+5/+OLLwSeqSCvNrvCWQ1PDjB3ljaQ91Hm+T+bX/ADx05QlZjaR7z75QRqdMln5MNfuP1NfRzjUMGWd36kK6YLxzzSQE4beO4/ly5VTCHWnGFUin2ZgNUOl3H78d7Ve6VRouDLvixoa7cpB0NLebda9+fXrL/q/knVYvi9ZRPrd7307dl2MxW1+tazfkUXfZEcV2SjsMSr8t1/FZ510ruvzHfnsN3zqOq/Pmud6FRDSASnEhHRi8cG4znQpi0zEnm514fZbuNh1XOmQbrjy440q+hWzRPYsc94z+7SOfEI688bHw+OfYDZn7vyHL3/Vg2KeQu6wZ/aZX58Wjk/dwOP71RyWVRghHQAgWWJIJ6fcnedHn4UUjuHii6ol1a1u50Vw4FiXPlSbPz+GmT9InjeuazNDuquDo7citsqD528i79kRGCfM1Yo0d5atXGNXC9l/tLNaM9T6odjk0NSYt2ChnNuH30UVadZIqzdxmi1tXWYiEC6RoYYp0/xOYUg3f+Fiaf+FP6Qu0qZct3GrXW18M1T3b7KKtEHDeZN2rOu8vkdytTKpzdBM35HlUPtpPfLQq9+Wr1prj1Hhv/1qPuukc13n78hnv+FT13l91vzXK0I6IFF8SDezPljaYYdumYpUnxk97alnhnTVysNXv124ft/sgWVy2zP7tI58QrrAeB6CHHOtmTJ/LZ7YPs4+8+vTwvGpq7h9v5rDsgojpAMAJEsM6UTDp6M/SYVjuPhiVS+Unr47+pC8bU/c7M/6ePb9t8+wNy++27Jzv3px6PXvq9asl9ahfpSkKgOPvtdP2grrPN8nh3mriirShjhzuT+y/10k+SQX+x/eefzDgxdvzAsNYu67oa8LyNTUWL5qrbRuzbcY+bQv3kgjcvX6TSmn2bii6dLNIfM3XlWkidl755tdB9vsCiHp53dt8xY9tNpjyBKlnK9I0iLUK48ucpIg05wzd749doXZDF3etFYau1bgdWv4O+uOyGFN6zb23nn8MGrtGnz6k3yJ5k/uFp/51dJ/RxZZLHp+rXsGmfy3X5PPOulc1+078tlv+NRVHNZnzX+9IqQDEsWHdOLjxXWNXXb0lrZ0fSTV7SkWhhx0wjs3OQDJXmvg0XdXB5+e7R1YlfScH7c9s3PraMPWXXp8abFYQ4UOvKSRaQ+LfR5CT+9tPeWYfXvMZ4vhPL8+LRyfuprb96vEzFd6hHQAgGRpQjotHMPFF7t+2S1YtGTfkRMnenpbj59pWrfBHhxlUUPjrpZjRzp75PxZKh4+cW7b3taY29YWwZrmzS1tXSfO9bafvrRl5/7wfb5Sat6yQxaUzPXxs5dluSU2nWvXuo1bD7Wfljk9evK8LLH4jqVmM1Q1rGV9OHD0pFqvMi0l+Wo2btsjK1VnT58sZPnWYlLjgpAPqWc//JjRyeazTrrVdfuOfPYbPnWVTOvzBCKkAxIlhnRBJadz6E8nVYqc0E0stz3zRLWOaoXD/Pq0cHzqWty+3wlBSAcASJYtpGs5G07iqpaWhC4zAMLCzdBpRd+TbvDpT2la/Jg+COmARGlCuqBy3Wum+9PJyIW9yhU1xKeF41O3OAjpAADJMoV0oq5xTd2Ri3YeN77ICDKaXRNACuVohrrZd7hDXz5z5vJNezCmN0I6IFHKkE6Zvayu4UhCVCcjpH+WKxDPp4XjU7c4COkAAMmyhnSj5i8O1u+csa87OHKxrvOGFPlj5L/rd44MAuCqHM3Q9OYvXLxh664d+4+cvzo4dg/sV7+lvGAc0wchHZAoU0inzPqkbl7zjIX7ZjQcnfnpyY+kyB/yX3lRBtljAx58Wjg+dYuDkA4AkMwxpAMwOcrRDE3vSGePnl9dOnscn/KBEiOkAxI5hHRAbnxaOD51i4OQDgCQjJAOKJRyNEPTC4d0XReu2SMBhHRACoR0KDKfFo5P3eIgpAMAJCOkAwpl49bdfXcfS+m983j+wvJfPL5j32E1v5dvfX3iXO+m7XvtMYAKQjogESEdisynheNTtzgI6QAAyQjpAADFR0gHJCKkA4qMkA4AkIyQDgBQfIR0QCJCOqDICOkAAMkI6QAAxUdIByQipAOKjJAOAJCMkA4AUHyEdEAiQjqgyAjpAADJCOkAAMVHSAckIqQDioyQDgCQjJAOAFB8hHRAIkI6oMgI6QAAyQjpAADFR0gHJCKkA4qMkA4AkIyQDgBQfIR0QCJCOqDICOkAAMkI6QAAxUdIByQipAOKjJAOAJBMhXQAABQfIR0QQ0UAAIqMkA4AEIeQDgBQKwjpgBiEdEDxEdIBAADk7f36pv+Yudh+FQAAILXZqwP7JWBCEdIBAIDyW9jxy/zWl/arAAAA6XxY/976K0v+86P/sAcAE4eQDgAAlNz79atXDfxr5a3/R2c6AADgpvHo3PW9S5YcqLcHABOHkA4AAJTcwo5fVg38Swqd6QAAgIORbnS9S0YKnekwmQjpAABAmaludKrQmQ4AADhQ3ehUoTMdJg8hHQAAKDPdjY7OdAAAwMFYNzo602GSEdIBAIDSMrvR0ZkOAAA4MLvR0ZkOk4qQDgAAlJbVjY7OdAAAIBO7Gx2d6TCZCOkAAEA5hbvR0ZkOAABkEu5GR2c6TB5COgAAUE6R3ejoTAcAAFKK7kZHZzpMGkI6AABQQtW60alCZzoAAJCoWjc6VehMhwlHSAcAAEoophudKnSmAwAAMeK60alCZzpMNEI6AABQNvHd6FShMx0AAIgR341OFTrTYWIR0gEAgLJJ7EanCp3pAABApORudKrQmQ4TipAOAACUSppudKrQmQ4AAERK041OFTrTYQIR0gEAgFJJ2Y1OFTrTAQAAS9pudKrQmQ4Th5AOAACUR/pudKrQmQ4AAFjSd6NThc50mCiEdAAAoDwydaNThc50AABAy9aNThU602GCENIBAICSyNqNThU60wEAAC1rNzpV6EyHCUFIBwAASsKhG50qdKYDAAD/160bnSp0psNEIKQDAABl4NaNThU60wEAgP/r2o1OFTrTwR8hHQAAKAPnbnSq0JkOAIBpzr0bnSp0poM3QjoAAFDzfLrRqUJnOgAApjmfbnSq0JkOngjpAABAzfPsRqcKnekAAJi2fLvRqUJnOvghpAMAADXv3f+ujyn1O26vGviX/BseZJZ/+3C2PV0AAICKOX+Zsb53ifxrDwAmDiEdAAAouY83XV418C/51x4AAACQDiEdckBIBwAASo6QDgAAeCKkQw4I6QAAQMkR0gEAAE8f1r835y8z5F97ADBxCOkAAEDJEdIBAACg+AjpAABAyRHSAQAAoPgI6QAAQMkR0gEAAKD4COkAAEDJEdIBAABP3JMOOSCkAwAAJUdIBwAAPPF0V+SAkA4AAJQcIR0AAPBESIccENIBAICSI6QDAACeCOmQA0I6AABQcoR0AADAEyEdckBIBwAASo6QDgAAeCKkQw4I6QAAQMkR0gEAAE+EdMgBIR0AACg5QjoAAOCJkA45IKQDAAAlR0gHAAA8EdIhB4R0AACg5AjpAACAJ0I65ICQDgAAlBwhHQAA8ERIhxwQ0gEAgJIjpAMAAJ4I6ZADQjoAAFByhHQAAMDTh/XvzfnLDPnXHgBMHEI6AABQcoR0AAAAKD5COgAAUHKEdAAAACg+QjoAAFByhHQAAAAoPkI6AABQcoR0AADAE/ekQw4I6QAAQMkR0gEAAE883RU5IKQDAAAlR0gHAAA8EdIhB4R0AACg5AjpAACAJ0I65ICQDgAAlBwhHQAA8ERIhxwQ0gEAgJIjpAMAAJ4I6ZADQjoAAFByhHQAAMATIR1yQEgHAABKjpAOAAB4IqRDDgjpAABAyRHSAQAAT4R0yAEhHQAAKDlCOgAA4ImQDjkgpAMAACVHSAcAADwR0iEHhHQAAKDkCOkAAIAnQjrkgJAOAACUHCEdAADw9GH9e3P+MkP+tQcAE4eQDgAAlBwhHQAAAIqPkA4AAJQcIR0AAACKj5AOAACUHCEdAAAAio+QDgAAlBwhHQAA8MQ96ZADQjoAAFByhHQAAMATT3dFDgjpAABAyRHSAQAAT4R0yAEhHQAAKDlCOgAA4ImQDjkgpAMAACVHSAcAADwR0iEHhHQAAKDkCOkAAIAnQjrkgJAOAACUHCEdAADwREiHHBDSAQCAkiOkAwAAngjpkANCOgAAUHKEdAAAwBMhHXJASAcAAEqOkA4AAHgipEMOCOkAAEDJEdIBAABPhHTIASEdAAAoOUI6AADgiZAOOSCkAwAAJUdIBwAAPH1Y/96cv8yQf+0BwMQhpAMAACVHSAcAAIDiI6QDAAAlR0gHAACA4iOkAwAAJUdIBwAAgOIjpAMAACVHSAcAADxxTzrkgJAOAACUHCEdAADwxNNdkQNCOgAAUHKEdAAAwBMhHXJASAcAAEqOkA4AAHgipEMOCOkAAEDJEdIBAABPhHTIASEdAAAoOUI6AADgiZAO/7+9e2+K4lj8P/50TpWXaGLUxF1ONAFUbhLughdAEUQUDYoKCAjeQAMKAQURVxBEUYOXJCfJSYxJfR/Rr87fv2Yb2qZnd5mdWWdnl/eruiyY7p6dG1uZT3qmPUBIBwAA0hwhHQAAcImQDh4gpAMAAGmOkA4AALhESAcPENIBAIA0R0gHAABcIqSDBwjpAABAmiOkAwAALhHSwQOEdAAAIM0R0gEAAJcI6eABQjoAAJDmCOkAAIBLhHTwACEdAABIc4R0AADApe2ZW7IOZYh/zQogcQjpAABAmiOkAwAAgP8R0gEAgDRHSAcAAAD/I6QDAABpjpAOAAAA/kdIBwAA0hwhHQAAcIl30sEDhHQAACDNEdIBAACXmN0VHiCkAwAAaY6QDgAAuERIBw8Q0gEAgDRHSAcAAFwipIMHCOkAAECa25p9cNeR2+JfswIAAMAeQjp4gJAOgN9t2LDhPAAAQLKdO3fO/M8UAGsGIR08QEgHwO8I6QAAgB8Q0gFrGSEdPEBIB8DvZEgn/rM4AAAAkAw7duwgpAPWOEI6eICQDoDfEdIBAIDkIqQDQEgHDxDSAfA7QjoAAJBchHQACOngAUI6AH5HSAcAAJKLkA4AIR08QEgHwO8I6QAAQHIR0gEgpIMHCOkA+B0hHQAASC5COgDbM7dkHcoQ/5oVQOIQ0gHwO0I6AACQXIR0AAAPENIB8DtCOgAAkFyEdAAADxDSAfA7QjoAAJBchHQAAA8Q0gHwO0I6AACQXIR0AHgnHTxASAfA7wjpAABAchHSAWB2V3iAkA6A3xHSAQCA5CKkA0BIBw8Q0gHwO0I6AACQXIR0AAjp4AFCOgB+R0jn2IHa+pHQC1F+CD0vLC4zq4GU4vJ6buvpH3/y1loudPeZTQHAgpAOACEdPEBIB8DvHIZ0e/IDh09knO4NXBgIdt8TRfyw+OvhE4tVKau7f3h06kdZBsdnzeqVGk6dm/v5/2SpOFBjViOp+kdCQw+eyjIwNpOZlW22CGtp71HNjjW1mNVricvruffWXdVdLz23Rs2miVNSUTU69VL9zaryQ+j5zdFHXX1DJ892mH2QsuL6fkbKIaQDQEgHDxDSAfC7eEO6YFFl8MJARu9EjCIaiGZmz1TwcP5XFS7Mvv3n8NHjZguNy1AjITpv3BHbLMrQg6dmXTqyv7+PfvxDj4raem6aLcKuDIypNuc6rprVyWZ/f91zeT13XB2QmyqL+PORq/qoIZ34C9XPcsQyNvu6qaXN7AmnvLwmDXF9PyPlENIBIKSDBwjpAPhdXCFdRst1ayQXtbRcN/v729HjzcbtfXf/sNlI4zLUSIhrt8flBow/eWvWpSP7+2uEdBNPfzZbhPk8pLO/v+4l9np+MP8fuaqkh3Rz4UCntTPFvo58y8trUhfv9zNSDiEdAEI6eICQDoDfxRfSWZO4mMXs7296XiPL3ekFs5EmsaGGM8m6YU4W+/trhHSitF66ZjYipNMk9nr2PqQbHJttae8R5WzHla4bQ7fuTs28/kvVTi38UXGg1uyP+Hl5Teri/X5GyiGkA0BIBw8Q0gHwOzshXcG3RfIHawwXuxjdfW5s9rW897s/95P8Yfbt30WlFWa7ZYkNNZxJ1g1zstjfX2tINz4boQshnZLY69n7kM76QQdq6x88+0U16B8JGQ3ggJfXpC7e72ekHEI6AIR08AAhHQC/WzWky8zK7u6/LX+2xnCxi+zV3X8n2mv7/aPiQI16i1ZLR+/sm/fy54uX+82myyKGGuIH0f3I8eaVbVeRk7dPdGlp7/muraf+ZEvp/oNmiygSe8NccaD25NmOcx1XjzW15BXEilbFBtfWn2w+3ym2+eARh2+G2rnr65r6prMdV5rOtttMhezvrzWkE+X0hS6jWVwhXf6+4qaWdrHLNrdWScr5jfccJfB6DrgL6ewf59ghndDQ3Kr+ru89jmPglf2/Bam67oTY4PqTZ3fn5Jp1NlRWHxV/COLPwaxYjf1jFZv9/XVzTTrm4Ps5IgffOYrjvo7PkePvjYC7vgHX17Ni/7oKENIBIKSDJwjpAPjdqiFda2fvtTv35M/WGC52kb1Ed7GSQDD4YaWRZO3P+Lbrq9KBnWWDO7+9/NXu6gyzxcfUcW1Q3vXNvP5L3JbcnV6Qvw5NPjObLjNCjd5bdx/M/0fdSU4vvBsOzZdXHja7rXTqXMe9xwuqlyqT87/2j4Ssb0Y/eKQh9OJ3VdQDfWIN+nJZvmu7bHRXrgzck23k29/FZtx9vLTLsog13xx9VFJRpfcSN3viFl3cnBsbPP3q3fjs20vX7+iNoxH3ur23Ru/P/TSzfKctS+jl79fv3K+sPqo3dry/KqR7OP+rGoNjfT7OTkhXUFgiDsWkNhmCKGL9A2MzhcVlZuuVvD+/js9RQq5nxUFI5+A4rxrSBbTZBkIv/2vWhTn7W5Aaz1wYm3kljq1qPPv274mnP3dc+d5suux4c+vyGfwtf1/x1cExfT6EqYU/xGasOkDMwbFS4t1fN9dkd/+wXP7w+a+FJeV6la6t96ZaQ1V1nVnt6PtZF9d3jsFxXzfnKN7vDZ2bvg6uZyXe68qKkA4AIR08QEgHwO9ih3TF5fuv3bnnPqQTRazqw3otsiozym7vNMruGu9yuh9Cz+WNxEjohfhV3PDLX6cX/szK3mO2DtNDjVt3H+l3I6qEnv9Wd+KM2XOZ9S1LRunqGzK6HLG8PT1GudDdZ3RXxN2abCNu5y5294k7MWt3UZrPd+q9VPISrdy+/yR/X7HexXCk4ZSKzCIW46FUx/urh3QtHb2qzYkzF7XVrx7SNZ4+r2coRhH3vfUnz5p9liXl/Do+R+6vZ128IZ2z42wnpLunJQURh/Q6+1sIhBOoaI1FGRyfjXicT53rUG1ujkY+zg+e/RJj8KOzY6XEu79urkn9ouq8ETUgVudI7LhZF+bg+1mJ9ztH57ivm3Pk4HtDcdPX2fWsxHtdWRHSAdieuSXrUIb416wAEoeQDoDfxQ7p2q/0Rwvpgj3j2463bS6o3LAz51/BzA2ZBZu/PbT9RGdG7/2IIZ1Y1Yf1WhR2frWYylVnBMPED+LXoqtfme0+jryCIjVKQs4YWHfijLqpOHOx2+wQpt9/yvL41V93pxeGH86HXv6uFj768Y+cvH1m50Cg6Wy7GuwgfhA3Nt/fmxZldOpl6MVSd+sNVWX1UdFSFfVBs2/e68tlOXm2w+iuqBsqcbuo9l0OjXm4OPRj6f4qWkg38/qviac/DU3OD4zNiNtmcassl89FGq2mHD56XH+Xv/jc8Sdvb99/MvLohfhceTSMm17H+6uHdOJXsbXyV3G3/2Htq4V0J85c1G81Q89/E7s89OCp/qazqYU/Io57Stb5dXyOXF7PhrhCOsfH2U5IF3rxm2wgrjezLszZ30J77y310aKx2NShyWdjs6/Vk5hz4VxD7yLpIZ0s06/ejU79OBya15/RFhuzc9fXZmcXx0qJd39dXpPib1y2H5t9Y1RJ1XWN6i+lN9JJdPb9LDn4zlEc93Vzjpx9b0hu+jq+npV4rysrQjoAgAcI6QD4XYyQLievQOZr1pAueGlkc07Zv4KZ1rK55HDEkE4UscIPa1+ppH9x6Fxw59KvwX8Hxa+lgx6FdK2Xrqn7kNr6k3Khuqu5OfpoZfMlRqgh7mrUo09Z2XvEHY6qinhfdOvulKwVt+gNza1GbUt7j7izWvWNS47fD6VuqGQRd1BXBsaKyyplrdj+jqsD4m78tCWkEx/UceX7Pbn5+vKSiip9f627I4k7VdVmJPTCeE2SuHkT93IRb3oV+/trhHQXu/uW9/QffSxY7JBObMxSrzfve2+N6qGJOKfqtjPijATJOr+Oz5HL69kQV0jn+DivGtI1t15SscXYzCuzOszB30JmVvbk8jgp0V4fPiauLvXVIaqsr5kzQrqJpz+rV5XtzskdDn34G7kYaaSk42OlONhfXbzXZNeNIfVZEV9uqFYotqQs0vPUzr6fJTffOY77ujlHbr43HPd1cz0rLq+rACEdAMAThHQA/C5GSFdzrDFiSBe8PL5hb+ni6LndRdtPdAbahxbzuI4ftjVeWlzS1BUtpBMr/LD2lcoGF0O6FUvCT7zqSz6ewfFZeV/x8PlioGMsDD3/TWv7gR5qiBsS41VK4rZHjZsQa7A+Z6du5O5MzBlV9sV7w6zoN1Ri45vOtpstAgEj5RFivH28qLRiamEpF+sbfmhWBwJnLnarT5QvLbLKydsX8T1riv39NUI6cZ+s7kL1Ax4jpNOHlkR8Uk8PF6pqzBdpJev8Oj5HLq9ng/2Qzs1xjh3SLeYLz5eG0c0t7vKk0UBy8Legb7Mc26UTn6uSQevgIz2km33z3njNX1b2HvWYpPWkuzlWioP91cV7TRaWlKvxaNarThDfurJ2aHLerAtz9v0ccPed47ivy3Pk5nvDcV8317Pi8roKENIBADxBSAfA72KEdC3t3RFDus/rzv8rmLlxb1nw8pjK45byu54Pz7paQzqxwg9rX6l0cPFxV32JZyHdzl1fq0Dn+7HHavnFy/3qlqP+ZIvWY4keahgPUUrqxUkR16BuqKK9hsmOeG+YFf2GKsZ9V1xGQi/kCiPebIsbXVkr7t9ivG8rNvv7a4R0QsfVpXfPiw2orjshF8YI6dS7qCIOlgmEbzjVM6TW18Ml9/xGE+McubyeDfZDOjfHWQ/pxAXWceV7Wa7dHhO/qiFLc+GnCyPOSBBw9LegxhXOvP4r4nwI95ZfsiY+16jSQ7qI6Y866aIYIY6bY6U42F+dg2vyQ6D28r9GvKsfje/aevQqyfH3c8Ddd47jvi7PkZvvDcd93VzPisvrKkBIB4B30sEThHQA/C5GSKdeSGeEdPJB1+3NvUZCZy2yl1pJjNfSlWoj6YzpIyKWlb1daWppV7cWrZeuqeUl5VXqJl/cl2o9luihRsfVAbN6ZYKgr1m6ff+Jqr1+537E9xOtysENs6TfUNU2nDKrV1NSUdXQ3Cp2qqtvqOfWqCzqFnF06qXZQXs1lc0JGSOyv7/WkG53Tq56bmtgbEYujBHSqUFnE09/ErtpLd19w2qglnWUVnLPbyD+c+TyejbYD+ncHGd9k2IU8YdsfZZZcfC3oIKY4Ydm1imJzV7+6H+MV/jpsVTEZw/1F64Zr3hzc6wUB/urc3BN6t+xZzuu6FUf8rsXv0d8B5/j7+eAu+8cx31dniM33xuO+7q5nhWX11WAkA4As7vCE4R0APwuRkjXc2s4Yki3/t97/hXMtA6jsxbZS61ErPDD2lfSozdrJGctK3u70jf0YPn24+/C4jK9SiUaEW9H9VDj9IUuszr85Jp6SkjcmBm137X1qO7y08dm3/QNP7zY3RfxxUwRObhhltQN1WyUt+lH03S2/YfQc7VfEUvEeQmmX72TtdeHli4MB+zvrzWkC4SnL5QLxV7LF65FC+lKyquMnYpdrAPTknh+nZ0jl9ezwWZI5/I4rxrSiQ0eDs3HnpHWwd+Cmjzh1t3IL0QT15LaBuNFbHpIF/GRwKLSCtVAT/FcHivFwf7qnF2T6llpfavy9xWv+rXg+Ps54O47x1lf9+fIzfeG475urmfF5XUVIKQDQEgHTxDSAfA7xyFdoOuuNZVzHNLprJGctZh9XFB3j/cem7GFuD1bvtv5R71EX9FDjWgpwPTC0p1exJcx9f0QipikiJsrsTHHmiI/w6VzdsMc0G6oJrUMa1V9w5PWrbUW65GsOFCrajuuDhq19tnf34ghXf6+YjXOpT/81vZoIV1TS5u+R6uWkdAL1VdJyvl1fI7cX886myGdy+Osh3QTT38eevBUlu/HHl8ZuHexu+9olEBBF+/fQjisXBrDJa4fszrseHOr2rCW9hVPceohXXVd5Nd0qik1xV6ohS6PlRLv/hocXJPC5Zsjspc4dOq1iR1Xvl9e+I84lSt7LHH8/ezmO8dx34ScIzffGw76uryeFZfXVYCQDgAhHTxBSAfA72KEdLEfd/3iVI81lYsd0sV43FVnjeSsxezjVE19k3Enoxe9quuGOaOlHmocifJ0j3r3kLh3MuvCvrt4eTg0r+7J9TLz5n2MifAkZzfMAe2GKtqUl1b6S6DEwRmafHbp+p1zHVfFfaksamJK6+30gdp61VfcmRu19tnf34ghnXB1cCmVe/zqr5KKqmghXXPrJbVcfOipcx2xS7THuzw+v27OUUKuZ8VmSOfyOMeeOMKmeP8W9uTmqxyk99ZdszpMP5jGk7antJDu4JEGvUpRXz76g5wuj5US7/4a4r0mpdL9B9VfgZqa4O700pvOrOM6JTffz26+cxz3TdQ5cvO9EW9fl9ez4vK6ChDSASCkgycI6QD4XYyQLtrEEduOtoandi0MdI6aqVzbnWDnSLSQLsbEETprJGctZh+nerV34ccuI4/MIQ/6fYu4NzNqA+FXnqs7SeuUeTpxm9TU0i5ukMTNqj4O4sGzXyK+p0lxdsMc0G6orGFNNOrd4dML7yIOUPoh9DzGOmeWbxr13CFe9vc3WkhXXFb54UG2O/ejhXT6UJpL1yNM0RgXz86vm3OUwOs5YDukc3mcExvSWY9JNMZ4TKuW9g8PHhrTGpzSQroTZy7qVVL+vmLVQH85oMtjpTjYX12816SiZie4P/eT+PXgkQb1t9DWE/n/37j5fg64+85x1jdR50hy/L0RiLOvm+tZcXldBQjpABDSwROEdAD8LkZIV3OsMWJIF+y5v3Fvyb+CmeszC7Y1tAfah8SSHRcGPj96bsM3eZtzPsz6KnuplYgVflh7dNZIzlrMPk6pUGP27d/TC39aixqPIH4oKCzR++qhRsSbTP2GbdUX7St1J86oJ7zmoj8QJzm+YY73hionb9+H95FFCWgmnv4cY51qp27ff2LW2WZ/f6OFdAHtgdDphXc3lp+Ym7OMEFGjxuK6S1/Vxzu/Ls9RYq9ntY/RHqBT3BznZIV046vNKtBxbWkqYVGMN6npIV3Ew1hbf1I1MF4O6OZYKQ72VxfXNakT+6L2q/7k2Wu3l/JxsVN7cvPN1mFuvp8D7r5zHPdNyDmyiut7w7BqXzfXs+LyugoQ0gEgpIMnCOkA+F2MkC4nryBiSLeYvrUPbdy7+NCrtWypqA/23I8Y0okVflh7dNZIzlrMPo6UVHyYH/DW3SmzOkx/fvB81w29Sg817kxEuJHruPrhxuZ4c6tZHZ2dFwBJPcsjTULPfzPrYor3hqqqpk5tkvWBKaG24ZQ6mBHXqR60fPzqr9hvMY/B/v7GCOkqDtSoYTKhl/9V+2WEdOrGNd4wYlUf6fy6PEeJvZ5VvHJzNPKr6BU3xzlZId3Q5NLFPLXwR8SASV3t0wvvjCo9pFOzDOvU9CZzi3nKCb3KzbFSHOyvLq5r0iD+GGVfcVVMaj+b7cJcfj8H3H3nOO6bkHMUkf3vDavYfd1cz4rL6ypASAeAkA6eIKQD4HcxQrqA9lo6+av+ZGuw5/62o62bc8rW/ztblA3ZhZ+W133x3TW9jewl12DzhXQBD0M69dryOUtAo5SUf7hRNIZU6KHGzOu/CkvK9VphbOaVrA29/H13Tq5RG0P9yRa15ojzbCoXuvtkM7GR1g2IId4bqvAoraXjoD+Cp6hn2aKts633pmoQ7aGqQPghOHORxv7+xgjphJujj9TGqGJcA/qTsK2d1/UqQ/6+YnNRTB/p/Lo8R4m9ngfHZ2XjB89+MetWcnOckxXSqWkQ5lZOwCpVVh9VJ8I6M4Ae0k2/emfdKZXyhF78lpmVrVe5OVaKg/3VxXVNGtQbIfUScTaDgOvv54C77xzHfRNyjiKy/71hFbuvm+tZcXldBQjpABDSwROEdAD8LnZIV1y+P1pIZ6fIXnINYlUf1huTNZKzFrOPI2r4gLgDsT4qpYzNvpbNphb+0N/mo4cac+F3n+s3XWrmwbkob+Men307OD5rHZG0Oyd3dOrl0oa9eV9UWmE00DWeuaA+ZWBsJuIgiIgc3FCpkS+h57+VVFSp5VnZe/qGH+qvPYq2TnUkReObo4+MoKequu6H0HNxWPSFBvv7GzukC78Pa+m2UxUjCBArVwN/phf+bOu5qdcGwu9oa710bXTqx9CL342qQJLOr5tz5PJ6Nly6fke1v37nvvU1WIqb45yskC6voEhdYNML75pa2lRVeeVhlbLNRXrrnB7SzYVfppaTt0/VitOkqrr7zGeW3RwrxcH+6uK9JnX7Dx8x/u5iDDdz+f1s1Dr4znHW1+U5cvO94bivm+tZcXldBQjpABDSwROEdAD8LnZIJ7R29roP6cRKPqxxNdZIzlrMPvETt1JqAoG7MW8q1DuYRBE32Gq5EWqIMjn/q7iXE/cq6lm/ufB9WsTxJqEXv8kGE09/uj0+e3VwrKtvqG94Uty5qb7R3hCkZGZl6y8bErepYzOvxK2jLOJ22uywzMENlR7TiA/qG37Y3T8s9lffgNjrFEdMv0V/+PzX2/efiNWKjRH3kPJ0WG96dfb3N3ZIF9CGeqliHa3T0tGrNxA3q9+PPRbXg9h38XGhl0tnSnyW0TGQpPPr5hy5vJ4Nu3NyQ8+XjsBir1fvJp7+LA6FKNa31Dk+zskK6QIr5zSYefN+aHJenNzBsVm1tXNRZjMwQjpRHsz/Rx5nlQrNhU9fXkGR2dnFsVKc7a8S7zVp+GF56hJZxB+F2SLM/fez5OY7x3FfN+fIzfeGm76Or2fF5XUVIKQDQEgHTxDSAfC7VUM6cUvW3b80S501hotdZC/R3Xhoyw++a+tR9x7W1ECnjxzRn3vSQ42R0Av1s16mF95FfDtYQLuhilbEnXBxWaXZzeLMxW7roDBZLnT3ma2XObih2p2TK+79rJ8ii7jhHHrwdNV1trT36HeM1hLxpldnc39XDemOHG/WR5bNRQrphLaefvUm+Ggl9s12tPIxzq+bc+TyerY6faFLtLeuRNz5m02dHuckhnR7cvO/H3ts3UhVxmZfH6itN7utDOnU+CajTC38Yc2bFGfHSnG2v7q4rkmD+CtTjWffvC8przJbhLn/flbcfOc47uv4HLn53nDT1/H1rLi/rgjpABDSwQOEdAD8btWQTij4dmlAhzWGi12M7r6ipvgUpeFUrN3fuetrcc8sW+oPZ9WdOCMXzr79p7zy8ODYrJpqUJaJpz8faTilrWmF7v5hcTNjdJFF3N1duz1mZ7ySJLZkYGxmcv7X6Vfv9OApxhuR1FN1cd1QiTvqW3enjGxLfOjww/n9h4/YXGdRacXg+OzM67+MvRa3/UOTz5rOtpsdLOzsr7q1fjD/H63rCvo72uYivU9dqjhQOzQ5r+aa0Iv4FHFAmlsvmX2Sd34dnyOX13NEVTV1t8dnHzz7Rc90Is6WEHB0nKuq61SbaBParirGMVlVW0+/+nJQReyCWGdW9h6zdZge0pVUVA09eGoEXvfnfjLmi7BycKwUN/urxHVN6sRhUfsrdsGsXub++1nn5jvHcV9n58jN94abvpKD61lxf10R0gHYnrkl61CG+NesABKHkA6A39kJ6RRrDBe7mP3TXU7evtMXurr6hlovXas4UGNWR5JXUNTU0nahu0/cX4mO57tuNDS3xvtCcY9VVh9tae/pujHUcXVQ3Ktb3wNlU3VdozhQYq8vXb8tjlt5PFMoek/sZm3DKXGCuvuGxQaLI2AnsUrW+U3IOXJwPbvn7Dgn14Ha+nMdV8WBuni5Xxzt2AOH9ZBOhibievju4mV5nOP6K0jFYyU2Uu1+tFj843HzneOsr7Nz5OZ7w01fKa7rOYEI6QAAHiCkA+B38YV0LdetSVzU0rLKkAoAWGusId2aot5JF3rxu7PsGOmKkA4A4AFCOgB+F1dIJwSLKoMXBsw8bmURDUQzsycArHlrOaQ7fb5TPRt77fa4WY21jZAOAOABQjoAfhdvSLdkT37g8ImM072BCwPB7nuiiB8Wfz18YrEKABDJWgvp9uTm19Q3NZ650D8SUnMpzL5579kD1EgVhHQAeCcdPEBIB8DvHIZ0AID4rbWQ7kJ3n9pfVbr7HM7ygTRGSAeA2V3hAUI6AH5HSAcAniGk67k1ajYCCOkAENLBE4R0APyOkA4APFNbf3L44bwoQ5Pze3LT/+UAjafPy/29ff9J142hI8ebzRZAGCEdAEI6eICQDoDfEdIBAIDkIqQDQEgHDxDSAfA7QjoAAJBchHQACOngAUI6AH5HSAcAAJKLkA4AIR08QEgHwO8I6QAAQHIR0gEgpIMHCOkA+B0hHQAASC5COgCEdPAAIR0AvyOkAwAAyUVIB4CQDh4gpAPgd4R0AAAguQjpABDSwQOEdAD8jpAOAAAkFyEdAEI6eICQDoDfEdIBAIDkIqQDsD1zS9ahDPGvWQEkDiEdAL+TIR0AAEByEdIBAD4qQjoAfkdIBwAA/ICQDgDwURHSAQCA9Pd5ZsVn/843lwIAAAC+QUgHAADSX27nn3taX5tLAQAA7OGddPAAIR0AAEhzn2fuL5/4X9n9/8dgOgAA4Ayzu8IDhHQAACDN5Xb+WT7xP1EYTAcAAJwhpIMHCOkAAEA6k8PoZGEwHQAAcIaQDh4gpAMAAOlMDaNjMB0AAHCMkA4eIKQDAABpSx9Gx2A6AADgGCEdPEBIBwAA0pYxjI7BdAAAwBlCOniAkA4AAKQn6zA6BtMBAABnCOngAUI6AACQniIOo2MwHQAAcICQDh4gpAMAAGko2jA6WRhMBwAA4kJIBw8Q0gEAgDQUYxidLAymAwAA9hHSwQOEdAAAIN3EHkYnC4PpAACAfYR08AAhHQAASDerDqOThcF0AADApu2ZW7IOZYh/zQogcQjpAABAWrEzjE4WBtMBAADAPwjpAABAWrE5jE4WBtMBAADAJwjpAABA+rA/jE4WBtMBAADAJwjpAABA+ohrGJ0sDKYDAACr4p108AAhHQAASBPxDqOThcF0AABgVczuCg8Q0gEAgDThYBidLAymAwAAsRHSwQOEdAAAIB04G0YnC4PpAABAbIR08AAhHQAASAeOh9HJwmA6AAAQAyEdPEBIBwAAUp6bYXSyMJgOAADEQEgHDxDSAQCAlOdyGJ0sDKYDAADRENLBA4R0AAAg5W3+MjNGyWx8UD7xP/GvtUovm7Z/ba4XAAAgjJAOHiCkAwAAaW7XkdvlE/8T/5oVAAAA9hDSwQOEdAAAIM0R0gEAAJcI6eABQjoAAJDmCOkAAIBLhHTwACEdAABIc4R0AADAJUI6eICQDgAApDlCOgAA4NL2zC1ZhzLEv2YFkDiEdAAAIM0R0gEAAMD/COkAAECaI6QDAACA/xHSAQCANEdIBwAAAP8jpAMAAGmOkA4AALjEO+ngAUI6AACQ5gjpAACAS8zuCg8Q0gEAgDRHSAcAAFwipIMHCOkAAECaI6QDAAAuEdLBA4R0AAAgzRHSAQAAlwjp4AFCOgAAkOYI6QAAgEuEdPAAIR0AAEhzhHQAAMAlQjp4gJAOAACkOUI6AADgEiEdPEBIBwAA0hwhHQAAcImQDh4gpAMAAGmOkA4AALhESAcPENIBAIA0R0gHAABcIqSDBwjpAABAmiOkAwAALhHSwQOEdAAAIM0R0gEAAJe2Z27JOpQh/jUrgMQhpAMAAGmOkA4AAAD+R0gHAADSHCEdAAAA/I+QDgAApDlCOgAAAPgfIR0AAEhzMqTL6/5b/EChpFDZmn3QvJqBOMm3aMUu+ju2aG8ttI9d1nJ7IOEI6QAAQJrbFQ7pKJSUK7sY/gnXssLzUcYuWdpslbS3FtrHLmu5PZBwhHQAACDNbc0+aB2jRKH4ueR1/01Ih4SId2QQ7a2F9rHLWm4PJBwhHQAAAOAvu3iRIgAAaw8hHQAAAOAvhHQAAKxBhHQAAACAvxDSAQCwBhHSAQAAAP5CSIdEke/Y4i1aAJASCOkAAAAAfyGkQ6JkhWerzGI+SgBIBYR0AAAAgL8Q0iFRCOkAIIUQ0gEAAAD+QkiHRCGkA4AUQkgHAAAA+AshHRKFkA4AUgghHQAAAOAvhHRIFEI6AEghhHQAAACAvxDSIVEI6QAghRDSAQAAAP5CSIdEIaQDgBRCSAcAAAD4CyEdEoWQDgBSCCEdAAAA4C+EdEgUQjoASCGEdAAAAIC/ENIhUQjpACCFENIBAAAA/kJIh0QhpAOAFEJIBwAAAPgLIR0SZXvmlqxDGeJfswIA4D+EdAAAAIC/ENIBALAGEdIBAAAA/kJIBwDAGkRIBwAAAPgLIR0AAGsQIR0AAADgL4R0SBTeSQcAKYSQDgAAAPAXQjokCrO7AkAKIaQDAAAA/IWQDolCSAcAKYSQDgAAAPAXQjokCiEdAKQQQjoAAADAXwjpkCiEdACQQgjpAAAAAH8hpEOiENIBQAohpAMAAAD8hZAOiUJIBwAphJAOAAAA8BdCOiQKIR0ApBBCOgAAAMBfCOmQKIR0AJBCCOkAAAAAfyGkQ6IQ0gFACiGkAwAAAPyFkA6JQkgHACmEkA4AAADwF0I6JAohHQCkEEI6AAAAwF8I6ZAo2zO3ZB3KEP+aFQAA/yGkAwAAAPyFkA4AgDWIkA4AAADwF0I6AADWIEI6AAAAwF8I6QAAWIMI6QAAAAB/IaRDovBOOgBIIYR0AAAAgL8Q0iFRmN0VAFIIIR0AAADgL4R0SBRCOgBIIYR0AAAAgL8Q0iFRCOkAIIUQ0gEAAAD+QkiHRCGkA4AUQkgHAAAA+AshHRKFkA4AUgghHQAAAOAvhHRIFEI6AEghhHQAAACAvxDSIVEI6QAghRDSAQAAAP5CSIdEIaQDgBRCSAcAAAD4CyEdEoWQDgBSCCEdAAAA4C+EdEgUQjoASCGEdAAAAIC/ENIhUQjpACCFENIBAAAA/rI1++CuI7fFv2YFEKftmVuyDmWIf80KAID/ENIBAADAU2fOnDkPAH6yefNm86sKADxHSAcAAABPEdIB8BtCOgB+QEgHAAAAT8mQbseOHQEASDb5jURIB8APCOkAAADgKUI6AP5BSAfAPwjpAAAA4ClCOgD+QUgHwD8I6QAAAOApQjoA/kFIB8A/COkAAADgKUI6AP5BSAfAPwjpAAAA4ClCOgD+QUgHwD8I6QAAAOApQjoA/kFIB8A/COkAAADgKUI6AP5BSAfAPwjpAAAA4ClCOgD+QUgHwD8I6QAAAOApQjoA/kFIB8A/COkAAADgKUI6AP5BSAfAPwjpAAAA4ClCOgD+QUgHwD8I6QAAAOApQjoA/kFIB8A/COkAAADgKUI6AC619fSPP3lrLRe6+8ymqyGkA+AfhHQAAADwlJOQbm9BsLopeLo3eHEw4/KYKOKHxV+rm0SV2djHuvqGRqd+tJSXQw+e3hia6LjyfXnlYbNPCqqsPqr27uTZDrPaIq+gSLU/23HFrMbHlJO3b+TRC8s1GaE0NLeanZOn99bduZ//z1p6bo2aTVdDSAfAPwjpAAAA4Km4QrpgcVXwwkDGlQcximggmpk9fWlwbNYaK+hl5vVffcOTRaUVZs+UUrr/oNqj7v5hs9ri6PFm1f7i5X6zGh9TYUm59TqMWM51XDU7J0/H1YGH87+qMvv2H7mRhHQAUhohHQAAADxlN6TL3J1x9oY1kotazt4QXcyV+MyqIZ0so1M/7tz1tdk5pUwv/Cn3pX8kZNZZfNfWo/bdV8O11oIUDekMD+b/IzeSkA5ASiOkAwAAgKdshXT5xRmdI2YMt2rpHBEdzVX5iQrpZt/+3dLeI0tr5/WuvqHB8dmZN+9VIHLt9rjZOaWMz76VOzI0+cyss+i8cWf5sPyTv8/XZzD9ZGZlX7zcr8qVgTF1Ed6+/0SvqjhQY3b2DUI6AOmBkA4AAACeWj2kyy/O6LlvBnA2S899P+d0KqSbefPerAsE6k6cmXn9l2zw4NkvZnVKuTPxRO7I+Oxbs87ixtAD2Tj08nezDt4SF6EK6br6hsxqvyKkA5AeCOkAAADgqVVCuszdTsbQ6aVzxLfPvcYO6YTb4x+G2uXk7TOrV8rfV9zU0t7S3hPXECex2tr6k83nO0XHg0eOm9X2ZGZlN54+/93Fy2VRZrq4dnvcfu6mEr17jxfMuigqDtSePNtxruPqsaaWvIIis1qTkP2trD56tuNKTX2TWWGD477Ozq+V/WMVcBHSHT56/Lu2Hv11irtzcptbLzW1tGVl79EaxuL4WBHSAUgPhHQAAADwVOyQLr730EUrZ2+Y67XI2p/xbddXpQM7ywZ3fnv5q93VGWaLj2DVkK5v+KGKSKrrTpjVYQWFJTdHH01qL8sX5dGPfwyMzRQWl5mtl9WfbLl2e3z8yVu9lyjTr96Nz769dP2O2WHZwSMNoRe/y1JxoLa59dLIoxeil1rDw/lfm1rajF4Xu/tk7ezbv1VGU155uLXzuixHjzerxvceL8jGYhfUQuXKwD356UMPnopfT53ruLvcXpaZ13+JA1JSUaX3cry/x5tbl/f3t/x9xVcHx8QOqu5TC3+IzYg2s4ebvoqz8ys5O1Y6+yFdd/+w/CxxnMdmX8su4nTLB5yviM1dHhYqfrC+zy4hx0ohpAOQHgjpAAAA4KkYIV2wuMqM25yW2PO9ZlVmlN3eaZTdNR89p4sd0mVmZY8/WXqVm55t6RpPn9ezDKNMzv9af/Ks2SdMpRjRyu37TyK+D+6INvVqa+d1PZ5TRWztd22X9V5iM1StGr/WdWNILZQpkvTw+dIeRUxY+kdCsvbe44WL3X3is6wbIErz+U69l+P9PXWuQ7W5OfrI2nEu/DByxEF5bvpKjs+v5OxY6eyHdNeHJqxrlkV8upGNzr55X1VTp3d3f6x0hHQA0gMhHQAAADwVK6S7MGCN25ZK7/1tDW2bCirX78pZF8zckFWwuejQthOdGVcmzJYypLswYK5dU9j51WIqV50RDBM/iF+Lrn5ltku0GCFdVXWdeupTFPGz0UA4ceaiHruEnv82NDk/9ODpg2e/qIVTC39EHH+kUoyZ139NPP1JdBwYmxkJvVDTsIpydzrC06Z6SKfWMDbzanTqpfgstXBs9rXeK6+gSMU0KhIaXH6Ydy6cN6nGs8szZrReuqYWKip4El3U3Bpi5aEXvz9cHG62dECihXTx7q8eHsky/erd6NSPw6H5Rz9+2F+xMdYZeN30Dbg7v5KzY6VzFtKJLRQnd3phRYB79/GC2Hj1ocboRZfHykBIByA9ENIBAADAU1FDur0F1qxtKXHrHN2UV74umGktn5bUWNvLIlZofsSykv7FoXPBnUu/Bv8dFL+WDnoX0okyOvWjLPceL+gBylw48Ko4UGt21qZMnX3zvvfWqB5edPUNqTX0j4S0TksezP9n/Mnbjivf78nN15eXVFQNTT5TH93Q3KrXBiwh3djMK/WKtOKyyrvTH56mPL6yb+jF73J5x9WlwFQPm2bf/lNSXiUW7j98RC2sbTilr0FSwdNyx7+vDIyJj5a1Wdl7xPpDL38/bQnpnO2vER5NPP1Z7e/unNzh0Lyqutjdt7Krq74Bd+dXcnasdA5CuulX7+Tzs9+19ai+6vWC6glufexkwPWxMhDSAUgPhHQAAADwVLSQLljdZA3aFhO6nvubcsvWBTM/2Vu87URnoGNYLNzR8cP2E52LS5q6rF2WOlZHff182eBiSLdiSfiJV33Jx6CHdNHKlYGxiEOH2ntvqTadNyK8Uk3N1TD79m/j0UKhdP9BY4lSVFqhxsT1DT80avWQbnrhnfFaNFGrRsx1XBvUq9Sb5sSGBcKvWjOevmxp7xHLm1ra1WZnZmXra5D04Em0aTrbbrYIBIwkLuBif/XwaPbN+/KVM2NkZe9Rj6OOPzEnrnXT1+X5lZwdK52DkO7uch6Xk7dPneLeW3flwnMdV+USY6ylm2NlRUgHID0Q0gEAAMBTUUO6M1esQZsoW49dWBfM3JhTGrw8Ztb2Rn7WVRaxQuMjlNLBxcdd9SX+Celm37yXqZZBvZt/fDZyZrEnN189y3nBxuAj3Ujohew4NDlvVOkhXd/QA6M2oI2PMzb7+7HHcvng+Kz4tfl8p/xV7cj1O/fF8ouX++Wv+gOwOj14kqtyL8b+6uGRMfhLUmGZKDHesxZv34ScX/fHykFIJ65qtTD08r9y4fmupclb6k+2yCXiOlHNAu6OlRUhHYD0QEgHAAAAT0UN6aK8kE4+6Lq9uddaFbvEeC1dqTaSzpg+ImJZ2ds5FdLNvv27+XynLC3tPZeu3+kfCemv9LLOc6oGf008/amrb8hauvuGQ89/k236hieN7kpJRVVDc2vrpWuiS8+tUVnUg5ajUy+N9ismjoj0zjg1Yu7W3Sl9uVjt8jp/DIQnHpW/qgkNRh69EMt7b92Vy0dCi79a6cFTxOdhY4t3f/Xw6OLlfqM2sDLGOnm2Q69y0zch59flsQo4Cun086628Lu2xWGSQm39Sbkk9OI31Szg7lhZEdIBSA+EdAAAAPBUtJAuo/ueNWgTZcPOveuCmRGG0a1auu8ZH6Ho0Zs1krOWlb2dizFxhFBYUn53OfCaffvPsaYWVVVSXqUCCzvFOkBMaDrb/kPouTHtplGscynoIZ31DW7C8MOl14fdvr9isouzHVfkcjmESr5lTL6KbuLpT3PhORDE8lt3p2Szm6OP9O6KCp5mIx20GJztrx4eRXxctKi0QjUw0iXHfRNyfgMujpXiIKTTHxlWwyrFoZBLqqrr5JLphT9Vs4CLYxURIR2A9EBIBwAAAE85DOmi1MYq0UM6nTWSsxazj1OxQzrhSMMp9VYv/XHFppY2FVjYKdZRaX3Dk9Zm1qLe96/oId3ho8eN2kD0kK667oRc/vjVX4HleSRkYPf9vWlZJdr8EHouf+66ETkS0mcsNeuic7y/enhUXddo1EpqOtorAyuuMcd93Z9fydmx0jkK6T4M65PxqyhNLe1yScWBGrlkeuGdahZwcawiIqQDkB4I6QAAAOCpaCFd7Mddv0jo4646ayRnLWYfp1YN6QLaWCT9RfvNrZdUonHt9vipcx2xi/Goo3rv21z4SduhyWeXrt8513G1qaVNFjWZpjW0chzSZWZlq5BFrUS+v6yt96b8Vfxwf24p1jl9oUvvrqjgaWzmlVkXhZv91cOjg0cajFpJBanGa/gc93V5fhUHx8qQlJAurmMVESEdgPRASAcAAABPRQ3pokwcsa3u/OLUrnuKgl13japA+1Cwa9TaRZYYE0forJGctZh9nLIT0o1OvZRtQi9+VwsrDtSqROPS9QhTf8amXhs3vfDu6PFmszoQUMPZrKGV45AusHJOCflDx9XFGWDFeuSvN0cfqXexVVYfNbpLKniybls0bvZXD49OnLlo1Ar5+4pVg46rK4Jgx31dnl/FwbEyJCWki+tYRURIByA9ENIBAADAU1FDuuoma9C2WHonNuaUrAtmbsgs2Ha8I9AxLJbsuDj4+dFzG77O3ZRXHu11dWKFxkdEZI3krMXs45SdkG7k0dLEozOvF58SVdTMnquOKjLk5O1T72Xr7h82q8Mmnv4sG1jDHTchncrC1PqPLA8BC71cfPp14ulPctumX61IcHTxBk8u91cPjyJOlKFmQpizjP5z09fx+dXFe6yskhLSxXusrFQcfGVgzKxbDSEdAP8gpAMAAICnooV0gb0F1qBNlkDH8Mac0nXBTGv5rLIho3fC2mWx194C8yMisUZy1mL2ccpOSKfmxwy9/F1fPv5kaUJS8YO+fFVVNXUfwo7znWZ1IFCrvQjPGu64Cen0yUbnlmeKkIYml3rJMvH0J63fCvEGTy73Vw+PrHPsCt39w6pBdd0JvcpNX8fnVxfvsbJKSkgX77GyUmMno00/EgMhHQD/IKQDAACAp6KGdNFfS7dYeie21Z3flFe+Yeee9V/t3pBd+Gl53Zct181my8XmC+kCPgvpOq4NqmDCmMHzysCYqmrtvK5XGfL3Feu/hkeWLWVSER8bHJp8ptZsDXfchHSXrt9RfedWTnfQc2tUrxp68FTrt0K8wZPL/dXDo+lX74yDGdDStNCL3zKzsvUqN30dn19dvMfKKikhXbzHympwfOkvS85MEhdCOgD+QUgHAAAAT8UK6YqrrHGbsyJWZa49CmskZy1mH6cihnQ7d31dWX206Wz74PisSpdEudDdp3UN7MnNfzj/63Le8Wdbz029NhBeT+ula6NTP+ovs5MmlzuGnv9WUlGllmdl7+kbfqgeDp2LFO64Cen0+RDmVj6K2Hjmgl51Y2hC67eCg+DJzf7q4ZEoI49e5OTtU7Wiu6rq7jOfpXXT1835VRwcq0A41swrKJLleHOr2sjL/T+o5aIYvRIY0s3Feays9Dj4+p374liZLaIjpAPgH4R0AAAA8FSMkE7IOHvDmrjFXc7eMNcbnTWSsxazj1MqpJsLzzoqix5VqBJxZFlLR6/eZvzJ2+/HHl+7Pd43/PCH0HP5ljdRHv344alSSeUpc+FnTkX77v7hm6OP1Ju8VLGGO25COn0+BFGaWy+pqqzsPTOv/1JVHVe+1/qt4CB4crO/RngkyoP5/4i+YjPGZl/rq7XmVm76BlycX8XBsSosLtNTyxhFbJ7eMbEh3Vycx8qwOydXPSe++Fmv3k08/VlsjCirvqWOkA6AfxDSAQAAwFOxQ7pA5u6MzhEzdIurdI6IlZir9Qc9pItWZt68v3V3Sh9VpGvr6VczDEQr1hBnd06uSk+sRbQfevBU/mwNd9yEdAFtPoTZt38bO6XeIzYXZX5PyUHw5GZ/9fBIzbRrlKmFP0Qzo6PLvpKz86s4OFaFJeXWj4hYznVc1TsmMKRzdqwMpy90iY+wrkT80ZlNVyKkA+AfhHQAAADw1CohnZBfnNFz34zebJae+6K7uULfGBibsYYIs2//mVr4Y+LpTyOhF9eHJsorD5vdVqo4UDs0OT/z5r11VaEXv9+6O6UPWFNKyqtElTFmavrVu+GH8/sPH1FPF1rDnZr6JtW+qrrOqBVU4BUxDYkxH0Lf0AO15sKScqNWibFtMTjeXz08KqmoEntnjHa8P/dTtHkM3PRVnJ1fKcZ+RVNQWGJ3JF17j97x2u1xufy69qiyOt2Np8/LJaX7D8r169OGBBJ0rAxVNXW3x2cfPPtFX1XEWSl0hHQA/IOQDgAAAJ5aPaQLhHM6B+PpOkf8nNAl1s5dX9c2nDrfdaO7b/jS9dst7T1HGk6ZjSwqq4+Kll03hjquDtadOBPXq7tSkYP91cMjGR3m7yv+7uLlrr6h1kvXYkeobvoanJ3fFJLAY+USIR0A/yCkAwAAgKdshXSB8HOvcb2f7uwN3z7lihRiDY/sc9N3rfHPsSKkA+AfhHQAAADwlN2QLixYXBW8MGDmcSuLaGB/LlcgNjfhkZu+a41/jhUhHQD/IKQDAACAp+IK6ZbsLQhWNwVP9wYvDmZcHhNF/LD4a3WTqDIbAy64CY/c9F1r/HOsCOkA+AchHQAAADzlJKQDvOImPHLTd63xz7EipAPgH4R0AAAA8BQhHfzMTXjkpu9a459jRUgHwD8I6QAAAOApQjr4WW39yeGH86IMTc7vyc03q2Ny03et8c+xIqQD4B+EdAAAAPAUIR0A/yCkA+AfhHQAAADwFCEdAP8gpAPgH4R0AAAA8BQhHQD/IKQD4B+EdAAAAPAUIR0A/yCkA+AfhHQAAADwFCEdAP8gpAPgH4R0AAAA8BQhHQD/IKQD4B+EdAAAAPAUIR0A/yCkA+AfhHQAAADwFCEdAP8gpAPgH4R0H0Vubu6BAwf2799vVkRRXFws2hcWFpoVKSU99gIAAHxshHQA/IOQDoB/JCCky8/PL9IUFhbu3bv3m2++2bRpk9l0zSgtLW1sbDx27JhZEcXhw4dF+8rKSrMiSYxzqvv22283bNgg2uTk5Ihf9+zZo3r5bS8AAIA/yVtiAPAPQjoAfpCAkO7o0aONkTQ0NOTn55ut14ZUD+minVPpk08+WRdpm61LAAAArAjpAPgNIR0AP0hYSFdXV5eTk5OXl1dUVFRbW6sCna+//trssAakR0gnz6mVHEl38ODBhoaGiooK1ctvewEAAAAAAJAqEhbSHTp0SC1Zv379vn37ZEi3NiOb9AjpqqurzYqY/LYXAAAAAAAAqeKjhHTCxo0bZUhXV1enL1e2bNkSCAQ+/fRTsyIRxKfv2LFj27ZtcszXqkQz0f6zzz4zlttfzyeffPLll1+KnZK/ug/pvvjiC/G569ev11p5J+Ehnc0jKZpt3749GAxu3bpV/GxWAwAAAAAApKmPFdIJDQ0N1pBu06ZNJSUlsko6duxYTk6OSqPk2kpLS/Vemzdvlo0PHDigLxe9RHexfNeuXXLJZ599VllZefz4cdlefFBubq416lJxktieiooKuT36HAg217MunDaKrVItxfZkZmY6Duk2btwojk99fX20z5UtxXL5Yjid2GbZS2yAUSXZ72snpLNGctYl62wfSbHjRUVFqpm0Zt9pCAAAAAAA1pqPFdJ9/vnnMmfZv3+/Wrht2zY1I0FdXZ3ootK6gwcPypFTxcXF4tf6+no9x/nmm29ks8blWQukYDAoF8qZZLdv3y5W2xhOgsQKjxw5Imu//fZb1UWScdKBAwcqKyuXV/whpLO/HrFHsqUgmukv42uMP6QT21NRUaGvQSoqKlItxUbKheKYaCtYlJeX1xje5mjz6trvm6iQzv6RLCsrk1Xi1IsLQ8aUBQUFRjMAAAAAAIC09FFCuvXr16uwKTc3Vy0/cOCAzGtUSCRaFhYWypZ5eXliya5du+SvO3bsUB3Ly8vlQuHf//63Wv7tt982ajngwYMHxa81NTXqwVXZQFAPokoyTpLKysrEOjdv3qyyLfvrUXuktko0ENsjG8cb0kmlpaUZGRlie3bu3KmG1G3btk22/PTTT+USY1Dhhg0bZBxWXFysL9fZ75uokM7mkRRHXi4U50KGs+Jf0eDzzz9XbQAAAAAAANJYwkK6w4cPb9y48fPPP9+5c+ehQ4dk5lJdXa3eLCaWy4XW4VEyymloaJBJmXzmUWZ268IRkhpwJxQWFqqOMlqST2iq9X/11VeqwSeffCL7qrVJKhRTqZBifz1qHJ+xckHmdA5COv2R23XaEEJ96JkKQPUMS222Hm5a2eyrBjw2rFRbW6t6WSM5Y4n9I7lt2zbZMicnRy0EAAAAAABYOxIW0lnV1NRs3bpVNSsoKJDL9YVSZmamrJLj0eTwtMOHD8var776SvxaW1srB2GJ1crlO3bsEL8eP3588+bN67T1Gy9cq66uFgtLSkr0hTJOEuu0zk5gfz35+fmypXWPnL2TrqqqylguNk9GlnoWJo6S/Fw955LP7cYe+7bOdt9o51QsV21WDensH0lBPgnb0NCwZ8+e2JNLAAAAAAAApJ/Eh3RHjhypqqr6+uuvjWbqkVVrBBMIBGTV7t27xa85OTnyVzn3q8zm9u3bJ9M6QT47KZY0asFWxLe5KcYDntaASbG/HpnENUbaI2chXcTtkemV+FctWb9+vRxCqCIz9QbA7Oxs1Swim33lOa2trf1sJX02Xus2G0vsH0lBnHpVJbZQXAPW2S0AAAAAAADSVcJCupqams2bN1vjKkUmOBFzK/W0o3wS9osvvpC/fvPNNypUCgaDn3zyiRxWJl9pJ9MrFS2pJ0YjUuPy9MYRQzH765FP6UbcowSGdHLcmT6EbZ02iE8clnXLY9Yaok8ZobPTNyHvpLN/JKWMjAw1s0RjOKr78ssvjTYAAAAAAABpKWEhnTG7q5X9kXQqmCspKZGB3bFjx+Sb4+STsGp54/Jou3XLuVhDQ4PxjrmIrAGTYn89cmMEa8sEhnTyUBjjztTwt7KyMnE8xQc1xpwyQmenb0JCOvtHUtm4caO4BtTYTLHv9vsCAAAAAACkLu9COvWGMuuUnVlZWbIqIyNDLikuLm4Mh1xy2JeKkHJzc2V2I9emR1d5eXlyJXaGX1kDJsX+ekpKSmRLNXWpkqiQ7pNPPpEfYbzBbZ02sax6UDT2lBG6VfsmJKSzfyQNYq/LyspkX3VJAAAAAAAApDHvQjr1Rrn8/HyjSoY7DQ0Naljcrl27ZGNJTQ/65Zdf6svlyDtJziPRGCnqsrIGTIr99ah35xlzkmZmZsrHcuMN6azHMDs7W36E9R1/YomskmIHaoZV+yYkpLN/JK1UX+Z7BQAAAAAAa4F3Id06bQDXrl275JINGzbIeSEaV843umnTJplzyfZqDoH169fLxzMlYwibHH/XGB53Jqd8XRdeVUZGhvpEyRow6WyuR1SJbWsMzzCbmZn56aefBoPBoqKi5a2LO6RrDI8NVHPFfvnll3Jn1YS2uo0bN9bX16vPWnXKCN2qfRMS0q2zfSTFnoqWajSfuCpURznhLwAAAAAAQHrzNKTbtm2bet2Y+OHw4cMy5BIOHjy4ceNGvbF641tFRYW+XD0IKbroy9eF0x85mUNjODirqampra2Vv9qf3XVdPOuRj98aRF85sWm8IZ3KJcXHiQ+VP4tDFAgEzA5hKt+0OWWELnbfRIV0No9kRkaGXFhfXy/aq6uiqqqKd9IBAAAAAIC1IGEhnTUyi2jTpk1lZWUqhWkMJ1k5OTnWLEY9TJqZmakvF7/K5Xv37tWXS2I9oqOcbEESn3Xo0KHc3Fy9mTVOMthcz7rwE6lqVJpoU15evnnzZvm6OtHdaByN3J7CwsKdO3fqHyqWb9++3Wy9TD0TanPKCF3svvKcHrZMwKqzHkPrknX2juTWrVvFcVMBbmM40RNHw5oeAgAAAAAApKUEhHQOrF+/fuvWrTt27FCPQCacWHMgEBCfYo3/4mJzPXJ3rBPX2iQ+ZcuWLeqpXvGz+NBVIyr1ajn7U0Yobvo6Y+dIijZie7Zv324MqwQAAAAAAEhvyQnpkBBy5Frsh1KjcdMXAAAAAAAAiUVIl6qCwaAcCmed9mFVbvoCAAAAAAAg4QjpUlV5eXljlGkfVuWmLwAAAAAAABKOkC4lrV+/vihs9+7dZt1q3PQFAAAAAADAx0BIBwAAAAAAACQZIR0AAAAAAACQZIR0AAAAAAAAQJIR0gEAAAAAAABJRkgHAAAAAAAAJBkhHQAAAAAAAJBkhHQAAAAAAABAkhHSAQAAAAAAAElGSAcAAAAAAAAkGSEdAAAAAAAAkGSEdAAAAAAAAECSEdIBAAAAAAAASUZIBwAAAAAAACQZIR0AAAAAAACQZIR0AAAAAAAAQJIR0gEAAAAAAABJRkgHAAAAAAAAJBkhHQAAAAAAAJBkhHQAAAAAAABAkv1/V6xh27919+EAAAAASUVORK5CYII=;" parent="1" vertex="1">
          <mxGeometry x="-360" y="1690" width="1266" height="700.98" as="geometry" />
        </mxCell>
        <mxCell id="xPt96xxPR4awn_NFNTdS-18" value="" style="group" parent="1" vertex="1" connectable="0">
          <mxGeometry x="-340" y="1160" width="585" height="680" as="geometry" />
        </mxCell>
        <mxCell id="xPt96xxPR4awn_NFNTdS-15" value="&lt;p style=&quot;color: rgb(255 , 255 , 255) ; text-indent: 0in ; line-height: normal ; margin: 0pt 0in ; word-break: normal ; font-size: 15px&quot;&gt;&lt;/p&gt;&lt;span style=&quot;text-indent: 0in ; font-size: 15px&quot;&gt;&lt;div&gt;&lt;font face=&quot;dengxian&quot;&gt;&lt;div&gt;TypeConverter --- 类型转换器&lt;/div&gt;&lt;div&gt;&lt;br&gt;&lt;/div&gt;&lt;div&gt;定义类型转换的接口&lt;/div&gt;&lt;div&gt;通常与 PropertyEditorRegistry 接口一起实现（但不是必须)&lt;/div&gt;&lt;div&gt;&lt;br&gt;&lt;/div&gt;&lt;div&gt;TypeConverter 是基于线程不安全的 PropertyEditors ，因此 TypeConverters 也是线程不安全&lt;/div&gt;&lt;div&gt;&lt;font color=&quot;#ff0000&quot;&gt;&lt;b&gt;ConversionService&lt;/b&gt;&lt;/font&gt; 是线程安全的&lt;/div&gt;&lt;div&gt;&lt;br&gt;&lt;/div&gt;&lt;div&gt;在 Spring 3 后，&lt;/div&gt;&lt;div&gt;不再采用 PropertyEditors 类作为 Spring 默认的类型转换接口，&lt;/div&gt;&lt;div&gt;而采用 ConversionService 体系，&lt;/div&gt;&lt;div&gt;&lt;br&gt;&lt;/div&gt;&lt;div&gt;所以在 Spring 3 后，如果选择的类型转换器是 ConversionService&lt;/div&gt;&lt;div&gt;那么 TypeConverter 就是线程安全的。&lt;/div&gt;&lt;/font&gt;&lt;/div&gt;&lt;/span&gt;" style="rounded=0;whiteSpace=wrap;html=1;strokeWidth=2;align=left;fillColor=#d5e8d4;spacing=10;strokeColor=#82b366;" parent="xPt96xxPR4awn_NFNTdS-18" vertex="1">
          <mxGeometry width="450" height="360" as="geometry" />
        </mxCell>
        <mxCell id="xPt96xxPR4awn_NFNTdS-16" value="" style="shape=flexArrow;endArrow=classic;html=1;fontSize=20;strokeColor=#3399FF;strokeWidth=3;fillColor=#66B2FF;entryX=0.5;entryY=1;entryDx=0;entryDy=0;width=4;endSize=6.88;" parent="xPt96xxPR4awn_NFNTdS-18" target="xPt96xxPR4awn_NFNTdS-15" edge="1">
          <mxGeometry x="485" y="440" width="50" height="60" as="geometry">
            <mxPoint x="585" y="680" as="sourcePoint" />
            <mxPoint x="435" y="596" as="targetPoint" />
            <Array as="points" />
          </mxGeometry>
        </mxCell>
        <mxCell id="xPt96xxPR4awn_NFNTdS-19" value="&lt;p style=&quot;color: rgb(255 , 255 , 255) ; text-indent: 0in ; line-height: normal ; margin: 0pt 0in ; word-break: normal ; font-size: 15px&quot;&gt;&lt;/p&gt;&lt;span style=&quot;text-indent: 0in ; font-size: 15px&quot;&gt;&lt;font face=&quot;dengxian&quot;&gt;&lt;br&gt;&lt;/font&gt;&lt;/span&gt;" style="rounded=0;whiteSpace=wrap;html=1;strokeWidth=4;align=left;spacing=10;fillColor=none;strokeColor=#FF0000;" parent="1" vertex="1">
          <mxGeometry x="180" y="1710" width="670" height="200" as="geometry" />
        </mxCell>
        <mxCell id="xPt96xxPR4awn_NFNTdS-25" value="" style="group" parent="1" vertex="1" connectable="0">
          <mxGeometry x="859" y="1760" width="351" height="150" as="geometry" />
        </mxCell>
        <mxCell id="xPt96xxPR4awn_NFNTdS-21" value="&lt;p style=&quot;color: rgb(255 , 255 , 255) ; text-indent: 0in ; line-height: normal ; margin: 0pt 0in ; word-break: normal ; font-size: 15px&quot;&gt;&lt;/p&gt;&lt;span style=&quot;text-indent: 0in ; font-size: 15px&quot;&gt;&lt;font face=&quot;dengxian&quot;&gt;&lt;div&gt;BeanWrapper 实现这三个接口，就具有三种职能：&lt;/div&gt;&lt;div&gt;&lt;br&gt;&lt;/div&gt;&lt;div&gt;属性编辑器&lt;/div&gt;&lt;div&gt;属性编辑器注册表&lt;/div&gt;&lt;div&gt;类型转换器&lt;/div&gt;&lt;/font&gt;&lt;/span&gt;" style="rounded=0;whiteSpace=wrap;html=1;strokeWidth=2;align=left;fillColor=#d5e8d4;spacing=10;strokeColor=#82b366;" parent="xPt96xxPR4awn_NFNTdS-25" vertex="1">
          <mxGeometry x="111" width="240" height="150" as="geometry" />
        </mxCell>
        <mxCell id="xPt96xxPR4awn_NFNTdS-22" value="" style="shape=flexArrow;endArrow=classic;html=1;fontSize=20;strokeColor=#3399FF;strokeWidth=3;fillColor=#66B2FF;entryX=0;entryY=0.5;entryDx=0;entryDy=0;width=4;endSize=6.88;" parent="xPt96xxPR4awn_NFNTdS-25" target="xPt96xxPR4awn_NFNTdS-21" edge="1">
          <mxGeometry x="-100" y="-160" width="50" height="60" as="geometry">
            <mxPoint y="80" as="sourcePoint" />
            <mxPoint x="-150" y="-4" as="targetPoint" />
            <Array as="points" />
          </mxGeometry>
        </mxCell>
        <mxCell id="xPt96xxPR4awn_NFNTdS-28" value="" style="group" parent="1" vertex="1" connectable="0">
          <mxGeometry x="590" y="1520" width="310" height="320" as="geometry" />
        </mxCell>
        <mxCell id="xPt96xxPR4awn_NFNTdS-3" value="&lt;p style=&quot;color: rgb(255 , 255 , 255) ; text-indent: 0in ; line-height: normal ; margin: 0pt 0in ; word-break: normal ; font-size: 15px&quot;&gt;&lt;/p&gt;&lt;span style=&quot;text-indent: 0in&quot;&gt;&lt;font face=&quot;dengxian&quot;&gt;&lt;span style=&quot;font-size: 15px&quot;&gt;PropertyAccessor --- 属性编辑器&lt;br&gt;&lt;/span&gt;&lt;br&gt;&lt;span style=&quot;font-size: 15px&quot;&gt;可以访问属性的通用型接口&lt;/span&gt;&lt;br&gt;&lt;span style=&quot;font-size: 15px&quot;&gt;（例如对象的 bean 属性或者对象中的字段)&lt;/span&gt;&lt;br&gt;&lt;span style=&quot;font-size: 15px&quot;&gt;作为 BeanWrapper 的基础接口&lt;/span&gt;&lt;/font&gt;&lt;br&gt;&lt;/span&gt;" style="rounded=0;whiteSpace=wrap;html=1;strokeWidth=2;align=left;fillColor=#d5e8d4;spacing=10;strokeColor=#82b366;" parent="xPt96xxPR4awn_NFNTdS-28" vertex="1">
          <mxGeometry width="310" height="150" as="geometry" />
        </mxCell>
        <mxCell id="xPt96xxPR4awn_NFNTdS-4" value="" style="shape=flexArrow;endArrow=classic;html=1;fontSize=20;strokeColor=#3399FF;strokeWidth=3;fillColor=#66B2FF;entryX=0.5;entryY=1;entryDx=0;entryDy=0;width=4;endSize=6.88;" parent="xPt96xxPR4awn_NFNTdS-28" target="xPt96xxPR4awn_NFNTdS-3" edge="1">
          <mxGeometry x="55" y="80" width="50" height="60" as="geometry">
            <mxPoint x="155" y="320" as="sourcePoint" />
            <mxPoint x="5" y="236" as="targetPoint" />
            <Array as="points" />
          </mxGeometry>
        </mxCell>
        <mxCell id="xPt96xxPR4awn_NFNTdS-29" value="" style="group" parent="1" vertex="1" connectable="0">
          <mxGeometry x="870" y="2050" width="540" height="110" as="geometry" />
        </mxCell>
        <mxCell id="xPt96xxPR4awn_NFNTdS-30" value="&lt;p style=&quot;color: rgb(255 , 255 , 255) ; text-indent: 0in ; line-height: normal ; margin: 0pt 0in ; word-break: normal ; font-size: 15px&quot;&gt;&lt;/p&gt;&lt;span style=&quot;text-indent: 0in ; font-size: 15px&quot;&gt;&lt;font face=&quot;dengxian&quot;&gt;&lt;div&gt;BeanWrapper&amp;nbsp;&lt;/div&gt;&lt;div&gt;&lt;br&gt;&lt;/div&gt;&lt;div&gt;是 BeanDefinition 向 Bean 转换过程中的中间产物，&lt;/div&gt;&lt;div&gt;用于 bean 实例的包装、类型转换、属性设置以及访问等操作&lt;/div&gt;&lt;/font&gt;&lt;/span&gt;" style="rounded=0;whiteSpace=wrap;html=1;strokeWidth=2;align=left;fillColor=#d5e8d4;spacing=10;strokeColor=#82b366;" parent="xPt96xxPR4awn_NFNTdS-29" vertex="1">
          <mxGeometry x="111" width="429" height="110" as="geometry" />
        </mxCell>
        <mxCell id="xPt96xxPR4awn_NFNTdS-31" value="" style="shape=flexArrow;endArrow=classic;html=1;fontSize=20;strokeColor=#3399FF;strokeWidth=3;fillColor=#66B2FF;entryX=0;entryY=0.5;entryDx=0;entryDy=0;width=4;endSize=6.88;" parent="xPt96xxPR4awn_NFNTdS-29" target="xPt96xxPR4awn_NFNTdS-30" edge="1">
          <mxGeometry x="-100" y="-117.33333333333334" width="50" height="44" as="geometry">
            <mxPoint y="58.66666666666667" as="sourcePoint" />
            <mxPoint x="-150" y="-2.9333333333333336" as="targetPoint" />
            <Array as="points" />
          </mxGeometry>
        </mxCell>
        <mxCell id="xPt96xxPR4awn_NFNTdS-50" value="参考:&amp;nbsp; &lt;br&gt;https://mp.weixin.qq.com/s/5daOOdhIFqrGbpgtnuQMNw&lt;br&gt;https://mp.weixin.qq.com/s?__biz=MzI0MTUwOTgyOQ==&amp;amp;mid=2247490683&amp;amp;idx=1&amp;amp;sn=8a5e9a23c4d9226b19a605a478a51a3d&amp;amp;chksm=e90b28d1de7ca1c74736687774254574c41b4e4b78c5c3e7a034713dcfa800f7024c6bf8250e&amp;amp;cur_album_id=1727592481828978689&amp;amp;scene=189#rd" style="rounded=0;whiteSpace=wrap;html=1;fontSize=14;strokeWidth=4;labelBackgroundColor=none;align=left;spacing=10;" parent="1" vertex="1">
          <mxGeometry x="-1100" y="-1230" width="1848" height="100" as="geometry" />
        </mxCell>
        <mxCell id="xPt96xxPR4awn_NFNTdS-123" value="" style="group" parent="1" vertex="1" connectable="0">
          <mxGeometry x="150" y="1330" width="380" height="390" as="geometry" />
        </mxCell>
        <mxCell id="xPt96xxPR4awn_NFNTdS-8" value="&lt;p style=&quot;color: rgb(255 , 255 , 255) ; text-indent: 0in ; line-height: normal ; margin: 0pt 0in ; word-break: normal ; font-size: 15px&quot;&gt;&lt;/p&gt;&lt;span style=&quot;text-indent: 0in&quot;&gt;&lt;font face=&quot;dengxian&quot;&gt;&lt;div style=&quot;font-size: 15px&quot;&gt;PropertyEditorRegistry ---属性编辑器注册表&lt;/div&gt;&lt;div style=&quot;font-size: 15px&quot;&gt;&lt;br&gt;&lt;/div&gt;&lt;div style=&quot;font-size: 15px&quot;&gt;用于注册 JavaBean 的 PropertyEditors，&lt;/div&gt;&lt;div style=&quot;text-align: center&quot;&gt;&lt;span style=&quot;font-size: 15px&quot;&gt;对 &lt;/span&gt;&lt;font color=&quot;#ff0000&quot; size=&quot;1&quot;&gt;&lt;b style=&quot;font-size: 15px&quot;&gt;PropertyEditorRegistrar&lt;/b&gt;&lt;/font&gt;&lt;span style=&quot;font-size: 15px&quot;&gt; 起核心作用的中心接口。&lt;/span&gt;&lt;/div&gt;&lt;div style=&quot;font-size: 15px&quot;&gt;由 BeanWrapper 扩展，BeanWrapperImpl 和 DataBinder 实现&lt;/div&gt;&lt;/font&gt;&lt;/span&gt;" style="rounded=0;whiteSpace=wrap;html=1;strokeWidth=2;align=left;fillColor=#d5e8d4;spacing=10;strokeColor=#82b366;" parent="xPt96xxPR4awn_NFNTdS-123" vertex="1">
          <mxGeometry width="380" height="220" as="geometry" />
        </mxCell>
        <mxCell id="xPt96xxPR4awn_NFNTdS-9" value="" style="shape=flexArrow;endArrow=classic;html=1;fontSize=20;strokeColor=#3399FF;strokeWidth=3;fillColor=#66B2FF;entryX=0.5;entryY=1;entryDx=0;entryDy=0;width=4;endSize=6.88;" parent="xPt96xxPR4awn_NFNTdS-123" target="xPt96xxPR4awn_NFNTdS-8" edge="1">
          <mxGeometry x="95" y="150" width="50" height="60" as="geometry">
            <mxPoint x="195" y="390" as="sourcePoint" />
            <mxPoint x="45" y="306" as="targetPoint" />
            <Array as="points" />
          </mxGeometry>
        </mxCell>
        <mxCell id="AIwET5hUKQQfWUFz92iD-1" value="" style="group" parent="1" vertex="1" connectable="0">
          <mxGeometry x="-1070" y="1150" width="750" height="680" as="geometry" />
        </mxCell>
        <mxCell id="xPt96xxPR4awn_NFNTdS-147" value="&lt;p style=&quot;color: rgb(255 , 255 , 255) ; text-indent: 0in ; line-height: normal ; margin: 0pt 0in ; word-break: normal ; font-size: 15px&quot;&gt;&lt;/p&gt;&lt;span style=&quot;text-indent: 0in&quot;&gt;&lt;font face=&quot;dengxian&quot;&gt;&lt;div style=&quot;font-size: 15px&quot;&gt;PropertyEditorRegistrySupport&lt;/div&gt;&lt;div style=&quot;font-size: 15px&quot;&gt;&lt;br&gt;&lt;/div&gt;&lt;div style=&quot;font-size: 15px&quot;&gt;PropertyEditorRegistry接口的基本实现.&lt;/div&gt;&lt;div style=&quot;font-size: 15px&quot;&gt;提供对默认编辑器和自定义编辑器的管理.&lt;/div&gt;&lt;div style=&quot;font-size: 15px&quot;&gt;主要用作BeanWrapperImpl基类.&lt;/div&gt;&lt;div style=&quot;font-size: 15px&quot;&gt;&lt;br&gt;&lt;/div&gt;&lt;div style=&quot;font-size: 15px&quot;&gt;同时管理两种转换体系：&lt;/div&gt;&lt;div style=&quot;font-size: 15px&quot;&gt;1. java.bean.PropertyEditor&lt;/div&gt;&lt;div style=&quot;font-size: 15px&quot;&gt;2. ConversionService&lt;/div&gt;&lt;div style=&quot;font-size: 15px&quot;&gt;&lt;br&gt;&lt;/div&gt;&lt;div style=&quot;font-size: 15px&quot;&gt;&lt;br&gt;&lt;/div&gt;&lt;div style=&quot;font-size: 15px&quot;&gt;管理两组编辑器&lt;/div&gt;&lt;div style=&quot;font-size: 15px&quot;&gt;1. 默认编辑器&lt;/div&gt;&lt;div style=&quot;font-size: 15px&quot;&gt;&amp;nbsp; &amp;nbsp; - defaultEditors&lt;/div&gt;&lt;div style=&quot;font-size: 15px&quot;&gt;&amp;nbsp; &amp;nbsp; - overriddenDefaultEditors&lt;/div&gt;&lt;div style=&quot;font-size: 15px&quot;&gt;&amp;nbsp; &amp;nbsp; - 访问时 overriddenDefaultEditors 的优先级更高&lt;/div&gt;&lt;div style=&quot;font-size: 15px&quot;&gt;2. 自定义编辑器&lt;/div&gt;&lt;div style=&quot;font-size: 15px&quot;&gt;&lt;br&gt;&lt;/div&gt;&lt;div style=&quot;font-size: 15px&quot;&gt;&amp;nbsp; &amp;nbsp; - customEditorsForPath&lt;/div&gt;&lt;div style=&quot;font-size: 15px&quot;&gt;&amp;nbsp; &amp;nbsp; &amp;nbsp; &amp;nbsp; -&amp;nbsp;保存【类中的某个属性】对应的【专门】编辑器&lt;/div&gt;&lt;div style=&quot;font-size: 15px&quot;&gt;&amp;nbsp; &amp;nbsp; - customEditors，&lt;/div&gt;&lt;div style=&quot;font-size: 15px&quot;&gt;&amp;nbsp; &amp;nbsp; &amp;nbsp; &amp;nbsp; - 保存某种类型的【普通】编辑器&lt;/div&gt;&lt;div style=&quot;font-size: 15px&quot;&gt;&amp;nbsp; &amp;nbsp; - 这两者是互斥的！！!&lt;/div&gt;&lt;div style=&quot;font-size: 15px&quot;&gt;&lt;br&gt;&lt;/div&gt;&lt;div style=&quot;font-size: 15px&quot;&gt;&amp;nbsp; &amp;nbsp; - customEditorCache，如果类型 A 找不到编辑器，但是找到了其父类/接口 B 的编辑器，则 B 的编辑器引用也会保存一份到【customEditorCache】因为每次搜索都需要从头遍历【customEditors】，消耗比较大，所以缓存在这里&lt;/div&gt;&lt;div style=&quot;font-size: 15px&quot;&gt;&lt;br&gt;&lt;/div&gt;&lt;div style=&quot;font-size: 15px&quot;&gt;&lt;br&gt;&lt;/div&gt;&lt;div style=&quot;font-size: 15px&quot;&gt;-【customEditorCache】的注意事项&lt;/div&gt;&lt;div&gt;&lt;span style=&quot;font-size: 15px&quot;&gt;&amp;nbsp; &amp;nbsp; - 每次调用【registerCustomEditor】注册自定义编辑器时，都会清空缓存&lt;/span&gt;&lt;/div&gt;&lt;div&gt;&lt;span style=&quot;font-size: 15px&quot;&gt;&amp;nbsp; &amp;nbsp; - 所以不应该在【运行期】注册编辑器，避免【缓存失效】！！！&lt;/span&gt;&lt;br&gt;&lt;/div&gt;&lt;/font&gt;&lt;/span&gt;" style="rounded=0;whiteSpace=wrap;html=1;strokeWidth=2;align=left;fillColor=#d5e8d4;spacing=10;strokeColor=#82b366;" parent="AIwET5hUKQQfWUFz92iD-1" vertex="1">
          <mxGeometry width="690" height="600" as="geometry" />
        </mxCell>
        <mxCell id="xPt96xxPR4awn_NFNTdS-148" value="" style="shape=flexArrow;endArrow=classic;html=1;fontSize=20;strokeColor=#3399FF;strokeWidth=3;fillColor=#66B2FF;width=4;endSize=6.88;" parent="AIwET5hUKQQfWUFz92iD-1" target="xPt96xxPR4awn_NFNTdS-147" edge="1">
          <mxGeometry x="637.1794871794872" y="440" width="56.41025641025641" height="60.00000000000001" as="geometry">
            <mxPoint x="750" y="680" as="sourcePoint" />
            <mxPoint x="580.7692307692307" y="596" as="targetPoint" />
            <Array as="points" />
          </mxGeometry>
        </mxCell>
        <mxCell id="8VRioN3-lYCMi94_UGDz-6" style="edgeStyle=none;rounded=0;orthogonalLoop=1;jettySize=auto;html=1;entryX=0;entryY=0.5;entryDx=0;entryDy=0;startArrow=none;startFill=0;strokeWidth=3;exitX=1;exitY=0.5;exitDx=0;exitDy=0;" parent="1" source="8VRioN3-lYCMi94_UGDz-4" target="xPt96xxPR4awn_NFNTdS-147" edge="1">
          <mxGeometry relative="1" as="geometry" />
        </mxCell>
        <mxCell id="8VRioN3-lYCMi94_UGDz-7" value="将 PropertyEditor 注册到 Registry" style="edgeLabel;html=1;align=center;verticalAlign=middle;resizable=0;points=[];fontSize=13;" parent="8VRioN3-lYCMi94_UGDz-6" vertex="1" connectable="0">
          <mxGeometry x="-0.3314" y="5" relative="1" as="geometry">
            <mxPoint x="23" y="-8" as="offset" />
          </mxGeometry>
        </mxCell>
        <mxCell id="8VRioN3-lYCMi94_UGDz-4" value="&lt;p style=&quot;color: rgb(255 , 255 , 255) ; text-indent: 0in ; line-height: normal ; margin: 0pt 0in ; word-break: normal ; font-size: 15px&quot;&gt;&lt;/p&gt;&lt;span style=&quot;text-indent: 0in&quot;&gt;&lt;div&gt;&lt;div&gt;&lt;font face=&quot;dengxian&quot;&gt;PropertyEditorRegistrar&lt;/font&gt;&lt;/div&gt;&lt;div&gt;&lt;font face=&quot;dengxian&quot;&gt;&lt;br&gt;&lt;/font&gt;&lt;/div&gt;&lt;div&gt;&lt;font face=&quot;dengxian&quot; size=&quot;1&quot; color=&quot;#ff0000&quot;&gt;&lt;b style=&quot;font-size: 16px&quot;&gt;- 【编辑器】注册员&lt;/b&gt;&lt;/font&gt;&lt;/div&gt;&lt;div&gt;&lt;font face=&quot;dengxian&quot;&gt;&amp;nbsp; &amp;nbsp; - 负责将PropertyEditor 注册到 PropertyEditorRegistry&lt;/font&gt;&lt;/div&gt;&lt;div&gt;&lt;font face=&quot;dengxian&quot;&gt;&amp;nbsp; &amp;nbsp; - 实际执行注册的还是 PropertyEditorRegistry 的实现类&lt;/font&gt;&lt;/div&gt;&lt;div&gt;&lt;font face=&quot;dengxian&quot;&gt;&amp;nbsp; &amp;nbsp; - 可以用来屏蔽一些实现。&lt;/font&gt;&lt;/div&gt;&lt;div&gt;&lt;font face=&quot;dengxian&quot;&gt;&lt;br&gt;&lt;/font&gt;&lt;/div&gt;&lt;div&gt;&lt;font face=&quot;dengxian&quot;&gt;- PropertyEditorRegistry 注册的复杂性&lt;/font&gt;&lt;/div&gt;&lt;div&gt;&lt;font face=&quot;dengxian&quot;&gt;&amp;nbsp; &amp;nbsp; - 至少需要同时提供: 【类型】 + 【编辑器】&lt;/font&gt;&lt;/div&gt;&lt;div&gt;&lt;font face=&quot;dengxian&quot;&gt;&amp;nbsp; &amp;nbsp; - 调用时需要重复调用实现注册&lt;/font&gt;&lt;/div&gt;&lt;div&gt;&lt;font face=&quot;dengxian&quot;&gt;&amp;nbsp; &amp;nbsp; - 需要提前决定是注册到【默认编辑器】，还是【自定义编辑器】&lt;/font&gt;&lt;/div&gt;&lt;div&gt;&lt;font face=&quot;dengxian&quot;&gt;&amp;nbsp; &amp;nbsp; &amp;nbsp; &amp;nbsp; - 有时候还需要根据 PropertyEditorRegistry 的具体类型来决定&lt;/font&gt;&lt;/div&gt;&lt;div&gt;&lt;font face=&quot;dengxian&quot;&gt;&lt;br&gt;&lt;/font&gt;&lt;/div&gt;&lt;div&gt;&lt;font face=&quot;dengxian&quot;&gt;- 使用 PropertyEditorRegistrar&lt;/font&gt;&lt;/div&gt;&lt;div&gt;&lt;font face=&quot;dengxian&quot;&gt;&amp;nbsp; &amp;nbsp; - 可以提前将【编辑器】注册到 Registrar 内部，或者直接在 Registrar 内部生成&lt;/font&gt;&lt;/div&gt;&lt;div&gt;&lt;font face=&quot;dengxian&quot;&gt;&amp;nbsp; &amp;nbsp; - 通过 Registrar.registerCustomEditors 来注册【编辑器】&lt;/font&gt;&lt;/div&gt;&lt;div&gt;&lt;font face=&quot;dengxian&quot;&gt;&amp;nbsp; &amp;nbsp; - 只需要对一个 Registry 调用一次即可&lt;/font&gt;&lt;/div&gt;&lt;div&gt;&lt;font face=&quot;dengxian&quot;&gt;&amp;nbsp; &amp;nbsp; - 可以在方法内部，根据不同的情况，将编辑器注册到 【默认编辑器】，或者【自定义编辑器】&lt;/font&gt;&lt;/div&gt;&lt;/div&gt;&lt;div&gt;&lt;br&gt;&lt;/div&gt;&lt;/span&gt;" style="rounded=0;whiteSpace=wrap;html=1;strokeWidth=2;align=left;fillColor=#fff2cc;spacing=10;strokeColor=#d6b656;fontSize=15;" parent="1" vertex="1">
          <mxGeometry x="-2120" y="1254" width="714.5" height="400" as="geometry" />
        </mxCell>
        <mxCell id="8VRioN3-lYCMi94_UGDz-10" style="edgeStyle=none;rounded=0;orthogonalLoop=1;jettySize=auto;html=1;entryX=0.5;entryY=1;entryDx=0;entryDy=0;fontSize=13;startArrow=none;startFill=0;strokeWidth=3;exitX=0.5;exitY=0;exitDx=0;exitDy=0;" parent="1" source="8VRioN3-lYCMi94_UGDz-9" target="8VRioN3-lYCMi94_UGDz-4" edge="1">
          <mxGeometry relative="1" as="geometry" />
        </mxCell>
        <mxCell id="8VRioN3-lYCMi94_UGDz-9" value="&lt;p style=&quot;color: rgb(255 , 255 , 255) ; text-indent: 0in ; line-height: normal ; margin: 0pt 0in ; word-break: normal ; font-size: 15px&quot;&gt;&lt;/p&gt;&lt;span style=&quot;text-indent: 0in ; font-size: 15px&quot;&gt;&lt;font face=&quot;dengxian&quot;&gt;&lt;div&gt;org.springframework.beans.support.ResourceEditorRegistrar&lt;/div&gt;&lt;div&gt;&lt;br&gt;&lt;/div&gt;&lt;div&gt;- spring-framework 下的唯一实现&lt;/div&gt;&lt;div&gt;&lt;br&gt;&lt;/div&gt;&lt;div&gt;- 负责将 ResourceEditor 及其扩展编辑器，注册到 Registry&lt;/div&gt;&lt;div&gt;&amp;nbsp; &amp;nbsp; - 如果 Registry 是 PropertyEditorRegistrySupport 类型，则【覆盖默认编辑器】&lt;/div&gt;&lt;div&gt;&amp;nbsp; &amp;nbsp; - 否则，注册到【自定义编辑器】&lt;/div&gt;&lt;div&gt;&lt;br&gt;&lt;/div&gt;&lt;div&gt;- 主要用途&lt;/div&gt;&lt;div&gt;&amp;nbsp; &amp;nbsp; - 在 ApplicationContext 中创建，在Bean创建过程中辅助 BeanWrapper 实现资源加载、转换&lt;/div&gt;&lt;div&gt;&amp;nbsp; &amp;nbsp; - 创建方式： 在初始化时创建，使 ApplicationContext 具备资源处理能力&lt;/div&gt;&lt;div&gt;&amp;nbsp; &amp;nbsp; &amp;nbsp; &amp;nbsp; - beanFactory.addPropertyEditorRegistrar(new ResourceEditorRegistrar(this, getEnvironment()));&lt;/div&gt;&lt;/font&gt;&lt;/span&gt;" style="rounded=0;whiteSpace=wrap;html=1;strokeWidth=2;align=left;fillColor=#d5e8d4;spacing=10;strokeColor=#82b366;" parent="1" vertex="1">
          <mxGeometry x="-2170.93" y="1900" width="816.37" height="270" as="geometry" />
        </mxCell>
        <mxCell id="xPt96xxPR4awn_NFNTdS-34" value="早期类型转换PropertyEditor" style="" parent="0" />
        <mxCell id="K-hvAxbb3W0HP9FS1P4h-2" style="edgeStyle=none;rounded=0;orthogonalLoop=1;jettySize=auto;html=1;entryX=0.5;entryY=0;entryDx=0;entryDy=0;strokeWidth=3;exitX=0;exitY=0.5;exitDx=0;exitDy=0;" parent="xPt96xxPR4awn_NFNTdS-34" source="xPt96xxPR4awn_NFNTdS-131" target="xPt96xxPR4awn_NFNTdS-147" edge="1">
          <mxGeometry relative="1" as="geometry" />
        </mxCell>
        <mxCell id="K-hvAxbb3W0HP9FS1P4h-4" value="注册到" style="edgeLabel;html=1;align=center;verticalAlign=middle;resizable=0;points=[];fontSize=20;" parent="K-hvAxbb3W0HP9FS1P4h-2" vertex="1" connectable="0">
          <mxGeometry x="-0.2766" y="-1" relative="1" as="geometry">
            <mxPoint x="-39" y="-5" as="offset" />
          </mxGeometry>
        </mxCell>
        <mxCell id="xPt96xxPR4awn_NFNTdS-131" value="&lt;p style=&quot;color: rgb(255 , 255 , 255) ; text-indent: 0in ; line-height: normal ; margin: 0pt 0in ; word-break: normal ; font-size: 17px&quot;&gt;&lt;/p&gt;&lt;span style=&quot;color: rgb(0 , 0 , 0) ; font-family: &amp;#34;dengxian&amp;#34; ; font-size: 17px&quot;&gt;java.beans.&lt;/span&gt;&lt;span style=&quot;color: rgb(0 , 0 , 0) ; font-family: &amp;#34;dengxian&amp;#34; ; font-size: 17px&quot;&gt;&amp;nbsp;PropertyEditorSupport&lt;/span&gt;&lt;span style=&quot;color: rgb(0 , 0 , 0) ; font-family: &amp;#34;dengxian&amp;#34; ; font-size: 17px&quot;&gt;&amp;nbsp;的特殊实现&lt;br&gt;&lt;/span&gt;&lt;span style=&quot;text-indent: 0in&quot;&gt;（org.springframework.beans.propertyeditors以外的实现）&lt;br style=&quot;font-size: 17px&quot;&gt;&lt;/span&gt;" style="rounded=0;whiteSpace=wrap;html=1;strokeWidth=2;align=left;fillColor=#f5f5f5;spacing=10;strokeColor=#666666;fontSize=17;fontColor=#333333;verticalAlign=top;" parent="xPt96xxPR4awn_NFNTdS-34" vertex="1">
          <mxGeometry x="-200" y="50" width="1140" height="620" as="geometry" />
        </mxCell>
        <mxCell id="8VRioN3-lYCMi94_UGDz-14" style="edgeStyle=none;rounded=0;orthogonalLoop=1;jettySize=auto;html=1;entryX=0.5;entryY=1;entryDx=0;entryDy=0;fontSize=13;startArrow=none;startFill=0;strokeWidth=3;exitX=0.5;exitY=0;exitDx=0;exitDy=0;" parent="xPt96xxPR4awn_NFNTdS-34" source="xPt96xxPR4awn_NFNTdS-36" target="8VRioN3-lYCMi94_UGDz-13" edge="1">
          <mxGeometry relative="1" as="geometry" />
        </mxCell>
        <mxCell id="xPt96xxPR4awn_NFNTdS-36" value="&lt;p style=&quot;color: rgb(255 , 255 , 255) ; text-indent: 0in ; line-height: normal ; margin: 0pt 0in ; word-break: normal ; font-size: 14px&quot;&gt;&lt;/p&gt;&lt;span style=&quot;text-indent: 0in ; font-size: 14px&quot;&gt;&lt;font face=&quot;dengxian&quot; style=&quot;font-size: 14px&quot;&gt;&lt;span style=&quot;font-size: 14px&quot;&gt;java.beans.PropertyEditor&lt;br&gt;&lt;br&gt;实现 String &amp;lt;----&amp;gt; Object 直接的双向转换&lt;br style=&quot;font-size: 14px&quot;&gt;&lt;br&gt;&lt;br&gt;&lt;/span&gt;&lt;/font&gt;&lt;div style=&quot;font-size: 14px&quot;&gt;&lt;div&gt;// 字符串 与 实体对象之间的转换方法&lt;br&gt;&lt;/div&gt;&lt;div&gt;String getAsText()：输出。把属性值转换成String输出&lt;/div&gt;&lt;div&gt;void setAsText(String text)：输入。将String转换为属性值类型输入&lt;/div&gt;&lt;/div&gt;&lt;div style=&quot;font-size: 14px&quot;&gt;&lt;br style=&quot;font-size: 14px&quot;&gt;&lt;/div&gt;&lt;/span&gt;" style="rounded=0;whiteSpace=wrap;html=1;strokeWidth=2;align=left;fillColor=#fff2cc;spacing=10;strokeColor=#d6b656;fontSize=14;" parent="xPt96xxPR4awn_NFNTdS-34" vertex="1">
          <mxGeometry x="-720" y="-480" width="430" height="210" as="geometry" />
        </mxCell>
        <mxCell id="xPt96xxPR4awn_NFNTdS-39" style="rounded=0;orthogonalLoop=1;jettySize=auto;html=1;strokeWidth=3;" parent="xPt96xxPR4awn_NFNTdS-34" source="xPt96xxPR4awn_NFNTdS-38" target="xPt96xxPR4awn_NFNTdS-36" edge="1">
          <mxGeometry relative="1" as="geometry" />
        </mxCell>
        <mxCell id="xPt96xxPR4awn_NFNTdS-38" value="&lt;p style=&quot;color: rgb(255, 255, 255); text-indent: 0in; line-height: normal; margin: 0pt 0in; word-break: normal; font-size: 15px;&quot;&gt;&lt;/p&gt;&lt;span style=&quot;text-indent: 0in; font-size: 15px;&quot;&gt;&lt;font face=&quot;dengxian&quot; style=&quot;font-size: 15px;&quot;&gt;&lt;span style=&quot;font-size: 15px;&quot;&gt;org.springframework.beans.propertyeditors&lt;br style=&quot;font-size: 15px;&quot;&gt;&lt;/span&gt;&lt;/font&gt;&lt;br style=&quot;font-size: 15px;&quot;&gt;包下的类分别实现: 【String &amp;lt;---&amp;gt; 各种类型】 的转换&lt;br style=&quot;font-size: 15px;&quot;&gt;&lt;/span&gt;" style="rounded=0;whiteSpace=wrap;html=1;strokeWidth=2;align=left;fillColor=#fff2cc;spacing=10;strokeColor=#d6b656;fontSize=15;" parent="xPt96xxPR4awn_NFNTdS-34" vertex="1">
          <mxGeometry x="-692.25" y="-200" width="374.5" height="110" as="geometry" />
        </mxCell>
        <mxCell id="xPt96xxPR4awn_NFNTdS-41" style="edgeStyle=none;rounded=0;orthogonalLoop=1;jettySize=auto;html=1;strokeWidth=3;entryX=0.5;entryY=1;entryDx=0;entryDy=0;" parent="xPt96xxPR4awn_NFNTdS-34" source="xPt96xxPR4awn_NFNTdS-40" target="xPt96xxPR4awn_NFNTdS-38" edge="1">
          <mxGeometry relative="1" as="geometry" />
        </mxCell>
        <mxCell id="K-hvAxbb3W0HP9FS1P4h-1" style="rounded=0;orthogonalLoop=1;jettySize=auto;html=1;entryX=0.5;entryY=0;entryDx=0;entryDy=0;strokeWidth=3;" parent="xPt96xxPR4awn_NFNTdS-34" source="xPt96xxPR4awn_NFNTdS-40" target="xPt96xxPR4awn_NFNTdS-147" edge="1">
          <mxGeometry relative="1" as="geometry" />
        </mxCell>
        <mxCell id="K-hvAxbb3W0HP9FS1P4h-3" value="注册到" style="edgeLabel;html=1;align=center;verticalAlign=middle;resizable=0;points=[];fontSize=20;" parent="K-hvAxbb3W0HP9FS1P4h-1" vertex="1" connectable="0">
          <mxGeometry x="-0.1988" y="2" relative="1" as="geometry">
            <mxPoint x="-45" y="25" as="offset" />
          </mxGeometry>
        </mxCell>
        <mxCell id="xPt96xxPR4awn_NFNTdS-40" value="&lt;p style=&quot;color: rgb(255 , 255 , 255) ; text-indent: 0in ; line-height: normal ; margin: 0pt 0in ; word-break: normal ; font-size: 15px&quot;&gt;&lt;/p&gt;&lt;span style=&quot;text-indent: 0in&quot;&gt;&lt;div&gt;&lt;font face=&quot;dengxian&quot;&gt;&lt;span style=&quot;font-size: 15px&quot;&gt;StringArrayPropertyEditor&lt;/span&gt;&lt;/font&gt;&lt;/div&gt;&lt;div&gt;&lt;font face=&quot;dengxian&quot;&gt;&lt;span style=&quot;font-size: 15px&quot;&gt;【,】分割的字符串 和 String[] 互相转换&lt;/span&gt;&lt;/font&gt;&lt;/div&gt;&lt;div style=&quot;color: black ; font-family: &amp;#34;dengxian&amp;#34; ; font-size: 15px&quot;&gt;&lt;br&gt;&lt;/div&gt;&lt;/span&gt;" style="rounded=0;whiteSpace=wrap;html=1;strokeWidth=2;align=left;fillColor=#d5e8d4;spacing=10;strokeColor=#82b366;" parent="xPt96xxPR4awn_NFNTdS-34" vertex="1">
          <mxGeometry x="-650" y="30" width="290" height="100" as="geometry" />
        </mxCell>
        <mxCell id="xPt96xxPR4awn_NFNTdS-47" style="edgeStyle=none;rounded=0;orthogonalLoop=1;jettySize=auto;html=1;entryX=1;entryY=0.25;entryDx=0;entryDy=0;fontSize=14;strokeWidth=3;" parent="xPt96xxPR4awn_NFNTdS-34" source="xPt96xxPR4awn_NFNTdS-43" target="xPt96xxPR4awn_NFNTdS-36" edge="1">
          <mxGeometry relative="1" as="geometry" />
        </mxCell>
        <mxCell id="xPt96xxPR4awn_NFNTdS-43" value="&lt;div&gt;设计缺陷：&lt;/div&gt;&lt;div&gt;1. 职责不单一： 该接口有非常多的方法，但只用到2个而已&lt;/div&gt;&lt;div&gt;2. 类型不安全： 内部保存的值都是 Object 类型&lt;/div&gt;&lt;div&gt;3. 线程不安全：依赖于setValue()后getValue()，实例是线程不安全的&lt;/div&gt;&lt;div&gt;4. 语义不清晰：从语义上根本不能知道它是用于类型转换的组件&lt;/div&gt;&lt;div&gt;5. 只能实现String &amp;lt;----&amp;gt; Object 的转换， Object &amp;lt;----&amp;gt; Object&lt;/div&gt;&lt;div&gt;&lt;br&gt;&lt;/div&gt;&lt;div&gt;本身是用来处理 GUI 的类型转换的，所以在设计上没有考虑过多的内容&lt;/div&gt;" style="rounded=0;whiteSpace=wrap;html=1;strokeWidth=2;align=left;spacing=10;strokeColor=#b85450;fillColor=#FF9999;fontSize=14;" parent="xPt96xxPR4awn_NFNTdS-34" vertex="1">
          <mxGeometry x="-200" y="-520" width="490" height="190" as="geometry" />
        </mxCell>
        <mxCell id="xPt96xxPR4awn_NFNTdS-125" style="rounded=0;orthogonalLoop=1;jettySize=auto;html=1;fontSize=20;startArrow=none;startFill=0;endArrow=classic;endFill=1;strokeWidth=3;exitX=0.5;exitY=0;exitDx=0;exitDy=0;" parent="xPt96xxPR4awn_NFNTdS-34" source="xPt96xxPR4awn_NFNTdS-124" edge="1">
          <mxGeometry relative="1" as="geometry">
            <mxPoint x="-505" y="-270" as="targetPoint" />
          </mxGeometry>
        </mxCell>
        <mxCell id="xPt96xxPR4awn_NFNTdS-124" value="&lt;p style=&quot;color: rgb(255 , 255 , 255) ; text-indent: 0in ; line-height: normal ; margin: 0pt 0in ; word-break: normal ; font-size: 14px&quot;&gt;&lt;/p&gt;&lt;span style=&quot;text-indent: 0in ; font-size: 14px&quot;&gt;&lt;font face=&quot;dengxian&quot; style=&quot;font-size: 14px&quot;&gt;&lt;span style=&quot;font-size: 14px&quot;&gt;java.beans.PropertyEditorSupport&lt;br style=&quot;font-size: 14px&quot;&gt;&lt;/span&gt;&lt;/font&gt;&lt;br style=&quot;font-size: 14px&quot;&gt;JDK的内置接口实现类，&lt;font color=&quot;#ff0000&quot;&gt;&lt;b&gt;线程不安全&lt;/b&gt;&lt;/font&gt;&lt;br style=&quot;font-size: 14px&quot;&gt;&lt;br style=&quot;font-size: 14px&quot;&gt;子类继承后，只要实现 以下两个方法即可：&lt;br style=&quot;font-size: 14px&quot;&gt;getAsText&lt;br style=&quot;font-size: 14px&quot;&gt;setAsText&lt;br style=&quot;font-size: 14px&quot;&gt;&lt;/span&gt;" style="rounded=0;whiteSpace=wrap;html=1;strokeWidth=2;align=left;fillColor=#d5e8d4;spacing=10;strokeColor=#82b366;fontSize=14;" parent="xPt96xxPR4awn_NFNTdS-34" vertex="1">
          <mxGeometry x="-220" y="-210" width="260" height="150" as="geometry" />
        </mxCell>
        <mxCell id="xPt96xxPR4awn_NFNTdS-128" style="edgeStyle=none;rounded=0;orthogonalLoop=1;jettySize=auto;html=1;fontSize=14;startArrow=none;startFill=0;endArrow=classic;endFill=1;strokeWidth=3;exitX=0;exitY=0.5;exitDx=0;exitDy=0;entryX=1;entryY=0.5;entryDx=0;entryDy=0;" parent="xPt96xxPR4awn_NFNTdS-34" source="xPt96xxPR4awn_NFNTdS-127" target="xPt96xxPR4awn_NFNTdS-124" edge="1">
          <mxGeometry relative="1" as="geometry" />
        </mxCell>
        <mxCell id="xPt96xxPR4awn_NFNTdS-127" value="每次执行&amp;nbsp;&lt;span&gt;setAsText 时，都会先将数据保存到内置属性【value】中&lt;/span&gt;&lt;div&gt;所以操作变成了【有状态的】，所以是【线程不安全的】&lt;/div&gt;" style="rounded=0;whiteSpace=wrap;html=1;strokeWidth=2;align=left;spacing=10;strokeColor=#b85450;fillColor=#FF9999;fontSize=14;" parent="xPt96xxPR4awn_NFNTdS-34" vertex="1">
          <mxGeometry x="105" y="-260" width="445" height="70" as="geometry" />
        </mxCell>
        <mxCell id="xPt96xxPR4awn_NFNTdS-130" style="edgeStyle=none;rounded=0;orthogonalLoop=1;jettySize=auto;html=1;entryX=1;entryY=0.5;entryDx=0;entryDy=0;fontSize=14;startArrow=none;startFill=0;endArrow=classic;endFill=1;strokeWidth=3;exitX=0;exitY=0.5;exitDx=0;exitDy=0;" parent="xPt96xxPR4awn_NFNTdS-34" source="xPt96xxPR4awn_NFNTdS-129" target="xPt96xxPR4awn_NFNTdS-124" edge="1">
          <mxGeometry relative="1" as="geometry" />
        </mxCell>
        <mxCell id="xPt96xxPR4awn_NFNTdS-129" value="spring 所有的内置扩展都是基于【&lt;span style=&quot;font-family: &amp;#34;dengxian&amp;#34;&quot;&gt;PropertyEditorSupport&lt;/span&gt;】的，&lt;br&gt;所以【都是线程不安全的】" style="rounded=0;whiteSpace=wrap;html=1;strokeWidth=2;align=left;spacing=10;strokeColor=#b85450;fillColor=#FF9999;fontSize=14;" parent="xPt96xxPR4awn_NFNTdS-34" vertex="1">
          <mxGeometry x="100" y="-130" width="445" height="70" as="geometry" />
        </mxCell>
        <mxCell id="xPt96xxPR4awn_NFNTdS-136" style="edgeStyle=none;rounded=0;orthogonalLoop=1;jettySize=auto;html=1;entryX=0.5;entryY=1;entryDx=0;entryDy=0;fontSize=17;startArrow=none;startFill=0;endArrow=classic;endFill=1;strokeWidth=3;" parent="xPt96xxPR4awn_NFNTdS-34" source="xPt96xxPR4awn_NFNTdS-131" target="xPt96xxPR4awn_NFNTdS-124" edge="1">
          <mxGeometry relative="1" as="geometry" />
        </mxCell>
        <mxCell id="xPt96xxPR4awn_NFNTdS-139" value="" style="group" parent="xPt96xxPR4awn_NFNTdS-34" vertex="1" connectable="0">
          <mxGeometry x="390" y="100" width="510" height="540" as="geometry" />
        </mxCell>
        <mxCell id="xPt96xxPR4awn_NFNTdS-138" value="&lt;p style=&quot;color: rgb(255 , 255 , 255) ; text-indent: 0in ; line-height: normal ; margin: 0pt 0in ; word-break: normal ; font-size: 17px&quot;&gt;&lt;/p&gt;&lt;span style=&quot;text-indent: 0in&quot;&gt;&lt;font color=&quot;#000000&quot; face=&quot;dengxian&quot;&gt;转换器&lt;/font&gt;&lt;br style=&quot;font-size: 17px&quot;&gt;&lt;/span&gt;" style="rounded=0;whiteSpace=wrap;html=1;strokeWidth=2;align=left;fillColor=#f5f5f5;spacing=10;strokeColor=#666666;fontSize=17;fontColor=#333333;verticalAlign=top;" parent="xPt96xxPR4awn_NFNTdS-139" vertex="1">
          <mxGeometry width="510" height="540" as="geometry" />
        </mxCell>
        <mxCell id="xPt96xxPR4awn_NFNTdS-132" value="&lt;p style=&quot;color: rgb(255 , 255 , 255) ; text-indent: 0in ; line-height: normal ; margin: 0pt 0in ; word-break: normal ; font-size: 14px&quot;&gt;&lt;/p&gt;&lt;span style=&quot;text-indent: 0in&quot;&gt;&lt;font face=&quot;dengxian&quot;&gt;&lt;div&gt;spring-web&lt;br&gt;&lt;/div&gt;&lt;div&gt;&lt;br&gt;&lt;/div&gt;&lt;div&gt;org.springframework.http.MediaTypeEditor&lt;/div&gt;&lt;div&gt;&lt;br&gt;&lt;/div&gt;&lt;div&gt;可以把text/html、application/json 等字符串转为 MediaType 对象&lt;/div&gt;&lt;/font&gt;&lt;/span&gt;" style="rounded=0;whiteSpace=wrap;html=1;strokeWidth=2;align=left;fillColor=#d5e8d4;spacing=10;strokeColor=#82b366;fontSize=14;" parent="xPt96xxPR4awn_NFNTdS-139" vertex="1">
          <mxGeometry x="40" y="50" width="310" height="120" as="geometry" />
        </mxCell>
        <mxCell id="xPt96xxPR4awn_NFNTdS-133" value="&lt;p style=&quot;color: rgb(255 , 255 , 255) ; text-indent: 0in ; line-height: normal ; margin: 0pt 0in ; word-break: normal ; font-size: 14px&quot;&gt;&lt;/p&gt;&lt;span style=&quot;text-indent: 0in&quot;&gt;&lt;font face=&quot;dengxian&quot;&gt;&lt;div&gt;org.springframework.beans.PropertyValuesEditor&lt;/div&gt;&lt;div&gt;&lt;br&gt;&lt;/div&gt;&lt;div&gt;将k-v字符串（Properties格式）转换为一个PropertyValues，&lt;/div&gt;&lt;div&gt;方便放进Environment里&lt;/div&gt;&lt;/font&gt;&lt;/span&gt;" style="rounded=0;whiteSpace=wrap;html=1;strokeWidth=2;align=left;fillColor=#d5e8d4;spacing=10;strokeColor=#82b366;fontSize=14;" parent="xPt96xxPR4awn_NFNTdS-139" vertex="1">
          <mxGeometry x="40" y="194" width="420" height="120" as="geometry" />
        </mxCell>
        <mxCell id="xPt96xxPR4awn_NFNTdS-134" value="&lt;p style=&quot;color: rgb(255 , 255 , 255) ; text-indent: 0in ; line-height: normal ; margin: 0pt 0in ; word-break: normal ; font-size: 14px&quot;&gt;&lt;/p&gt;&lt;span style=&quot;text-indent: 0in&quot;&gt;&lt;font face=&quot;dengxian&quot;&gt;&lt;div&gt;org.springframework.core.io.ResourceEditor&lt;/div&gt;&lt;div&gt;&lt;br&gt;&lt;/div&gt;&lt;div&gt;String --&amp;gt; Resource资源&lt;/div&gt;&lt;div&gt;&lt;br&gt;&lt;/div&gt;&lt;div&gt;作为基础设施，广泛被用到Spring的很多地方&lt;/div&gt;&lt;div&gt;&lt;br&gt;&lt;/div&gt;&lt;div&gt;标准的FileEditor、InputSourceEditor、InputStreamEditor、URLEditor等等&lt;/div&gt;&lt;div&gt;与资源相关的转换器，均依赖它而实现&lt;/div&gt;&lt;/font&gt;&lt;/span&gt;" style="rounded=0;whiteSpace=wrap;html=1;strokeWidth=2;align=left;fillColor=#d5e8d4;spacing=10;strokeColor=#82b366;fontSize=14;" parent="xPt96xxPR4awn_NFNTdS-139" vertex="1">
          <mxGeometry x="40" y="340" width="420" height="180" as="geometry" />
        </mxCell>
        <mxCell id="xPt96xxPR4awn_NFNTdS-143" value="&lt;p style=&quot;color: rgb(255 , 255 , 255) ; text-indent: 0in ; line-height: normal ; margin: 0pt 0in ; word-break: normal ; font-size: 14px&quot;&gt;&lt;/p&gt;&lt;span style=&quot;text-indent: 0in&quot;&gt;&lt;font face=&quot;dengxian&quot;&gt;&lt;div&gt;AbstractPropertyBindingResult.findEditor()&lt;/div&gt;&lt;div&gt;&lt;br&gt;&lt;/div&gt;&lt;div&gt;该方法在为属性寻找合适的 PropertyEditor 时，&lt;/div&gt;&lt;div&gt;如果 ConvertService 支持，就会包装成一个 ConvertingPropertyEditorAdapter&lt;/div&gt;&lt;/font&gt;&lt;/span&gt;" style="rounded=0;whiteSpace=wrap;html=1;strokeWidth=2;align=left;fillColor=#d5e8d4;spacing=10;strokeColor=#82b366;fontSize=14;" parent="xPt96xxPR4awn_NFNTdS-34" vertex="1">
          <mxGeometry x="-150" y="700" width="510" height="140" as="geometry" />
        </mxCell>
        <mxCell id="xPt96xxPR4awn_NFNTdS-145" value="" style="group" parent="xPt96xxPR4awn_NFNTdS-34" vertex="1" connectable="0">
          <mxGeometry x="-180" y="180" width="550" height="470" as="geometry" />
        </mxCell>
        <mxCell id="xPt96xxPR4awn_NFNTdS-140" value="&lt;p style=&quot;color: rgb(255 , 255 , 255) ; text-indent: 0in ; line-height: normal ; margin: 0pt 0in ; word-break: normal ; font-size: 17px&quot;&gt;&lt;/p&gt;&lt;span style=&quot;text-indent: 0in&quot;&gt;&lt;font color=&quot;#000000&quot; face=&quot;dengxian&quot;&gt;适配器&lt;/font&gt;&lt;br style=&quot;font-size: 17px&quot;&gt;&lt;/span&gt;" style="rounded=0;whiteSpace=wrap;html=1;strokeWidth=2;align=left;fillColor=#f5f5f5;spacing=10;strokeColor=#666666;fontSize=17;fontColor=#333333;verticalAlign=top;" parent="xPt96xxPR4awn_NFNTdS-145" vertex="1">
          <mxGeometry width="550" height="470" as="geometry" />
        </mxCell>
        <mxCell id="xPt96xxPR4awn_NFNTdS-141" value="&lt;p style=&quot;color: rgb(255 , 255 , 255) ; text-indent: 0in ; line-height: normal ; margin: 0pt 0in ; word-break: normal ; font-size: 14px&quot;&gt;&lt;/p&gt;&lt;span style=&quot;text-indent: 0in&quot;&gt;&lt;font face=&quot;dengxian&quot;&gt;&lt;div&gt;org.springframework.format.support.FormatterPropertyEditorAdapter&lt;/div&gt;&lt;div&gt;&lt;br&gt;&lt;/div&gt;&lt;div&gt;将 Formatter 接口适配为一个 PropertyEditor&lt;/div&gt;&lt;div&gt;setAsText 由 Formatter.parse() 实现&lt;/div&gt;&lt;div&gt;getAstext 由 Formatter.print() 实现&lt;/div&gt;&lt;div&gt;&lt;br&gt;&lt;/div&gt;&lt;div&gt;此适配器在 DataBinder#addCustomFormatter() 中使用&lt;/div&gt;&lt;/font&gt;&lt;/span&gt;" style="rounded=0;whiteSpace=wrap;html=1;strokeWidth=2;align=left;fillColor=#d5e8d4;spacing=10;strokeColor=#82b366;fontSize=14;" parent="xPt96xxPR4awn_NFNTdS-145" vertex="1">
          <mxGeometry x="30" y="64" width="470" height="170" as="geometry" />
        </mxCell>
        <mxCell id="xPt96xxPR4awn_NFNTdS-142" value="&lt;p style=&quot;color: rgb(255 , 255 , 255) ; text-indent: 0in ; line-height: normal ; margin: 0pt 0in ; word-break: normal ; font-size: 14px&quot;&gt;&lt;/p&gt;&lt;span style=&quot;text-indent: 0in&quot;&gt;&lt;font face=&quot;dengxian&quot;&gt;&lt;div&gt;org.springframework.core.convert.support.ConvertingPropertyEditorAdapter&lt;/div&gt;&lt;div&gt;&lt;br&gt;&lt;/div&gt;&lt;div&gt;将 ConvertService 转化为一个 PropertyEditor&lt;/div&gt;&lt;/font&gt;&lt;/span&gt;" style="rounded=0;whiteSpace=wrap;html=1;strokeWidth=2;align=left;fillColor=#d5e8d4;spacing=10;strokeColor=#82b366;fontSize=14;" parent="xPt96xxPR4awn_NFNTdS-145" vertex="1">
          <mxGeometry x="20" y="270" width="510" height="140" as="geometry" />
        </mxCell>
        <mxCell id="xPt96xxPR4awn_NFNTdS-144" style="edgeStyle=none;rounded=0;orthogonalLoop=1;jettySize=auto;html=1;entryX=0.5;entryY=1;entryDx=0;entryDy=0;fontSize=17;startArrow=none;startFill=0;endArrow=classic;endFill=1;strokeWidth=3;" parent="xPt96xxPR4awn_NFNTdS-34" source="xPt96xxPR4awn_NFNTdS-143" target="xPt96xxPR4awn_NFNTdS-142" edge="1">
          <mxGeometry relative="1" as="geometry" />
        </mxCell>
        <mxCell id="xPt96xxPR4awn_NFNTdS-135" style="edgeStyle=none;rounded=0;orthogonalLoop=1;jettySize=auto;html=1;entryX=0.5;entryY=1;entryDx=0;entryDy=0;fontSize=17;startArrow=none;startFill=0;endArrow=classic;endFill=1;strokeWidth=3;exitX=0.5;exitY=0;exitDx=0;exitDy=0;" parent="xPt96xxPR4awn_NFNTdS-34" source="xPt96xxPR4awn_NFNTdS-40" target="xPt96xxPR4awn_NFNTdS-124" edge="1">
          <mxGeometry relative="1" as="geometry" />
        </mxCell>
        <mxCell id="8VRioN3-lYCMi94_UGDz-13" value="&lt;p style=&quot;color: rgb(255 , 255 , 255) ; text-indent: 0in ; line-height: normal ; margin: 0pt 0in ; word-break: normal ; font-size: 15px&quot;&gt;&lt;/p&gt;&lt;span style=&quot;text-indent: 0in&quot;&gt;&lt;font face=&quot;dengxian&quot;&gt;&lt;div style=&quot;font-size: 15px&quot;&gt;BeanUtils.findEditorByConvention&lt;/div&gt;&lt;div style=&quot;font-size: 15px&quot;&gt;&lt;br&gt;&lt;/div&gt;&lt;div&gt;&lt;font style=&quot;font-size: 16px&quot; color=&quot;#ff0000&quot;&gt;&lt;b&gt;实现自定义编辑器的【自动发现】&lt;/b&gt;&lt;/font&gt;&lt;/div&gt;&lt;div style=&quot;font-size: 15px&quot;&gt;&lt;br&gt;&lt;/div&gt;&lt;div style=&quot;font-size: 15px&quot;&gt;- 为了能够找到编辑器并实例化，需要：&lt;/div&gt;&lt;div style=&quot;font-size: 15px&quot;&gt;&amp;nbsp; &amp;nbsp; 1. 编辑器类名 =【指定类的类名】+【Editor】&lt;/div&gt;&lt;div style=&quot;font-size: 15px&quot;&gt;&amp;nbsp; &amp;nbsp; 2. 编辑器 + 自定义类 在【同一包下】&lt;/div&gt;&lt;div style=&quot;font-size: 15px&quot;&gt;&amp;nbsp; &amp;nbsp; 3. 编辑器 是 PropertyEditor 的子类&lt;/div&gt;&lt;div style=&quot;font-size: 15px&quot;&gt;&amp;nbsp; &amp;nbsp; 4. 编辑器 有一个【空参构造器】&lt;/div&gt;&lt;div style=&quot;font-size: 15px&quot;&gt;&lt;span&gt; &lt;/span&gt;&lt;/div&gt;&lt;div style=&quot;font-size: 15px&quot;&gt;&lt;br&gt;&lt;/div&gt;&lt;div style=&quot;font-size: 15px&quot;&gt;- 如果发生异常、类型不正确等问题，会将【指定类型】添加到【未知编辑器列表】中&lt;/div&gt;&lt;div style=&quot;font-size: 15px&quot;&gt;&amp;nbsp; &amp;nbsp; - BeanUtils.unknownEditorTypes&lt;/div&gt;&lt;div style=&quot;font-size: 15px&quot;&gt;&amp;nbsp; &amp;nbsp; - 访问某个类的编辑器时，会先访问 BeanUtils.unknownEditorTypes&lt;/div&gt;&lt;div style=&quot;font-size: 15px&quot;&gt;&amp;nbsp; &amp;nbsp; &amp;nbsp; &amp;nbsp; - 如果这个类型已经存在，说明之前访问过，直接返回 null&lt;/div&gt;&lt;/font&gt;&lt;/span&gt;" style="rounded=0;whiteSpace=wrap;html=1;strokeWidth=2;align=left;fillColor=#d5e8d4;spacing=10;strokeColor=#82b366;" parent="xPt96xxPR4awn_NFNTdS-34" vertex="1">
          <mxGeometry x="-720" y="-930" width="690" height="310" as="geometry" />
        </mxCell>
        <mxCell id="8VRioN3-lYCMi94_UGDz-17" style="edgeStyle=none;rounded=0;orthogonalLoop=1;jettySize=auto;html=1;entryX=1;entryY=0.5;entryDx=0;entryDy=0;fontSize=13;startArrow=none;startFill=0;strokeWidth=3;exitX=0;exitY=0.5;exitDx=0;exitDy=0;" parent="xPt96xxPR4awn_NFNTdS-34" source="8VRioN3-lYCMi94_UGDz-15" target="8VRioN3-lYCMi94_UGDz-13" edge="1">
          <mxGeometry relative="1" as="geometry" />
        </mxCell>
        <mxCell id="8VRioN3-lYCMi94_UGDz-15" value="&lt;div&gt;单独使用 PropertyEditorRegistry 时并未开启这个功能&lt;/div&gt;&lt;div&gt;在使用Spring产品级能力TypeConverter时有提供&lt;/div&gt;" style="rounded=0;whiteSpace=wrap;html=1;strokeWidth=2;align=left;spacing=10;strokeColor=#b85450;fillColor=#FF9999;fontSize=14;" parent="xPt96xxPR4awn_NFNTdS-34" vertex="1">
          <mxGeometry x="70" y="-920" width="390" height="100" as="geometry" />
        </mxCell>
        <mxCell id="8VRioN3-lYCMi94_UGDz-18" style="edgeStyle=none;rounded=0;orthogonalLoop=1;jettySize=auto;html=1;fontSize=13;startArrow=none;startFill=0;strokeWidth=3;entryX=1;entryY=0.5;entryDx=0;entryDy=0;exitX=0;exitY=0.5;exitDx=0;exitDy=0;" parent="xPt96xxPR4awn_NFNTdS-34" source="8VRioN3-lYCMi94_UGDz-16" target="8VRioN3-lYCMi94_UGDz-13" edge="1">
          <mxGeometry relative="1" as="geometry">
            <mxPoint x="-29.99999999999909" y="-770" as="targetPoint" />
          </mxGeometry>
        </mxCell>
        <mxCell id="8VRioN3-lYCMi94_UGDz-16" value="&lt;div&gt;在实际生产中最好不要使用自动机制，&lt;/div&gt;&lt;div&gt;对于可能发生改变的因素，【显示指定】优于【隐式约定】&lt;/div&gt;" style="rounded=0;whiteSpace=wrap;html=1;strokeWidth=2;align=left;spacing=10;strokeColor=#b85450;fillColor=#FF9999;fontSize=14;" parent="xPt96xxPR4awn_NFNTdS-34" vertex="1">
          <mxGeometry x="70" y="-750" width="390" height="120" as="geometry" />
        </mxCell>
        <mxCell id="xPt96xxPR4awn_NFNTdS-49" value="新的类型转换Converter" style="" parent="0" />
        <mxCell id="xPt96xxPR4awn_NFNTdS-92" value="&lt;p style=&quot;color: rgb(255, 255, 255); text-indent: 0in; line-height: normal; margin: 0pt 0in; word-break: normal; font-size: 21px;&quot;&gt;&lt;/p&gt;&lt;span style=&quot;text-indent: 0in; font-size: 21px;&quot;&gt;&lt;font face=&quot;dengxian&quot; style=&quot;font-size: 21px;&quot;&gt;类型转换接口体系&lt;br style=&quot;font-size: 21px;&quot;&gt;&lt;/font&gt;&lt;/span&gt;" style="rounded=0;whiteSpace=wrap;html=1;strokeWidth=2;align=left;fillColor=#f5f5f5;spacing=10;strokeColor=#666666;fontSize=21;fontColor=#333333;verticalAlign=top;" parent="xPt96xxPR4awn_NFNTdS-49" vertex="1">
          <mxGeometry x="-4280" y="-725" width="3280" height="955" as="geometry" />
        </mxCell>
        <mxCell id="xPt96xxPR4awn_NFNTdS-79" value="&lt;p style=&quot;color: rgb(255, 255, 255); text-indent: 0in; line-height: normal; margin: 0pt 0in; word-break: normal; font-size: 18px;&quot;&gt;&lt;/p&gt;&lt;span style=&quot;text-indent: 0in; font-size: 18px;&quot;&gt;&lt;font face=&quot;dengxian&quot; style=&quot;font-size: 18px;&quot;&gt;org.springframework.core.convert.support&lt;br style=&quot;font-size: 18px;&quot;&gt;&lt;/font&gt;&lt;/span&gt;" style="rounded=0;whiteSpace=wrap;html=1;strokeWidth=2;align=left;fillColor=#f5f5f5;spacing=10;strokeColor=#666666;fontSize=18;fontColor=#333333;verticalAlign=top;" parent="xPt96xxPR4awn_NFNTdS-49" vertex="1">
          <mxGeometry x="-3460" y="250" width="2340" height="490" as="geometry" />
        </mxCell>
        <mxCell id="xPt96xxPR4awn_NFNTdS-53" style="edgeStyle=none;rounded=0;orthogonalLoop=1;jettySize=auto;html=1;fontSize=14;strokeWidth=3;entryX=0.5;entryY=1;entryDx=0;entryDy=0;" parent="xPt96xxPR4awn_NFNTdS-49" source="xPt96xxPR4awn_NFNTdS-51" target="xPt96xxPR4awn_NFNTdS-58" edge="1">
          <mxGeometry relative="1" as="geometry">
            <mxPoint x="-2070" y="-340" as="targetPoint" />
          </mxGeometry>
        </mxCell>
        <mxCell id="xPt96xxPR4awn_NFNTdS-51" value="&lt;p style=&quot;color: rgb(255 , 255 , 255) ; text-indent: 0in ; line-height: normal ; margin: 0pt 0in ; word-break: normal ; font-size: 14px&quot;&gt;&lt;/p&gt;&lt;span style=&quot;text-indent: 0in&quot;&gt;&lt;font face=&quot;dengxian&quot;&gt;&lt;div&gt;Converter&amp;lt;S, T&amp;gt;&lt;/div&gt;&lt;div&gt;&lt;br&gt;&lt;/div&gt;&lt;div&gt;此接口的实现是【线程安全】的并且【可以共享】&lt;/div&gt;&lt;div&gt;S类型---&amp;gt;T类型&amp;nbsp; 的转换&lt;/div&gt;&lt;div&gt;&lt;br&gt;&lt;/div&gt;&lt;div&gt;&lt;pre style=&quot;background-color: #2b2b2b ; color: #a9b7c6 ; font-family: &amp;#34;menlo&amp;#34; ; font-size: 12.0pt&quot;&gt;&lt;span style=&quot;color: #507874&quot;&gt;T &lt;/span&gt;&lt;span style=&quot;color: #ffc66d&quot;&gt;convert&lt;/span&gt;(&lt;span style=&quot;color: #507874&quot;&gt;S &lt;/span&gt;source)&lt;span style=&quot;color: #cc7832&quot;&gt;;&lt;/span&gt;&lt;/pre&gt;&lt;/div&gt;&lt;/font&gt;&lt;/span&gt;" style="rounded=0;whiteSpace=wrap;html=1;strokeWidth=2;align=left;fillColor=#fff2cc;spacing=10;strokeColor=#d6b656;fontSize=14;" parent="xPt96xxPR4awn_NFNTdS-49" vertex="1">
          <mxGeometry x="-2280" y="-260" width="430" height="160" as="geometry" />
        </mxCell>
        <mxCell id="xPt96xxPR4awn_NFNTdS-52" value="&lt;p style=&quot;color: rgb(255 , 255 , 255) ; text-indent: 0in ; line-height: normal ; margin: 0pt 0in ; word-break: normal ; font-size: 14px&quot;&gt;&lt;/p&gt;&lt;span style=&quot;text-indent: 0in&quot;&gt;&lt;font face=&quot;dengxian&quot;&gt;org.springframework.core.convert.converter&lt;br&gt;&lt;/font&gt;&lt;/span&gt;" style="rounded=0;whiteSpace=wrap;html=1;strokeWidth=2;align=left;fillColor=#fff2cc;spacing=10;strokeColor=#d6b656;fontSize=14;" parent="xPt96xxPR4awn_NFNTdS-49" vertex="1">
          <mxGeometry x="-2320" y="-720" width="310" height="60" as="geometry" />
        </mxCell>
        <mxCell id="xPt96xxPR4awn_NFNTdS-80" style="edgeStyle=none;rounded=0;orthogonalLoop=1;jettySize=auto;html=1;entryX=0.5;entryY=1;entryDx=0;entryDy=0;fontSize=14;strokeWidth=3;" parent="xPt96xxPR4awn_NFNTdS-49" source="xPt96xxPR4awn_NFNTdS-56" target="xPt96xxPR4awn_NFNTdS-51" edge="1">
          <mxGeometry relative="1" as="geometry" />
        </mxCell>
        <mxCell id="xPt96xxPR4awn_NFNTdS-56" value="&lt;p style=&quot;color: rgb(255 , 255 , 255) ; text-indent: 0in ; line-height: normal ; margin: 0pt 0in ; word-break: normal ; font-size: 15px&quot;&gt;&lt;/p&gt;&lt;span style=&quot;text-indent: 0in ; font-size: 15px&quot;&gt;&lt;font face=&quot;dengxian&quot;&gt;&lt;div&gt;StringToBooleanConverter&lt;/div&gt;&lt;div&gt;&lt;br&gt;&lt;/div&gt;&lt;div&gt;String 转 Boolean&lt;/div&gt;&lt;div&gt;&lt;br&gt;&lt;/div&gt;&lt;div&gt;&quot;true&quot;, &quot;on&quot;, &quot;yes&quot;, &quot;1&quot; ---&amp;gt; true&lt;/div&gt;&lt;div&gt;&lt;br&gt;&lt;/div&gt;&lt;div&gt;&quot;false&quot;, &quot;off&quot;, &quot;no&quot;, &quot;0&quot; ---&amp;gt; false&lt;/div&gt;&lt;/font&gt;&lt;/span&gt;" style="rounded=0;whiteSpace=wrap;html=1;strokeWidth=2;align=left;fillColor=#d5e8d4;spacing=10;strokeColor=#82b366;" parent="xPt96xxPR4awn_NFNTdS-49" vertex="1">
          <mxGeometry x="-2200" y="310" width="270" height="170" as="geometry" />
        </mxCell>
        <mxCell id="xPt96xxPR4awn_NFNTdS-59" style="edgeStyle=none;rounded=0;orthogonalLoop=1;jettySize=auto;html=1;entryX=0.5;entryY=1;entryDx=0;entryDy=0;fontSize=14;strokeWidth=3;exitX=0.5;exitY=0;exitDx=0;exitDy=0;" parent="xPt96xxPR4awn_NFNTdS-49" source="xPt96xxPR4awn_NFNTdS-58" target="xPt96xxPR4awn_NFNTdS-52" edge="1">
          <mxGeometry relative="1" as="geometry" />
        </mxCell>
        <mxCell id="xPt96xxPR4awn_NFNTdS-58" value="&lt;p style=&quot;color: rgb(255 , 255 , 255) ; text-indent: 0in ; line-height: normal ; margin: 0pt 0in ; word-break: normal ; font-size: 14px&quot;&gt;&lt;/p&gt;&lt;span style=&quot;font-family: &amp;#34;dengxian&amp;#34;&quot;&gt;&amp;nbsp;1 ：1 种类型转换&lt;/span&gt;&lt;span style=&quot;text-indent: 0in&quot;&gt;&lt;font face=&quot;dengxian&quot;&gt;&lt;br&gt;&lt;/font&gt;&lt;/span&gt;" style="rounded=0;whiteSpace=wrap;html=1;strokeWidth=2;align=left;fillColor=#ffff88;spacing=10;strokeColor=#36393d;fontSize=14;" parent="xPt96xxPR4awn_NFNTdS-49" vertex="1">
          <mxGeometry x="-2145" y="-510" width="160" height="60" as="geometry" />
        </mxCell>
        <mxCell id="xPt96xxPR4awn_NFNTdS-61" style="edgeStyle=none;rounded=0;orthogonalLoop=1;jettySize=auto;html=1;entryX=0.5;entryY=1;entryDx=0;entryDy=0;fontSize=14;strokeWidth=3;" parent="xPt96xxPR4awn_NFNTdS-49" source="xPt96xxPR4awn_NFNTdS-60" target="xPt96xxPR4awn_NFNTdS-52" edge="1">
          <mxGeometry relative="1" as="geometry" />
        </mxCell>
        <mxCell id="xPt96xxPR4awn_NFNTdS-60" value="&lt;p style=&quot;color: rgb(255 , 255 , 255) ; text-indent: 0in ; line-height: normal ; margin: 0pt 0in ; word-break: normal ; font-size: 14px&quot;&gt;&lt;/p&gt;&lt;span style=&quot;font-family: &amp;#34;dengxian&amp;#34;&quot;&gt;&amp;nbsp;1 ：N 种类型转换&lt;/span&gt;&lt;span style=&quot;text-indent: 0in&quot;&gt;&lt;font face=&quot;dengxian&quot;&gt;&lt;br&gt;&lt;/font&gt;&lt;/span&gt;" style="rounded=0;whiteSpace=wrap;html=1;strokeWidth=2;align=left;fillColor=#fff2cc;spacing=10;strokeColor=#d6b656;fontSize=14;" parent="xPt96xxPR4awn_NFNTdS-49" vertex="1">
          <mxGeometry x="-1457.5" y="-510" width="160" height="60" as="geometry" />
        </mxCell>
        <mxCell id="xPt96xxPR4awn_NFNTdS-63" style="edgeStyle=none;rounded=0;orthogonalLoop=1;jettySize=auto;html=1;entryX=0.5;entryY=1;entryDx=0;entryDy=0;fontSize=14;strokeWidth=3;" parent="xPt96xxPR4awn_NFNTdS-49" source="xPt96xxPR4awn_NFNTdS-62" target="xPt96xxPR4awn_NFNTdS-60" edge="1">
          <mxGeometry relative="1" as="geometry" />
        </mxCell>
        <mxCell id="xPt96xxPR4awn_NFNTdS-65" style="edgeStyle=none;rounded=0;orthogonalLoop=1;jettySize=auto;html=1;entryX=1;entryY=0.5;entryDx=0;entryDy=0;fontSize=14;strokeWidth=3;" parent="xPt96xxPR4awn_NFNTdS-49" source="xPt96xxPR4awn_NFNTdS-62" target="xPt96xxPR4awn_NFNTdS-51" edge="1">
          <mxGeometry relative="1" as="geometry" />
        </mxCell>
        <mxCell id="xPt96xxPR4awn_NFNTdS-62" value="&lt;p style=&quot;color: rgb(255 , 255 , 255) ; text-indent: 0in ; line-height: normal ; margin: 0pt 0in ; word-break: normal ; font-size: 14px&quot;&gt;&lt;/p&gt;&lt;span style=&quot;text-indent: 0in&quot;&gt;&lt;font face=&quot;dengxian&quot;&gt;&lt;div&gt;&lt;div&gt;ConverterFactory&amp;lt;S, R&amp;gt;&lt;/div&gt;&lt;div&gt;&lt;br&gt;&lt;/div&gt;&lt;div&gt;将对象从 S 转换为 R 的子类型&lt;/div&gt;&lt;/div&gt;&lt;div&gt;&lt;br&gt;&lt;/div&gt;&lt;div&gt;获取/创建一个 String 到 指定数值类型的转换器，还是要通过 &lt;font color=&quot;#ff0000&quot;&gt;&lt;b&gt;Converter 的实现类&lt;/b&gt;&lt;/font&gt;进行转换&lt;br&gt;&lt;/div&gt;&lt;div&gt;&lt;pre style=&quot;background-color: #2b2b2b ; color: #a9b7c6 ; font-family: &amp;#34;menlo&amp;#34; ; font-size: 12.0pt&quot;&gt;&amp;lt;&lt;span style=&quot;color: #507874&quot;&gt;T &lt;/span&gt;&lt;span style=&quot;color: #cc7832&quot;&gt;extends &lt;/span&gt;&lt;span style=&quot;color: #507874&quot;&gt;R&lt;/span&gt;&amp;gt; Converter&amp;lt;&lt;span style=&quot;color: #507874&quot;&gt;S&lt;/span&gt;&lt;span style=&quot;color: #cc7832&quot;&gt;, &lt;/span&gt;&lt;span style=&quot;color: #507874&quot;&gt;T&lt;/span&gt;&amp;gt; &lt;span style=&quot;color: #ffc66d&quot;&gt;getConverter&lt;/span&gt;(Class&amp;lt;&lt;span style=&quot;color: #507874&quot;&gt;T&lt;/span&gt;&amp;gt; targetType)&lt;span style=&quot;color: #cc7832&quot;&gt;;&lt;/span&gt;&lt;/pre&gt;&lt;/div&gt;&lt;/font&gt;&lt;/span&gt;" style="rounded=0;whiteSpace=wrap;html=1;strokeWidth=2;align=left;fillColor=#fff2cc;spacing=10;strokeColor=#d6b656;fontSize=14;" parent="xPt96xxPR4awn_NFNTdS-49" vertex="1">
          <mxGeometry x="-1700" y="-270" width="645" height="170" as="geometry" />
        </mxCell>
        <mxCell id="xPt96xxPR4awn_NFNTdS-81" style="edgeStyle=none;rounded=0;orthogonalLoop=1;jettySize=auto;html=1;entryX=0.5;entryY=1;entryDx=0;entryDy=0;fontSize=14;strokeWidth=3;" parent="xPt96xxPR4awn_NFNTdS-49" source="xPt96xxPR4awn_NFNTdS-66" target="xPt96xxPR4awn_NFNTdS-62" edge="1">
          <mxGeometry relative="1" as="geometry" />
        </mxCell>
        <mxCell id="xPt96xxPR4awn_NFNTdS-66" value="&lt;p style=&quot;color: rgb(255 , 255 , 255) ; text-indent: 0in ; line-height: normal ; margin: 0pt 0in ; word-break: normal ; font-size: 15px&quot;&gt;&lt;/p&gt;&lt;span style=&quot;text-indent: 0in&quot;&gt;&lt;font face=&quot;dengxian&quot;&gt;&lt;div&gt;&lt;span style=&quot;font-size: 15px&quot;&gt;StringToEnumConverterFactory&lt;/span&gt;&lt;/div&gt;&lt;div&gt;&lt;span style=&quot;font-size: 15px&quot;&gt;创建一个从String--&amp;gt;任意【数值类型】的 Converter&lt;/span&gt;&lt;/div&gt;&lt;div style=&quot;font-size: 15px&quot;&gt;&lt;br&gt;&lt;/div&gt;&lt;/font&gt;&lt;/span&gt;" style="rounded=0;whiteSpace=wrap;html=1;strokeWidth=2;align=left;fillColor=#d5e8d4;spacing=10;strokeColor=#82b366;" parent="xPt96xxPR4awn_NFNTdS-49" vertex="1">
          <mxGeometry x="-1561" y="310" width="392.5" height="150" as="geometry" />
        </mxCell>
        <mxCell id="xPt96xxPR4awn_NFNTdS-69" style="edgeStyle=none;rounded=0;orthogonalLoop=1;jettySize=auto;html=1;entryX=0.5;entryY=1;entryDx=0;entryDy=0;fontSize=14;strokeWidth=3;" parent="xPt96xxPR4awn_NFNTdS-49" source="xPt96xxPR4awn_NFNTdS-68" target="xPt96xxPR4awn_NFNTdS-66" edge="1">
          <mxGeometry relative="1" as="geometry" />
        </mxCell>
        <mxCell id="xPt96xxPR4awn_NFNTdS-68" value="&lt;p style=&quot;color: rgb(255 , 255 , 255) ; text-indent: 0in ; line-height: normal ; margin: 0pt 0in ; word-break: normal ; font-size: 14px&quot;&gt;&lt;/p&gt;&lt;span style=&quot;text-indent: 0in&quot;&gt;&lt;font face=&quot;dengxian&quot;&gt;&lt;div&gt;java.lang.Enum&lt;/div&gt;&lt;div&gt;类型转换的实现&lt;/div&gt;&lt;/font&gt;&lt;/span&gt;" style="rounded=0;whiteSpace=wrap;html=1;strokeWidth=2;align=left;fillColor=#fff2cc;spacing=10;strokeColor=#d6b656;fontSize=14;" parent="xPt96xxPR4awn_NFNTdS-49" vertex="1">
          <mxGeometry x="-1439.75" y="540" width="150" height="60" as="geometry" />
        </mxCell>
        <mxCell id="xPt96xxPR4awn_NFNTdS-71" style="edgeStyle=none;rounded=0;orthogonalLoop=1;jettySize=auto;html=1;fontSize=14;strokeWidth=3;exitX=0.5;exitY=0;exitDx=0;exitDy=0;entryX=0.5;entryY=1;entryDx=0;entryDy=0;" parent="xPt96xxPR4awn_NFNTdS-49" source="xPt96xxPR4awn_NFNTdS-70" target="xPt96xxPR4awn_NFNTdS-52" edge="1">
          <mxGeometry relative="1" as="geometry">
            <mxPoint x="-1800" y="-560" as="targetPoint" />
          </mxGeometry>
        </mxCell>
        <mxCell id="xPt96xxPR4awn_NFNTdS-70" value="&lt;p style=&quot;color: rgb(255 , 255 , 255) ; text-indent: 0in ; line-height: normal ; margin: 0pt 0in ; word-break: normal ; font-size: 14px&quot;&gt;&lt;/p&gt;&lt;span style=&quot;text-indent: 0in&quot;&gt;&lt;font face=&quot;dengxian&quot;&gt;N:N种类之间的转换&lt;br&gt;&lt;br&gt;这里的 N:N 指的是：&lt;br&gt;集合间转换&lt;br&gt;数组间转换&lt;br&gt;Map到Map的转换&lt;br&gt;&lt;/font&gt;&lt;/span&gt;" style="rounded=0;whiteSpace=wrap;html=1;strokeWidth=2;align=left;fillColor=#fff2cc;spacing=10;strokeColor=#d6b656;fontSize=14;" parent="xPt96xxPR4awn_NFNTdS-49" vertex="1">
          <mxGeometry x="-3020" y="-650" width="230" height="150" as="geometry" />
        </mxCell>
        <mxCell id="xPt96xxPR4awn_NFNTdS-74" style="edgeStyle=none;rounded=0;orthogonalLoop=1;jettySize=auto;html=1;entryX=0.5;entryY=1;entryDx=0;entryDy=0;fontSize=14;strokeWidth=3;" parent="xPt96xxPR4awn_NFNTdS-49" source="xPt96xxPR4awn_NFNTdS-72" target="xPt96xxPR4awn_NFNTdS-70" edge="1">
          <mxGeometry relative="1" as="geometry" />
        </mxCell>
        <mxCell id="xPt96xxPR4awn_NFNTdS-72" value="&lt;p style=&quot;color: rgb(255 , 255 , 255) ; text-indent: 0in ; line-height: normal ; margin: 0pt 0in ; word-break: normal ; font-size: 14px&quot;&gt;&lt;/p&gt;&lt;span style=&quot;text-indent: 0in&quot;&gt;&lt;font face=&quot;dengxian&quot;&gt;&lt;div&gt;GenericConverter&lt;/div&gt;&lt;div&gt;&lt;br&gt;&lt;/div&gt;&lt;div&gt;如果更简单的 Converter 或 ConverterFactory 接口就足够时，&lt;/div&gt;&lt;div&gt;通常不应使用此接口。&lt;/div&gt;&lt;div&gt;&lt;br&gt;&lt;/div&gt;&lt;div&gt;&lt;br&gt;&lt;/div&gt;&lt;div&gt;&lt;br&gt;&lt;/div&gt;&lt;div&gt;&lt;br&gt;&lt;/div&gt;&lt;div&gt;返回(已注册的) ConvertiblePair 集合&lt;br&gt;&lt;/div&gt;&lt;div&gt;&lt;font color=&quot;#ff0000&quot; size=&quot;1&quot;&gt;&lt;b style=&quot;font-size: 15px&quot;&gt;因为返回的是一个集合，所以 GenericConverter 才能够支持 N:N 的类型转换！！！&lt;/b&gt;&lt;/font&gt;&lt;br&gt;&lt;/div&gt;&lt;div&gt;ConvertiblePair 中保存了可以相互转换的 原始类型&amp;lt;---&amp;gt;目标类型&lt;br&gt;&lt;/div&gt;&lt;div&gt;&lt;pre style=&quot;background-color: #2b2b2b ; color: #a9b7c6 ; font-family: &amp;#34;menlo&amp;#34; ; font-size: 12.0pt&quot;&gt;Set&amp;lt;ConvertiblePair&amp;gt; &lt;span style=&quot;color: #ffc66d&quot;&gt;getConvertibleTypes&lt;/span&gt;()&lt;span style=&quot;color: #cc7832&quot;&gt;;&lt;/span&gt;&lt;/pre&gt;&lt;div&gt;执行数据转换，需要传入: 数据，原始数据类型，目标数据类型.&lt;br class=&quot;Apple-interchange-newline&quot;&gt;&lt;pre style=&quot;background-color: #2b2b2b ; color: #a9b7c6 ; font-family: &amp;#34;menlo&amp;#34; ; font-size: 12.0pt&quot;&gt;Object &lt;span style=&quot;color: #ffc66d&quot;&gt;convert&lt;/span&gt;(&lt;span style=&quot;color: #bbb529&quot;&gt;@Nullable &lt;/span&gt;Object source&lt;span style=&quot;color: #cc7832&quot;&gt;, &lt;/span&gt;TypeDescriptor sourceType&lt;span style=&quot;color: #cc7832&quot;&gt;, &lt;/span&gt;TypeDescriptor targetType)&lt;span style=&quot;color: #cc7832&quot;&gt;;&lt;/span&gt;&lt;/pre&gt;&lt;/div&gt;&lt;div&gt;&lt;br&gt;&lt;/div&gt;&lt;/div&gt;&lt;/font&gt;&lt;/span&gt;" style="rounded=0;whiteSpace=wrap;html=1;strokeWidth=2;align=left;fillColor=#fff2cc;spacing=10;strokeColor=#d6b656;fontSize=14;" parent="xPt96xxPR4awn_NFNTdS-49" vertex="1">
          <mxGeometry x="-3380" y="-320" width="940" height="310" as="geometry" />
        </mxCell>
        <mxCell id="xPt96xxPR4awn_NFNTdS-76" style="edgeStyle=none;rounded=0;orthogonalLoop=1;jettySize=auto;html=1;fontSize=14;strokeWidth=3;entryX=0.25;entryY=0;entryDx=0;entryDy=0;exitX=0.5;exitY=1;exitDx=0;exitDy=0;" parent="xPt96xxPR4awn_NFNTdS-49" source="xPt96xxPR4awn_NFNTdS-75" target="xPt96xxPR4awn_NFNTdS-72" edge="1">
          <mxGeometry relative="1" as="geometry" />
        </mxCell>
        <mxCell id="xPt96xxPR4awn_NFNTdS-75" value="&lt;p style=&quot;color: rgb(255 , 255 , 255) ; text-indent: 0in ; line-height: normal ; margin: 0pt 0in ; word-break: normal ; font-size: 15px&quot;&gt;&lt;/p&gt;&lt;span style=&quot;text-indent: 0in ; font-size: 15px&quot;&gt;&lt;font face=&quot;dengxian&quot;&gt;&lt;div&gt;GenericConverter.ConvertiblePair&lt;/div&gt;&lt;div&gt;&lt;br&gt;&lt;/div&gt;&lt;div&gt;保存用于转换的: 原始类型 + 目标类型&lt;/div&gt;&lt;/font&gt;&lt;/span&gt;" style="rounded=0;whiteSpace=wrap;html=1;strokeWidth=2;align=left;fillColor=#d5e8d4;spacing=10;strokeColor=#82b366;" parent="xPt96xxPR4awn_NFNTdS-49" vertex="1">
          <mxGeometry x="-3390" y="-570" width="290" height="120" as="geometry" />
        </mxCell>
        <mxCell id="xPt96xxPR4awn_NFNTdS-78" style="edgeStyle=none;rounded=0;orthogonalLoop=1;jettySize=auto;html=1;entryX=0.5;entryY=1;entryDx=0;entryDy=0;fontSize=14;strokeWidth=3;exitX=0.5;exitY=0;exitDx=0;exitDy=0;" parent="xPt96xxPR4awn_NFNTdS-49" source="xPt96xxPR4awn_NFNTdS-89" target="xPt96xxPR4awn_NFNTdS-72" edge="1">
          <mxGeometry relative="1" as="geometry" />
        </mxCell>
        <mxCell id="xPt96xxPR4awn_NFNTdS-88" style="edgeStyle=none;rounded=0;orthogonalLoop=1;jettySize=auto;html=1;entryX=0.5;entryY=1;entryDx=0;entryDy=0;fontSize=14;strokeWidth=3;exitX=0.5;exitY=0;exitDx=0;exitDy=0;" parent="xPt96xxPR4awn_NFNTdS-49" source="xPt96xxPR4awn_NFNTdS-89" target="xPt96xxPR4awn_NFNTdS-82" edge="1">
          <mxGeometry relative="1" as="geometry" />
        </mxCell>
        <mxCell id="xPt96xxPR4awn_NFNTdS-90" style="edgeStyle=none;rounded=0;orthogonalLoop=1;jettySize=auto;html=1;fontSize=14;strokeWidth=3;" parent="xPt96xxPR4awn_NFNTdS-49" source="xPt96xxPR4awn_NFNTdS-77" target="xPt96xxPR4awn_NFNTdS-89" edge="1">
          <mxGeometry relative="1" as="geometry" />
        </mxCell>
        <mxCell id="xPt96xxPR4awn_NFNTdS-77" value="&lt;p style=&quot;color: rgb(255 , 255 , 255) ; text-indent: 0in ; line-height: normal ; margin: 0pt 0in ; word-break: normal ; font-size: 15px&quot;&gt;&lt;/p&gt;&lt;span style=&quot;text-indent: 0in ; font-size: 15px&quot;&gt;&lt;font face=&quot;dengxian&quot;&gt;&lt;div&gt;ObjectToCollectionConverter&lt;/div&gt;&lt;div&gt;&lt;br&gt;&lt;/div&gt;&lt;div&gt;Object---&amp;gt;Collection 的转换&lt;/div&gt;&lt;div&gt;任意类型 ----&amp;gt; 任意集合类型 的转换.&lt;/div&gt;&lt;div&gt;将会创建一个容量为 1 的集合，并将原始数据添加到集合中.&lt;/div&gt;&lt;div&gt;&lt;br&gt;&lt;/div&gt;&lt;div&gt;构造时，需要传入一个 ConversionService，用于转换: 原始类型 ---&amp;gt; 集合的泛型类型&lt;/div&gt;&lt;div&gt;&lt;br&gt;&lt;/div&gt;&lt;div&gt;虽然内部持有的转换类型是: Object---&amp;gt;Collection&lt;/div&gt;&lt;div&gt;&lt;b&gt;&lt;font color=&quot;#ff0000&quot;&gt;但是实际能够转换的类型还是由 【ConversionService】决定的！！！&lt;/font&gt;&lt;/b&gt;&lt;/div&gt;&lt;/font&gt;&lt;/span&gt;" style="rounded=0;whiteSpace=wrap;html=1;strokeWidth=2;align=left;fillColor=#d5e8d4;spacing=10;strokeColor=#82b366;" parent="xPt96xxPR4awn_NFNTdS-49" vertex="1">
          <mxGeometry x="-3220" y="305" width="620" height="270" as="geometry" />
        </mxCell>
        <mxCell id="xPt96xxPR4awn_NFNTdS-83" style="edgeStyle=none;rounded=0;orthogonalLoop=1;jettySize=auto;html=1;entryX=0.5;entryY=1;entryDx=0;entryDy=0;fontSize=14;strokeWidth=3;" parent="xPt96xxPR4awn_NFNTdS-49" source="xPt96xxPR4awn_NFNTdS-82" target="xPt96xxPR4awn_NFNTdS-52" edge="1">
          <mxGeometry relative="1" as="geometry" />
        </mxCell>
        <mxCell id="xPt96xxPR4awn_NFNTdS-82" value="&lt;p style=&quot;color: rgb(255 , 255 , 255) ; text-indent: 0in ; line-height: normal ; margin: 0pt 0in ; word-break: normal ; font-size: 14px&quot;&gt;&lt;/p&gt;&lt;span style=&quot;text-indent: 0in&quot;&gt;&lt;font face=&quot;dengxian&quot;&gt;&lt;div&gt;ConditionalConverter&lt;/div&gt;&lt;div&gt;&lt;br&gt;&lt;/div&gt;&lt;div&gt;用来检查类型转换的：原始类型 + 目标类型&lt;/div&gt;&lt;div&gt;需要结合其他三个接口使用&lt;/div&gt;&lt;div&gt;&lt;br&gt;&lt;/div&gt;&lt;div&gt;&lt;pre style=&quot;background-color: #2b2b2b ; color: #a9b7c6 ; font-family: &amp;#34;menlo&amp;#34; ; font-size: 12.0pt&quot;&gt;&lt;span style=&quot;color: #cc7832&quot;&gt;boolean &lt;/span&gt;&lt;span style=&quot;color: #ffc66d&quot;&gt;matches&lt;/span&gt;(TypeDescriptor sourceType&lt;span style=&quot;color: #cc7832&quot;&gt;, &lt;/span&gt;TypeDescriptor targetType)&lt;span style=&quot;color: #cc7832&quot;&gt;;&lt;/span&gt;&lt;/pre&gt;&lt;/div&gt;&lt;/font&gt;&lt;/span&gt;" style="rounded=0;whiteSpace=wrap;html=1;strokeWidth=2;align=left;fillColor=#fff2cc;spacing=10;strokeColor=#d6b656;fontSize=14;" parent="xPt96xxPR4awn_NFNTdS-49" vertex="1">
          <mxGeometry x="-4170" y="-290" width="700" height="150" as="geometry" />
        </mxCell>
        <mxCell id="xPt96xxPR4awn_NFNTdS-89" value="&lt;p style=&quot;color: rgb(255 , 255 , 255) ; text-indent: 0in ; line-height: normal ; margin: 0pt 0in ; word-break: normal ; font-size: 14px&quot;&gt;&lt;/p&gt;&lt;span style=&quot;text-indent: 0in&quot;&gt;&lt;font face=&quot;dengxian&quot;&gt;ConditionalGenericConverter&lt;br&gt;&lt;br&gt;有条件的类型转换&lt;br&gt;&lt;/font&gt;&lt;/span&gt;" style="rounded=0;whiteSpace=wrap;html=1;strokeWidth=2;align=left;fillColor=#fff2cc;spacing=10;strokeColor=#d6b656;fontSize=14;" parent="xPt96xxPR4awn_NFNTdS-49" vertex="1">
          <mxGeometry x="-3030" y="100" width="240" height="100" as="geometry" />
        </mxCell>
        <mxCell id="xPt96xxPR4awn_NFNTdS-93" style="edgeStyle=none;rounded=0;orthogonalLoop=1;jettySize=auto;html=1;fontSize=21;strokeWidth=3;exitX=0.5;exitY=0;exitDx=0;exitDy=0;" parent="xPt96xxPR4awn_NFNTdS-49" source="xPt96xxPR4awn_NFNTdS-91" target="xPt96xxPR4awn_NFNTdS-92" edge="1">
          <mxGeometry relative="1" as="geometry" />
        </mxCell>
        <mxCell id="xPt96xxPR4awn_NFNTdS-91" value="&lt;p style=&quot;color: rgb(255 , 255 , 255) ; text-indent: 0in ; line-height: normal ; margin: 0pt 0in ; word-break: normal ; font-size: 14px&quot;&gt;&lt;/p&gt;&lt;span style=&quot;text-indent: 0in&quot;&gt;&lt;font face=&quot;dengxian&quot;&gt;&lt;div&gt;ConversionService&lt;/div&gt;&lt;div&gt;&lt;br&gt;&lt;/div&gt;&lt;div&gt;一个【门面接口】&lt;/div&gt;&lt;div&gt;整合 Converter、ConverterFactory、GenericConverter 这个类型转换的接口体系，统一接口的操作&lt;/div&gt;&lt;/font&gt;&lt;/span&gt;" style="rounded=0;whiteSpace=wrap;html=1;strokeWidth=2;align=left;fillColor=#fff2cc;spacing=10;strokeColor=#d6b656;fontSize=14;" parent="xPt96xxPR4awn_NFNTdS-49" vertex="1">
          <mxGeometry x="-4730" y="360" width="380" height="150" as="geometry" />
        </mxCell>
        <mxCell id="xPt96xxPR4awn_NFNTdS-94" value="&lt;p style=&quot;color: rgb(255 , 255 , 255) ; text-indent: 0in ; line-height: normal ; margin: 0pt 0in ; word-break: normal ; font-size: 14px&quot;&gt;&lt;/p&gt;&lt;span style=&quot;text-indent: 0in&quot;&gt;&lt;font face=&quot;dengxian&quot;&gt;&lt;div&gt;ConverterRegistry&lt;/div&gt;&lt;div&gt;&lt;br&gt;&lt;/div&gt;&lt;div&gt;转换器注册中心&lt;/div&gt;&lt;div&gt;用来缓存:&lt;/div&gt;&lt;div&gt;Converter、GenericConverter、addConverterFactory&lt;/div&gt;&lt;div&gt;&lt;br&gt;&lt;/div&gt;&lt;div&gt;删除时，需要根据【原始类型】+【目标类型】来删除指定的转换器&lt;/div&gt;&lt;/font&gt;&lt;/span&gt;" style="rounded=0;whiteSpace=wrap;html=1;strokeWidth=2;align=left;fillColor=#fff2cc;spacing=10;strokeColor=#d6b656;fontSize=14;" parent="xPt96xxPR4awn_NFNTdS-49" vertex="1">
          <mxGeometry x="-5150" y="340" width="380" height="170" as="geometry" />
        </mxCell>
        <mxCell id="xPt96xxPR4awn_NFNTdS-97" style="edgeStyle=none;rounded=0;orthogonalLoop=1;jettySize=auto;html=1;entryX=0.5;entryY=1;entryDx=0;entryDy=0;fontSize=21;strokeWidth=3;exitX=0.5;exitY=0;exitDx=0;exitDy=0;" parent="xPt96xxPR4awn_NFNTdS-49" source="xPt96xxPR4awn_NFNTdS-96" target="xPt96xxPR4awn_NFNTdS-94" edge="1">
          <mxGeometry relative="1" as="geometry" />
        </mxCell>
        <mxCell id="xPt96xxPR4awn_NFNTdS-98" style="edgeStyle=none;rounded=0;orthogonalLoop=1;jettySize=auto;html=1;entryX=0.5;entryY=1;entryDx=0;entryDy=0;fontSize=21;strokeWidth=3;exitX=0.5;exitY=0;exitDx=0;exitDy=0;" parent="xPt96xxPR4awn_NFNTdS-49" source="xPt96xxPR4awn_NFNTdS-96" target="xPt96xxPR4awn_NFNTdS-91" edge="1">
          <mxGeometry relative="1" as="geometry" />
        </mxCell>
        <mxCell id="xPt96xxPR4awn_NFNTdS-96" value="&lt;p style=&quot;color: rgb(255, 255, 255); text-indent: 0in; line-height: normal; margin: 0pt 0in; word-break: normal; font-size: 16px;&quot;&gt;&lt;/p&gt;&lt;span style=&quot;text-indent: 0in; font-size: 16px;&quot;&gt;&lt;font face=&quot;dengxian&quot; style=&quot;font-size: 16px;&quot;&gt;ConfigurableConversionService&lt;br style=&quot;font-size: 16px;&quot;&gt;&lt;/font&gt;&lt;/span&gt;" style="rounded=0;whiteSpace=wrap;html=1;strokeWidth=2;align=left;fillColor=#fff2cc;spacing=10;strokeColor=#d6b656;fontSize=16;" parent="xPt96xxPR4awn_NFNTdS-49" vertex="1">
          <mxGeometry x="-4830" y="610" width="380" height="50" as="geometry" />
        </mxCell>
        <mxCell id="xPt96xxPR4awn_NFNTdS-100" style="edgeStyle=none;rounded=0;orthogonalLoop=1;jettySize=auto;html=1;entryX=0.5;entryY=1;entryDx=0;entryDy=0;fontSize=16;strokeWidth=3;" parent="xPt96xxPR4awn_NFNTdS-49" source="xPt96xxPR4awn_NFNTdS-99" target="xPt96xxPR4awn_NFNTdS-96" edge="1">
          <mxGeometry relative="1" as="geometry" />
        </mxCell>
        <mxCell id="xPt96xxPR4awn_NFNTdS-117" style="edgeStyle=orthogonalEdgeStyle;rounded=0;orthogonalLoop=1;jettySize=auto;html=1;fontSize=16;strokeWidth=3;entryX=0.177;entryY=1.002;entryDx=0;entryDy=0;entryPerimeter=0;startArrow=classic;startFill=1;endArrow=none;endFill=0;" parent="xPt96xxPR4awn_NFNTdS-49" source="xPt96xxPR4awn_NFNTdS-99" target="xPt96xxPR4awn_NFNTdS-92" edge="1">
          <mxGeometry relative="1" as="geometry" />
        </mxCell>
        <mxCell id="xPt96xxPR4awn_NFNTdS-99" value="&lt;p style=&quot;color: rgb(255 , 255 , 255) ; text-indent: 0in ; line-height: normal ; margin: 0pt 0in ; word-break: normal ; font-size: 15px&quot;&gt;&lt;/p&gt;&lt;span style=&quot;text-indent: 0in ; font-size: 15px&quot;&gt;&lt;font face=&quot;dengxian&quot;&gt;&lt;div&gt;GenericConversionService&lt;/div&gt;&lt;div&gt;&lt;br&gt;&lt;/div&gt;&lt;div&gt;适用于大多数环境的基本 ConversionService 实现.&lt;/div&gt;&lt;div&gt;通过 ConfigurableConversionService 接口间接实现 ConverterRegistry 作为注册 API.&lt;/div&gt;&lt;div&gt;&lt;br&gt;&lt;/div&gt;&lt;div&gt;只提供模版实现，如转换器的注册、删除、匹配查找等，但&lt;font color=&quot;#ff0000&quot;&gt;&lt;b&gt;不内置转换器实现&lt;/b&gt;&lt;/font&gt;&lt;/div&gt;&lt;/font&gt;&lt;/span&gt;" style="rounded=0;whiteSpace=wrap;html=1;strokeWidth=2;align=left;fillColor=#d5e8d4;spacing=10;strokeColor=#82b366;" parent="xPt96xxPR4awn_NFNTdS-49" vertex="1">
          <mxGeometry x="-4950" y="770" width="620" height="170" as="geometry" />
        </mxCell>
        <mxCell id="xPt96xxPR4awn_NFNTdS-102" value="" style="edgeStyle=none;rounded=0;orthogonalLoop=1;jettySize=auto;html=1;fontSize=16;strokeWidth=3;entryX=0.5;entryY=1;entryDx=0;entryDy=0;" parent="xPt96xxPR4awn_NFNTdS-49" source="xPt96xxPR4awn_NFNTdS-101" target="xPt96xxPR4awn_NFNTdS-99" edge="1">
          <mxGeometry relative="1" as="geometry">
            <mxPoint x="-4320" y="1000" as="targetPoint" />
          </mxGeometry>
        </mxCell>
        <mxCell id="xPt96xxPR4awn_NFNTdS-119" style="edgeStyle=orthogonalEdgeStyle;rounded=0;orthogonalLoop=1;jettySize=auto;html=1;fontSize=16;startArrow=classic;startFill=1;endArrow=none;endFill=0;strokeWidth=3;" parent="xPt96xxPR4awn_NFNTdS-49" source="xPt96xxPR4awn_NFNTdS-101" edge="1">
          <mxGeometry relative="1" as="geometry">
            <mxPoint x="-3700" y="230" as="targetPoint" />
          </mxGeometry>
        </mxCell>
        <mxCell id="xPt96xxPR4awn_NFNTdS-120" value="Convert 被注册到这里" style="edgeLabel;html=1;align=center;verticalAlign=middle;resizable=0;points=[];fontSize=20;" parent="xPt96xxPR4awn_NFNTdS-119" vertex="1" connectable="0">
          <mxGeometry x="-0.373" relative="1" as="geometry">
            <mxPoint x="-370" y="-25" as="offset" />
          </mxGeometry>
        </mxCell>
        <mxCell id="xPt96xxPR4awn_NFNTdS-101" value="&lt;p style=&quot;color: rgb(255 , 255 , 255) ; text-indent: 0in ; line-height: normal ; margin: 0pt 0in ; word-break: normal ; font-size: 15px&quot;&gt;&lt;/p&gt;&lt;span style=&quot;text-indent: 0in ; font-size: 15px&quot;&gt;&lt;font face=&quot;dengxian&quot;&gt;&lt;div&gt;DefaultConversionService&lt;/div&gt;&lt;div&gt;&lt;br&gt;&lt;/div&gt;&lt;div&gt;GenericConversionService 的默认实现，&lt;b&gt;&lt;font color=&quot;#ff0000&quot;&gt;提供了大量的转换器.&lt;/font&gt;&lt;/b&gt;&lt;/div&gt;&lt;/font&gt;&lt;/span&gt;" style="rounded=0;whiteSpace=wrap;html=1;strokeWidth=2;align=left;fillColor=#d5e8d4;spacing=10;strokeColor=#82b366;" parent="xPt96xxPR4awn_NFNTdS-49" vertex="1">
          <mxGeometry x="-4860" y="1050" width="440" height="110" as="geometry" />
        </mxCell>
        <mxCell id="xPt96xxPR4awn_NFNTdS-104" style="edgeStyle=none;rounded=0;orthogonalLoop=1;jettySize=auto;html=1;fontSize=16;strokeWidth=3;" parent="xPt96xxPR4awn_NFNTdS-49" source="xPt96xxPR4awn_NFNTdS-103" target="xPt96xxPR4awn_NFNTdS-91" edge="1">
          <mxGeometry relative="1" as="geometry" />
        </mxCell>
        <mxCell id="xPt96xxPR4awn_NFNTdS-103" value="&lt;p style=&quot;line-height: 130%&quot;&gt;&lt;/p&gt;&lt;div&gt;提供了 ApplicationContext的多项功能，&lt;/div&gt;&lt;div&gt;包括但不限于：&lt;/div&gt;&lt;div&gt;&amp;nbsp; &amp;nbsp; 1.&amp;nbsp; BeanWrapper处理Bean属性&lt;/div&gt;&lt;div&gt;&amp;nbsp; &amp;nbsp; 2.&amp;nbsp; DataBinder数据绑定&lt;/div&gt;&lt;div&gt;&amp;nbsp; &amp;nbsp; 3. PropertySource外部化属性处理&lt;/div&gt;&lt;div&gt;其他&lt;/div&gt;&lt;div&gt;&amp;nbsp; &amp;nbsp;&amp;nbsp;WebConversionService 时 SpringBoot 2.x 版本提供的增强&lt;/div&gt;&lt;p&gt;&lt;/p&gt;" style="rounded=0;whiteSpace=wrap;html=1;strokeWidth=2;align=left;spacing=10;strokeColor=#b85450;fillColor=#FF9999;fontSize=14;" parent="xPt96xxPR4awn_NFNTdS-49" vertex="1">
          <mxGeometry x="-4250" y="343.5" width="400" height="163" as="geometry" />
        </mxCell>
        <mxCell id="xPt96xxPR4awn_NFNTdS-106" value="&lt;p style=&quot;color: rgb(255 , 255 , 255) ; text-indent: 0in ; line-height: normal ; margin: 0pt 0in ; word-break: normal ; font-size: 14px&quot;&gt;&lt;/p&gt;&lt;span style=&quot;text-indent: 0in&quot;&gt;&lt;font face=&quot;dengxian&quot;&gt;&lt;div&gt;spring-context&lt;/div&gt;&lt;div&gt;org.springframework.format&lt;/div&gt;&lt;/font&gt;&lt;/span&gt;" style="rounded=0;whiteSpace=wrap;html=1;strokeWidth=2;align=left;fillColor=#fff2cc;spacing=10;strokeColor=#d6b656;fontSize=14;" parent="xPt96xxPR4awn_NFNTdS-49" vertex="1">
          <mxGeometry x="-5810" y="140" width="210" height="70" as="geometry" />
        </mxCell>
        <mxCell id="xPt96xxPR4awn_NFNTdS-108" style="edgeStyle=none;rounded=0;orthogonalLoop=1;jettySize=auto;html=1;entryX=0.5;entryY=1;entryDx=0;entryDy=0;fontSize=16;strokeWidth=3;" parent="xPt96xxPR4awn_NFNTdS-49" source="xPt96xxPR4awn_NFNTdS-107" target="xPt96xxPR4awn_NFNTdS-106" edge="1">
          <mxGeometry relative="1" as="geometry" />
        </mxCell>
        <mxCell id="xPt96xxPR4awn_NFNTdS-116" style="edgeStyle=orthogonalEdgeStyle;rounded=0;orthogonalLoop=1;jettySize=auto;html=1;entryX=0;entryY=0.5;entryDx=0;entryDy=0;fontSize=16;strokeWidth=3;" parent="xPt96xxPR4awn_NFNTdS-49" source="xPt96xxPR4awn_NFNTdS-107" target="xPt96xxPR4awn_NFNTdS-111" edge="1">
          <mxGeometry relative="1" as="geometry" />
        </mxCell>
        <mxCell id="xPt96xxPR4awn_NFNTdS-121" style="edgeStyle=orthogonalEdgeStyle;rounded=0;orthogonalLoop=1;jettySize=auto;html=1;entryX=0;entryY=0.5;entryDx=0;entryDy=0;fontSize=20;startArrow=none;startFill=0;endArrow=classic;endFill=1;strokeWidth=3;" parent="xPt96xxPR4awn_NFNTdS-49" target="xPt96xxPR4awn_NFNTdS-113" edge="1">
          <mxGeometry relative="1" as="geometry">
            <mxPoint x="-5705" y="460" as="sourcePoint" />
            <Array as="points">
              <mxPoint x="-5705" y="1115" />
            </Array>
          </mxGeometry>
        </mxCell>
        <mxCell id="xPt96xxPR4awn_NFNTdS-122" value="Formatter 注册到这里" style="edgeLabel;html=1;align=center;verticalAlign=middle;resizable=0;points=[];fontSize=20;" parent="xPt96xxPR4awn_NFNTdS-121" vertex="1" connectable="0">
          <mxGeometry x="0.6754" y="1" relative="1" as="geometry">
            <mxPoint x="37" y="-24" as="offset" />
          </mxGeometry>
        </mxCell>
        <mxCell id="xPt96xxPR4awn_NFNTdS-107" value="&lt;p style=&quot;color: rgb(255 , 255 , 255) ; text-indent: 0in ; line-height: normal ; margin: 0pt 0in ; word-break: normal ; font-size: 14px&quot;&gt;&lt;/p&gt;&lt;span style=&quot;text-indent: 0in&quot;&gt;&lt;font face=&quot;dengxian&quot;&gt;&lt;div&gt;Formatter&amp;lt;T&amp;gt;&lt;/div&gt;&lt;div&gt;&lt;br&gt;&lt;/div&gt;&lt;div&gt;将Object格式化为类型T&lt;/div&gt;&lt;div&gt;&lt;br&gt;&lt;/div&gt;&lt;div&gt;主要进行的是【格式化】，而不是单纯的类型转换&lt;/div&gt;&lt;div&gt;可以用于数值、日期等的变化&lt;/div&gt;&lt;/font&gt;&lt;/span&gt;" style="rounded=0;whiteSpace=wrap;html=1;strokeWidth=2;align=left;fillColor=#fff2cc;spacing=10;strokeColor=#d6b656;fontSize=14;" parent="xPt96xxPR4awn_NFNTdS-49" vertex="1">
          <mxGeometry x="-5880" y="340" width="350" height="120" as="geometry" />
        </mxCell>
        <mxCell id="xPt96xxPR4awn_NFNTdS-110" style="edgeStyle=none;rounded=0;orthogonalLoop=1;jettySize=auto;html=1;entryX=0.5;entryY=1;entryDx=0;entryDy=0;fontSize=16;strokeWidth=3;" parent="xPt96xxPR4awn_NFNTdS-49" source="xPt96xxPR4awn_NFNTdS-109" target="xPt96xxPR4awn_NFNTdS-107" edge="1">
          <mxGeometry relative="1" as="geometry" />
        </mxCell>
        <mxCell id="xPt96xxPR4awn_NFNTdS-109" value="&lt;p style=&quot;color: rgb(255 , 255 , 255) ; text-indent: 0in ; line-height: normal ; margin: 0pt 0in ; word-break: normal ; font-size: 15px&quot;&gt;&lt;/p&gt;&lt;span style=&quot;text-indent: 0in ; font-size: 15px&quot;&gt;&lt;font face=&quot;dengxian&quot;&gt;&lt;div&gt;DateFormatter&lt;/div&gt;&lt;div&gt;&lt;br&gt;&lt;/div&gt;&lt;div&gt;String --&amp;gt; Date 类型的格式化&lt;/div&gt;&lt;div&gt;允许配置显式日期模式和区域设置&lt;/div&gt;&lt;/font&gt;&lt;/span&gt;" style="rounded=0;whiteSpace=wrap;html=1;strokeWidth=2;align=left;fillColor=#d5e8d4;spacing=10;strokeColor=#82b366;" parent="xPt96xxPR4awn_NFNTdS-49" vertex="1">
          <mxGeometry x="-6090" y="520" width="260" height="130" as="geometry" />
        </mxCell>
        <mxCell id="xPt96xxPR4awn_NFNTdS-112" style="edgeStyle=none;rounded=0;orthogonalLoop=1;jettySize=auto;html=1;entryX=0.5;entryY=1;entryDx=0;entryDy=0;fontSize=16;strokeWidth=3;exitX=0.5;exitY=0;exitDx=0;exitDy=0;" parent="xPt96xxPR4awn_NFNTdS-49" source="xPt96xxPR4awn_NFNTdS-111" target="xPt96xxPR4awn_NFNTdS-94" edge="1">
          <mxGeometry relative="1" as="geometry" />
        </mxCell>
        <mxCell id="xPt96xxPR4awn_NFNTdS-111" value="&lt;p style=&quot;color: rgb(255 , 255 , 255) ; text-indent: 0in ; line-height: normal ; margin: 0pt 0in ; word-break: normal ; font-size: 14px&quot;&gt;&lt;/p&gt;&lt;span style=&quot;text-indent: 0in&quot;&gt;&lt;font face=&quot;dengxian&quot;&gt;FormatterRegistry&lt;br&gt;&lt;br&gt;Formatter 注册器&lt;br&gt;&lt;/font&gt;&lt;/span&gt;" style="rounded=0;whiteSpace=wrap;html=1;strokeWidth=2;align=left;fillColor=#fff2cc;spacing=10;strokeColor=#d6b656;fontSize=14;" parent="xPt96xxPR4awn_NFNTdS-49" vertex="1">
          <mxGeometry x="-5540" y="760" width="350" height="120" as="geometry" />
        </mxCell>
        <mxCell id="xPt96xxPR4awn_NFNTdS-114" style="edgeStyle=none;rounded=0;orthogonalLoop=1;jettySize=auto;html=1;entryX=0.5;entryY=1;entryDx=0;entryDy=0;fontSize=16;strokeWidth=3;" parent="xPt96xxPR4awn_NFNTdS-49" source="xPt96xxPR4awn_NFNTdS-113" target="xPt96xxPR4awn_NFNTdS-111" edge="1">
          <mxGeometry relative="1" as="geometry" />
        </mxCell>
        <mxCell id="xPt96xxPR4awn_NFNTdS-115" style="edgeStyle=none;rounded=0;orthogonalLoop=1;jettySize=auto;html=1;entryX=0;entryY=0.5;entryDx=0;entryDy=0;fontSize=16;strokeWidth=3;" parent="xPt96xxPR4awn_NFNTdS-49" source="xPt96xxPR4awn_NFNTdS-113" target="xPt96xxPR4awn_NFNTdS-99" edge="1">
          <mxGeometry relative="1" as="geometry" />
        </mxCell>
        <mxCell id="xPt96xxPR4awn_NFNTdS-113" value="&lt;p style=&quot;color: rgb(255 , 255 , 255) ; text-indent: 0in ; line-height: normal ; margin: 0pt 0in ; word-break: normal ; font-size: 15px&quot;&gt;&lt;/p&gt;&lt;span style=&quot;text-indent: 0in ; font-size: 15px&quot;&gt;&lt;font face=&quot;dengxian&quot;&gt;&lt;div&gt;FormattingConversionService&lt;/div&gt;&lt;div&gt;&lt;br&gt;&lt;/div&gt;&lt;div&gt;整合Converter和Formatter&lt;/div&gt;&lt;/font&gt;&lt;/span&gt;" style="rounded=0;whiteSpace=wrap;html=1;strokeWidth=2;align=left;fillColor=#d5e8d4;spacing=10;strokeColor=#82b366;" parent="xPt96xxPR4awn_NFNTdS-49" vertex="1">
          <mxGeometry x="-5485" y="1060" width="240" height="110" as="geometry" />
        </mxCell>
        <mxCell id="8VRioN3-lYCMi94_UGDz-21" style="edgeStyle=none;rounded=0;orthogonalLoop=1;jettySize=auto;html=1;fontSize=13;startArrow=none;startFill=0;strokeWidth=3;exitX=0.5;exitY=0;exitDx=0;exitDy=0;" parent="xPt96xxPR4awn_NFNTdS-49" source="8VRioN3-lYCMi94_UGDz-20" edge="1">
          <mxGeometry relative="1" as="geometry">
            <mxPoint x="-2065" y="-100" as="targetPoint" />
          </mxGeometry>
        </mxCell>
        <mxCell id="8VRioN3-lYCMi94_UGDz-20" value="缺点&lt;br style=&quot;font-size: 15px&quot;&gt;如果要做 1:N 种类型的转换，需要写 N 个转换器&lt;br style=&quot;font-size: 15px&quot;&gt;所以需要借助 ConvertFactory 来实现" style="rounded=0;whiteSpace=wrap;html=1;strokeWidth=2;align=left;spacing=10;strokeColor=#b85450;fillColor=#FF9999;fontSize=15;" parent="xPt96xxPR4awn_NFNTdS-49" vertex="1">
          <mxGeometry x="-2020" y="-30" width="390" height="120" as="geometry" />
        </mxCell>
        <mxCell id="CeJMrUjeIItU9xUJfGUd-2" style="rounded=0;orthogonalLoop=1;jettySize=auto;html=1;entryX=0.5;entryY=1;entryDx=0;entryDy=0;exitX=0.5;exitY=0;exitDx=0;exitDy=0;strokeWidth=3;" edge="1" parent="xPt96xxPR4awn_NFNTdS-49" source="CeJMrUjeIItU9xUJfGUd-1" target="xPt96xxPR4awn_NFNTdS-62">
          <mxGeometry relative="1" as="geometry" />
        </mxCell>
        <mxCell id="CeJMrUjeIItU9xUJfGUd-1" value="缺点&lt;br style=&quot;font-size: 15px&quot;&gt;无法实现集合间转换、数组间转换、Map到Map的转换等 N:N 的变化，需要通过 GenericConverter 来实现" style="rounded=0;whiteSpace=wrap;html=1;strokeWidth=2;align=left;spacing=10;strokeColor=#b85450;fillColor=#FF9999;fontSize=15;" vertex="1" parent="xPt96xxPR4awn_NFNTdS-49">
          <mxGeometry x="-1350" y="-30" width="340" height="140" as="geometry" />
        </mxCell>
      </root>
    </mxGraphModel>
  </diagram>
</mxfile>
